<?xml version="1.0" encoding="utf-8"?>
<!-- Generator: Adobe Illustrator 21.0.2, SVG Export Plug-In . SVG Version: 6.00 Build 0)  -->
<svg version="1.1" id="content" xmlns="http://www.w3.org/2000/svg" xmlns:xlink="http://www.w3.org/1999/xlink" x="0px" y="0px"
	 viewBox="0 0 1200 1920" style="enable-background:new 0 0 1200 1920;" xml:space="preserve">
<style type="text/css">
	.st0{opacity:0.15;enable-background:new    ;}
	.st1{fill:#FFFFFF;}
	.st2{font-family:'AmazonEmber-Bold';}
	.st3{font-size:20px;}
	.st4{font-family:'AmazonEmber-Regular';}
	.st5{font-size:28px;}
	.st6{opacity:0.3;enable-background:new    ;}
	.st7{font-family:'EuphemiaUCAS';}
	.st8{font-size:96px;}
	.st9{font-family:'AmazonEmber-Light';}
	.st10{letter-spacing:-6;}
</style>
<title>Gen6UI</title>
<g>
	<g>
		<g>
			<g>
				<g>
					<g class="st0">
						<g>
							<path class="st1" d="M171,27.5c0-8.3,6.7-15,15-15s15,6.7,15,15s-6.7,15-15,15S171,35.8,171,27.5"/>
						</g>
					</g>
					<path class="st1" d="M171,26c0-8.3,6.7-15,15-15s15,6.7,15,15s-6.7,15-15,15S171,34.3,171,26"/>
					<text transform="matrix(1.02 0 0 1 180.04 32.9499)" class="st2 st3">2</text>
					<text transform="matrix(1 0 0 1 31 35.5902)" class="st1 st4 st5">Je</text>
					<text transform="matrix(1 0 0 1 58.05 35.5902)" class="st1 st4 st5">ff</text>
					<text transform="matrix(1 0 0 1 78.6 35.5902)" class="st1 st4 st5">&apos;</text>
					<text transform="matrix(1 0 0 1 83.56 35.5902)" class="st1 st4 st5">s Fire</text>
					<text transform="matrix(1 0 0 1 1050.87 35.5902)" class="st1 st4 st5">75%</text>
					<g>
						<g>
							<g class="st6">
								<g>
									<path class="st1" d="M1008,11.5c-8.7,0-17,3.6-23,9.8l2.9,2.8c10.6-11.1,28.2-11.5,39.4-0.9c0.3,0.3,0.6,0.6,0.9,0.9
										l2.9-2.8C1025,15,1016.7,11.5,1008,11.5"/>
								</g>
							</g>
							<g>
								<g>
									<g class="st6">
										<g>
											<path class="st1" d="M1008,18.5c-6.8,0-13.3,2.8-18,7.7l2.9,2.8c7.9-8.3,21.1-8.6,29.5-0.7c0.2,0.2,0.5,0.5,0.7,0.7
												l2.9-2.8C1021.2,21.2,1014.7,18.5,1008,18.5"/>
										</g>
									</g>
									<path class="st1" d="M1008,25.5c-4.9,0-9.6,2-12.9,5.5l2.9,2.8c5.3-5.6,14.1-5.8,19.7-0.5c0.2,0.2,0.3,0.3,0.5,0.5l2.9-2.8
										C1017.6,27.5,1012.9,25.5,1008,25.5"/>
									<path class="st1" d="M1008,32.5c-3,0-5.8,1.2-7.9,3.4l2.9,2.8c2.7-2.8,7.1-2.9,9.9-0.2c0.1,0.1,0.1,0.1,0.2,0.2l2.9-2.8
										C1013.8,33.7,1011,32.5,1008,32.5"/>
									<path class="st1" d="M959.6,27.7c0-6.1-4.8-11.2-10.9-11.5l0.1-1.7h1l1-1v-2l-1-1h-4l-1,1v2l1,1h1l0.1,1.7
										c-6.3,0.7-10.9,6.4-10.2,12.7c0.3,2.5,1.3,4.9,3.1,6.7l-2.8,2.8l1.8,1.8l2.9-2.9c3.8,2.6,8.8,2.7,12.7,0.2l2.7,2.7l1.8-1.8
										l-2.5-2.5C958.4,33.7,959.6,30.8,959.6,27.7 M939,27.7c0-5,4.1-9.1,9.1-9.1s9.1,4.1,9.1,9.1s-4.1,9.1-9.1,9.1l0,0
										C943,36.7,939,32.7,939,27.7"/>
									<polygon class="st1" points="949,22.3 946.5,22.3 946.5,28.6 951.7,30.2 952.4,27.8 949,26.7 									"/>
									<path class="st1" d="M940.5,12L940.5,12l-0.2-0.2l0,0c-1-0.9-3.1-0.6-4.9,0.7s-2.7,3.3-2.1,4.5l0,0l1.8,2.4l7-5.3L940.5,12
										z"/>
									<path class="st1" d="M960.2,12.5c-1.8-1.4-3.9-1.6-4.9-0.7l0,0l-0.2,0.2l0,0l-1.6,2.1l7.1,5.3l1.8-2.4l0,0
										C963,15.9,962.1,13.9,960.2,12.5"/>
									<path class="st1" d="M1168,22.5c-0.5,0-1-0.7-1-1v-6c0-1.1-0.9-2-2-2h-42c-1.1,0-2,0.9-2,2v20c0,1.1,0.9,2,2,2h42
										c1.1,0,2-0.9,2-2v-6c0-0.3,0.5-1,1-1c0.6,0,1-0.4,1-1v-4C1169,22.9,1168.6,22.5,1168,22.5 M1164,34.5h-40v-18h40V34.5z"/>
									<path class="st1" d="M1155,32.5h-28c-0.6,0-1-0.4-1-1v-12c0-0.6,0.4-1,1-1h28V32.5z"/>
								</g>
								<text transform="matrix(1 0 0 1 1094.5 994.9699)" class="st1 st7 st8">&lt;</text>
								<text transform="matrix(1 0 0 1 982.04 101.67)" class="st1 st9 st5">WE</text>
								<text transform="matrix(1 0 0 1 1022.75 101.67)" class="st1 st9 st5">D</text>
								<text transform="matrix(1 0 0 1 1040.73 101.67)" class="st1 st9 st5">, SEP 28</text>
								<text transform="matrix(1 0 0 1 914.93 200.7799)" class="st1 st9 st8 st10">1</text>
								<text transform="matrix(1 0 0 1 963.51 200.7799)" class="st1 st9 st8">2:58</text>
								<path class="st1" d="M259,130.2c-8.8,0-15.9,7.1-15.9,15.8c0,8.8,7.1,15.9,15.8,15.9c8.8,0,15.9-7.1,15.9-15.8l0,0
									C274.8,137.3,267.7,130.2,259,130.2"/>
								<path class="st1" d="M276.8,119.2c-1.2-0.1-2.2-0.8-2.7-1.9l-3.3-8.9c-0.5-1.1-1.5-1.8-2.7-1.9h-18.2
									c-1.2,0.1-2.2,0.8-2.7,1.9l-3.3,8.9c-0.5,1.1-1.5,1.8-2.7,1.9H223c-1.1,0-2,0.9-2,2v53c0,1.1,0.9,2,2,2h72c1.1,0,2-0.9,2-2
									v-53c0-1.1-0.9-2-2-2H276.8z M230.5,130.2c-1.8,0-3.2-1.4-3.2-3.2s1.4-3.2,3.2-3.2s3.2,1.4,3.2,3.2l0,0
									C233.7,128.8,232.3,130.2,230.5,130.2 M259,168.2c-12.3,0-22.2-9.9-22.2-22.2s9.9-22.2,22.2-22.2c12.3,0,22.2,9.9,22.2,22.2
									l0,0C281.2,158.3,271.3,168.2,259,168.2"/>
							</g>
						</g>
					</g>
				</g>
			</g>
		</g>
	</g>
</g>
</svg>
