<?xml version="1.0" encoding="utf-8"?>
<!-- Generator: Adobe Illustrator 21.0.2, SVG Export Plug-In . SVG Version: 6.00 Build 0)  -->
<svg version="1.1" id="content" xmlns="http://www.w3.org/2000/svg" xmlns:xlink="http://www.w3.org/1999/xlink" x="0px" y="0px"
	 viewBox="0 0 1920 1200" style="enable-background:new 0 0 1920 1200;" xml:space="preserve">
<style type="text/css">
	.st0{fill:#FFFFFF;}
	.st1{font-family:'EuphemiaUCAS';}
	.st2{font-size:96px;}
	.st3{font-family:'AmazonEmber-Light';}
	.st4{font-size:28px;}
	.st5{opacity:0.15;}
	.st6{font-family:'AmazonEmber-Bold';}
	.st7{font-size:20px;}
	.st8{font-family:'AmazonEmber-Regular';}
	.st9{opacity:0.3;}
</style>
<title>Gen6UI</title>
<text transform="matrix(1 0 0 1 1815.65 635.14)" class="st0 st1 st2">&lt;</text>
<text transform="matrix(1 0 0 1 1702.05 103.48)" class="st0 st3 st4">WE</text>
<text transform="matrix(1 0 0 1 1742.76 103.48)" class="st0 st3 st4">D</text>
<text transform="matrix(1 0 0 1 1760.74 103.48)" class="st0 st3 st4">, SEP 28</text>
<text transform="matrix(1 0 0 1 1624.9301 201.58)" class="st0 st3 st2">12:58</text>
<g class="st5">
	<g>
		<g>
			<path class="st0" d="M171.5,28.5c0-8.3,6.7-15,15-15s15,6.7,15,15s-6.7,15-15,15S171.5,36.8,171.5,28.5"/>
		</g>
	</g>
</g>
<path class="st0" d="M171.5,27c0-8.3,6.7-15,15-15s15,6.7,15,15s-6.7,15-15,15S171.5,35.3,171.5,27"/>
<text transform="matrix(1.02 0 0 1 180.54 33.9602)" class="st6 st7">2</text>
<text transform="matrix(1 0 0 1 31.5 36.6)" class="st0 st8 st4">Je</text>
<text transform="matrix(1 0 0 1 58.55 36.6)" class="st0 st8 st4">ff</text>
<text transform="matrix(1 0 0 1 79.1 36.6)" class="st0 st8 st4">&apos;</text>
<text transform="matrix(1 0 0 1 84.06 36.6)" class="st0 st8 st4">s Fire</text>
<text transform="matrix(1 0 0 1 1771.36 36.6)" class="st0 st8 st4">75%</text>
<g class="st9">
	<g>
		<g>
			<path class="st0" d="M1728.5,12.5c-8.7,0-17,3.6-23,9.8l2.9,2.8c10.6-11.1,28.2-11.5,39.4-0.9c0.3,0.3,0.6,0.6,0.9,0.9l2.9-2.8
				C1745.5,16,1737.2,12.5,1728.5,12.5"/>
		</g>
	</g>
</g>
<g class="st9">
	<g>
		<g>
			<path class="st0" d="M1728.5,19.5c-6.8,0-13.3,2.8-18,7.7l2.9,2.8c7.9-8.3,21.1-8.6,29.5-0.7c0.2,0.2,0.5,0.5,0.7,0.7l2.9-2.8
				C1741.7,22.2,1735.2,19.5,1728.5,19.5"/>
		</g>
	</g>
</g>
<path class="st0" d="M1728.5,26.5c-4.9,0-9.6,2-12.9,5.5l2.9,2.8c5.3-5.6,14.1-5.8,19.7-0.5c0.2,0.2,0.3,0.3,0.5,0.5l2.9-2.8
	C1738.1,28.5,1733.4,26.5,1728.5,26.5"/>
<path class="st0" d="M1728.5,33.5c-3,0-5.8,1.2-7.9,3.4l2.9,2.8c2.7-2.8,7.1-2.9,9.9-0.2c0.1,0.1,0.1,0.1,0.2,0.2l2.9-2.8
	C1734.3,34.7,1731.5,33.5,1728.5,33.5"/>
<path class="st0" d="M1680.1,28.7c0-6.1-4.8-11.2-10.9-11.5l0.1-1.7h1l1-1v-2l-1-1h-4l-1,1v2l1,1h1l0.1,1.7
	c-6.3,0.7-10.9,6.4-10.2,12.7c0.3,2.5,1.3,4.9,3.1,6.7l-2.8,2.8l1.8,1.8l2.9-2.9c3.8,2.6,8.8,2.7,12.7,0.2l2.7,2.7l1.8-1.8l-2.5-2.5
	C1678.9,34.7,1680.1,31.8,1680.1,28.7 M1659.5,28.7c0-5,4.1-9.1,9.1-9.1c5,0,9.1,4.1,9.1,9.1c0,5-4.1,9.1-9.1,9.1
	C1663.5,37.7,1659.5,33.7,1659.5,28.7"/>
<polygon class="st0" points="1669.5,23.4 1667,23.4 1667,29.6 1672.2,31.2 1672.9,28.8 1669.5,27.7 "/>
<path class="st0" d="M1660.9,13L1660.9,13l-0.2-0.2l0,0c-1-0.9-3.1-0.6-4.9,0.7s-2.7,3.3-2.1,4.5l0,0l1.8,2.4l7.1-5.3L1660.9,13z"/>
<path class="st0" d="M1680.7,13.5c-1.8-1.4-3.9-1.6-4.9-0.7l0,0l-0.2,0.2l0,0l-1.6,2.1l7.1,5.3l1.8-2.4l0,0
	C1683.5,16.9,1682.6,14.9,1680.7,13.5"/>
<path class="st0" d="M1888.5,23.5c-0.5,0-1-0.7-1-1v-6c0-1.1-0.9-2-2-2h-42c-1.1,0-2,0.9-2,2v20c0,1.1,0.9,2,2,2h42c1.1,0,2-0.9,2-2
	v-6c0-0.3,0.5-1,1-1c0.6,0,1-0.4,1-1v-4C1889.5,23.9,1889.1,23.5,1888.5,23.5 M1884.5,35.5h-40v-18h40V35.5z"/>
<path class="st0" d="M1875.5,33.5h-28c-0.6,0-1-0.4-1-1v-12c0-0.6,0.4-1,1-1h28V33.5z"/>
<path class="st0" d="M259,131.5c-8.8,0-15.9,7.1-15.9,15.8c0,8.8,7.1,15.9,15.8,15.9c8.8,0,15.9-7.1,15.9-15.8c0,0,0,0,0,0
	C274.8,138.6,267.7,131.5,259,131.5"/>
<path class="st0" d="M276.8,120.4c-1.2-0.1-2.2-0.8-2.7-1.9l-3.3-8.9c-0.5-1.1-1.5-1.8-2.7-1.9h-18.2c-1.2,0.1-2.2,0.8-2.7,1.9
	l-3.3,8.9c-0.5,1.1-1.5,1.8-2.7,1.9H223c-1.1,0-2,0.9-2,2v53c0,1.1,0.9,2,2,2h72c1.1,0,2-0.9,2-2v-53c0-1.1-0.9-2-2-2L276.8,120.4z
	 M230.5,131.5c-1.8,0-3.2-1.4-3.2-3.2c0-1.8,1.4-3.2,3.2-3.2c1.8,0,3.2,1.4,3.2,3.2l0,0C233.7,130.1,232.3,131.5,230.5,131.5
	 M259,169.5c-12.3,0-22.2-9.9-22.2-22.2c0-12.3,9.9-22.2,22.2-22.2c12.3,0,22.2,9.9,22.2,22.2c0,0,0,0,0,0
	C281.2,159.6,271.3,169.5,259,169.5"/>
</svg>
