<svg id="content" xmlns="http://www.w3.org/2000/svg" xmlns:xlink="http://www.w3.org/1999/xlink" viewBox="0 0 1200 1920"><defs><style>.cls-1{fill:none;}.cls-2{clip-path:url(#clip-path);}.cls-3{opacity:0.15;}.cls-4{clip-path:url(#clip-path-2);}.cls-5,.cls-6{fill:#fff;}.cls-6{font-size:20px;font-family:AmazonEmber-Bold, Amazon Ember;font-weight:700;}.cls-14,.cls-7{font-size:28px;}.cls-7{font-family:AmazonEmber-Regular, Amazon Ember;}.cls-8{letter-spacing:0.03em;}.cls-9{letter-spacing:-0.03em;}.cls-10{opacity:0.3;}.cls-11{clip-path:url(#clip-path-3);}.cls-12{clip-path:url(#clip-path-4);}.cls-13,.cls-16{font-size:96px;}.cls-13{fill:#222;font-family:EuphemiaUCAS, Euphemia UCAS;}.cls-14,.cls-16{font-family:AmazonEmber-Light, Amazon Ember;}.cls-15{letter-spacing:-0.03em;}.cls-17{letter-spacing:-0.08em;}</style><clipPath id="clip-path"><rect class="cls-1" x="31" y="10.47" width="1138" height="32.99"/></clipPath><clipPath id="clip-path-2"><rect class="cls-1" x="171" y="12.47" width="30" height="30"/></clipPath><clipPath id="clip-path-3"><rect class="cls-1" x="985" y="11.47" width="46" height="12.6"/></clipPath><clipPath id="clip-path-4"><rect class="cls-1" x="990.03" y="18.47" width="35.94" height="10.46"/></clipPath></defs><title>Gen6UI</title><g class="cls-2"><g class="cls-3"><g class="cls-4"><path class="cls-5" d="M171,27.47a15,15,0,1,1,15,15,15,15,0,0,1-15-15"/></g></g><path d="M171,26a15,15,0,1,1,15,15,15,15,0,0,1-15-15"/><text class="cls-6" transform="translate(180.04 32.95) scale(1.02 1)">2</text><text class="cls-7" transform="translate(31 35.59)">Je<tspan class="cls-8" x="27.05" y="0">ff</tspan><tspan class="cls-9" x="47.6" y="0">&apos;</tspan><tspan x="52.56" y="0">s Fire</tspan></text><text class="cls-7" transform="translate(1050.87 35.59)">75%</text><g class="cls-10"><g class="cls-11"><path d="M1008,11.47a31.81,31.81,0,0,0-23,9.83l2.88,2.77a27.84,27.84,0,0,1,40.25,0L1031,21.3a31.8,31.8,0,0,0-23-9.83"/></g></g><g class="cls-10"><g class="cls-12"><path d="M1008,18.47a24.85,24.85,0,0,0-18,7.68l2.88,2.78a20.85,20.85,0,0,1,30.17,0l2.88-2.78a24.85,24.85,0,0,0-18-7.68"/></g></g><path d="M1008,25.47A17.88,17.88,0,0,0,995.07,31l2.87,2.77a13.9,13.9,0,0,1,20.12,0l2.87-2.77A17.88,17.88,0,0,0,1008,25.47"/><path d="M1008,32.47a10.93,10.93,0,0,0-7.9,3.38l2.87,2.77a7,7,0,0,1,10.06,0l2.87-2.77a10.93,10.93,0,0,0-7.9-3.38"/><path d="M959.63,27.66a11.57,11.57,0,0,0-10.94-11.53l.06-1.66h1l1-1v-2l-1-1h-4l-1,1v2l1,1h1l.06,1.7a11.54,11.54,0,0,0-7.17,19.39l-2.78,2.78,1.77,1.77,2.9-2.9a11.5,11.5,0,0,0,12.66.24l2.66,2.66,1.77-1.77-2.46-2.45a11.52,11.52,0,0,0,3.45-8.22m-20.62,0a9.06,9.06,0,1,1,9.06,9.06A9.07,9.07,0,0,1,939,27.66"/><polygon points="949 22.34 946.5 22.34 946.5 28.59 951.72 30.15 952.43 27.75 949 26.73 949 22.34"/><path d="M940.45,12h0l-.18-.24,0,0c-1-.91-3.1-.63-4.93.74s-2.71,3.33-2.11,4.54l0,0,1.77,2.37L942,14.1Z"/><path d="M960.21,12.5c-1.83-1.37-3.93-1.65-4.93-.74l0,0-.18.24h0l-1.59,2.13,7.1,5.32,1.78-2.37,0,0c.6-1.21-.28-3.17-2.11-4.54"/><path d="M1168,22.46c-.53,0-1-.72-1-1v-6a2,2,0,0,0-2-2h-42a2,2,0,0,0-2,2v20a2,2,0,0,0,2,2h42a2,2,0,0,0,2-2v-6c0-.28.5-1,1-1a1,1,0,0,0,1-1v-4a1,1,0,0,0-1-1m-4,12h-40v-18h40Z"/><path d="M1155,32.47h-28a1,1,0,0,1-1-1v-12a1,1,0,0,1,1-1h28Z"/></g><text class="cls-13" transform="translate(1094.5 994.97)">&lt;</text><text class="cls-14" transform="translate(982.04 101.67)">WE<tspan class="cls-15" x="40.71" y="0">D</tspan><tspan x="58.69" y="0">, SEP 28</tspan></text><text class="cls-16" transform="translate(914.93 200.78)"><tspan class="cls-17">1</tspan><tspan x="48.58" y="0">2:58</tspan></text><path d="M259,130.2a15.87,15.87,0,1,0,15.83,15.87A15.87,15.87,0,0,0,259,130.2"/><path d="M276.83,119.16a3.11,3.11,0,0,1-2.7-1.87l-3.34-8.92a3.11,3.11,0,0,0-2.7-1.87H249.91a3.11,3.11,0,0,0-2.7,1.87l-3.34,8.92a3.11,3.11,0,0,1-2.7,1.87H223a2,2,0,0,0-2,2v53a2,2,0,0,0,2,2h72a2,2,0,0,0,2-2v-53a2,2,0,0,0-2-2ZM230.5,130.24a3.17,3.17,0,1,1,3.17-3.17,3.17,3.17,0,0,1-3.17,3.17m28.5,38a22.2,22.2,0,1,1,22.17-22.2A22.21,22.21,0,0,1,259,168.27"/></svg>