<svg id="content" xmlns="http://www.w3.org/2000/svg" xmlns:xlink="http://www.w3.org/1999/xlink" viewBox="0 0 1920 1200"><defs><style>.cls-1{fill:none;}.cls-2,.cls-5{font-size:96px;}.cls-2{fill:#222;font-family:EuphemiaUCAS, Euphemia UCAS;}.cls-10,.cls-3{font-size:28px;}.cls-3,.cls-5{font-family:AmazonEmber-Light, Amazon Ember;}.cls-4{letter-spacing:-0.03em;}.cls-6{opacity:0.15;}.cls-7{clip-path:url(#clip-path);}.cls-8,.cls-9{fill:#fff;}.cls-9{font-size:20px;font-family:AmazonEmber-Bold, Amazon Ember;font-weight:700;}.cls-10{font-family:AmazonEmber-Regular, Amazon Ember;}.cls-11{letter-spacing:0.03em;}.cls-12{letter-spacing:-0.03em;}.cls-13{opacity:0.3;}.cls-14{clip-path:url(#clip-path-2);}.cls-15{clip-path:url(#clip-path-3);}</style><clipPath id="clip-path"><rect class="cls-1" x="171.5" y="13.48" width="30" height="30"/></clipPath><clipPath id="clip-path-2"><rect class="cls-1" x="1705.5" y="12.48" width="46" height="12.6"/></clipPath><clipPath id="clip-path-3"><rect class="cls-1" x="1710.53" y="19.48" width="35.94" height="10.46"/></clipPath></defs><title>Gen6UI</title><text class="cls-2" transform="translate(1815.65 635.14)">&lt;</text><text class="cls-3" transform="translate(1702.05 103.48)">WE<tspan class="cls-4" x="40.71" y="0">D</tspan><tspan x="58.69" y="0">, SEP 28</tspan></text><text class="cls-5" transform="translate(1624.93 201.58)">12:58</text><g class="cls-6"><g class="cls-7"><path class="cls-8" d="M171.5,28.47a15,15,0,1,1,15,15,15,15,0,0,1-15-15"/></g></g><path d="M171.5,27a15,15,0,1,1,15,15,15,15,0,0,1-15-15"/><text class="cls-9" transform="translate(180.54 33.96) scale(1.02 1)">2</text><text class="cls-10" transform="translate(31.5 36.6)">Je<tspan class="cls-11" x="27.05" y="0">ff</tspan><tspan class="cls-12" x="47.6" y="0">&apos;</tspan><tspan x="52.56" y="0">s Fire</tspan></text><text class="cls-10" transform="translate(1771.36 36.6)">75%</text><g class="cls-13"><g class="cls-14"><path d="M1728.5,12.48a31.81,31.81,0,0,0-23,9.83l2.88,2.77a27.84,27.84,0,0,1,40.25,0l2.87-2.77a31.81,31.81,0,0,0-23-9.83"/></g></g><g class="cls-13"><g class="cls-15"><path d="M1728.5,19.48a24.85,24.85,0,0,0-18,7.68l2.88,2.78a20.85,20.85,0,0,1,30.17,0l2.88-2.78a24.85,24.85,0,0,0-18-7.68"/></g></g><path d="M1728.5,26.48A17.88,17.88,0,0,0,1715.57,32l2.87,2.77a13.9,13.9,0,0,1,20.12,0l2.87-2.77a17.89,17.89,0,0,0-12.93-5.54"/><path d="M1728.5,33.48a10.93,10.93,0,0,0-7.9,3.38l2.87,2.77a7,7,0,0,1,10.06,0l2.87-2.77a10.93,10.93,0,0,0-7.9-3.38"/><path d="M1680.13,28.66a11.57,11.57,0,0,0-10.94-11.53l.06-1.66h1l1-1v-2l-1-1h-4l-1,1v2l1,1h1l.06,1.7a11.54,11.54,0,0,0-7.17,19.39l-2.78,2.78,1.77,1.77,2.9-2.9a11.5,11.5,0,0,0,12.66.24l2.66,2.66,1.77-1.77-2.46-2.45a11.52,11.52,0,0,0,3.45-8.22m-20.62,0a9.06,9.06,0,1,1,9.06,9.06,9.07,9.07,0,0,1-9.06-9.06"/><polygon points="1669.5 23.35 1667 23.35 1667 29.59 1672.22 31.16 1672.93 28.76 1669.5 27.73 1669.5 23.35"/><path d="M1660.95,13h0l-.18-.24,0,0c-1-.91-3.1-.63-4.93.74s-2.71,3.33-2.11,4.54l0,0,1.77,2.37,7.1-5.33Z"/><path d="M1680.71,13.51c-1.83-1.37-3.93-1.65-4.93-.74l0,0-.18.24h0L1674,15.11l7.1,5.32,1.78-2.37,0,0c.6-1.21-.28-3.17-2.11-4.54"/><path d="M1888.53,23.47c-.53,0-1-.72-1-1v-6a2,2,0,0,0-2-2h-42a2,2,0,0,0-2,2v20a2,2,0,0,0,2,2h42a2,2,0,0,0,2-2v-6c0-.28.5-1,1-1a1,1,0,0,0,1-1v-4a1,1,0,0,0-1-1m-4,12h-40v-18h40Z"/><path d="M1875.5,33.48h-28a1,1,0,0,1-1-1v-12a1,1,0,0,1,1-1h28Z"/><path d="M259,131.48a15.87,15.87,0,1,0,15.83,15.87A15.87,15.87,0,0,0,259,131.48"/><path d="M276.83,120.43a3.11,3.11,0,0,1-2.7-1.87l-3.34-8.92a3.11,3.11,0,0,0-2.7-1.87H249.91a3.11,3.11,0,0,0-2.7,1.87l-3.34,8.92a3.11,3.11,0,0,1-2.7,1.87H223a2,2,0,0,0-2,2v53a2,2,0,0,0,2,2h72a2,2,0,0,0,2-2v-53a2,2,0,0,0-2-2ZM230.5,131.51a3.17,3.17,0,1,1,3.17-3.17,3.17,3.17,0,0,1-3.17,3.17m28.5,38a22.2,22.2,0,1,1,22.17-22.2A22.21,22.21,0,0,1,259,169.54"/></svg>