<?xml version="1.0" encoding="utf-8"?>
<!-- Generator: Adobe Illustrator 21.0.2, SVG Export Plug-In . SVG Version: 6.00 Build 0)  -->
<svg version="1.1" id="Layer_1" xmlns="http://www.w3.org/2000/svg" xmlns:xlink="http://www.w3.org/1999/xlink" x="0px" y="0px"
	 viewBox="0 0 100 100" style="enable-background:new 0 0 100 100;" xml:space="preserve">
<style type="text/css">
	.st0{display:none;fill:#19A4DE;}
	.st1{fill:#19A4DE;}
	.st2{fill:#FFFFFF;}
</style>
<title>profile</title>
<circle class="st0" cx="50" cy="50" r="46"/>
<rect x="4" y="4" class="st1" width="91.9" height="91.9"/>
<path class="st2" d="M64.4,25.1c-2-6-7.7-9.7-14.5-9.8s-12.4,3.8-14.4,9.8c-1.2,3.4-1.6,6.9-1.3,10.5C35.2,48.8,41.4,58,50,58
	c8.6,0,14.8-9.2,15.7-22.4C66.1,32.1,65.6,28.5,64.4,25.1z M56.7,47.7c-1.2,2.6-3.3,5.2-6.8,5.2s-5.6-2.6-6.8-5.2
	c-0.1-0.2,0-0.5,0.2-0.6c0.1,0,0.2-0.1,0.3,0c2,0.6,4.1,1,6.3,1c2.1,0,4.2-0.4,6.3-1c0.2-0.1,0.5,0,0.6,0.2
	C56.7,47.4,56.7,47.6,56.7,47.7z"/>
<path class="st2" d="M50,89.6c12,0,23.3-5.4,30.8-14.7c1.2-1.5,1.3-3.6,0.1-5.2c-1-1.5-2.2-2.8-3.5-4l0,0c-0.5-0.5-1.1-1-1.7-1.4
	l-0.3-0.1l-0.3-0.1c-3.8-1.6-9.2-2.6-14-3.1c-0.7-0.1-1.5,0.1-2.1,0.5H59c-2.6,1.9-5.8,2.9-9,3c-3.2-0.1-6.4-1.1-9-3h-0.1
	c-0.6-0.4-1.4-0.6-2.1-0.5c-4.7,0.5-10.2,1.5-14,3.1l-0.3,0.1l-0.3,0.1c-0.6,0.4-1.2,0.8-1.7,1.4l0,0c-1.3,1.2-2.5,2.5-3.5,4
	c-1.1,1.6-1.1,3.7,0.1,5.2C26.6,84.3,38,89.7,50,89.6z"/>
</svg>
