<svg id="Layer_1" data-name="Layer 1" xmlns="http://www.w3.org/2000/svg" viewBox="0 0 391.19 117.87"><defs><style>.cls-1{fill:#f7981d;}.cls-2{fill:#333e43;}</style></defs><title>Amazon</title><path class="cls-1" d="M244.19,90.25a204.3,204.3,0,0,1-78.37,16C128.48,106.29,92.33,96,63.09,79c-2.56-1.48-4.45,1.15-2.33,3.07a152.13,152.13,0,0,0,102.69,39.15c28.37,0,61.33-8.92,84-25.68C251.25,92.78,248,88.62,244.19,90.25Z" transform="translate(-4.81 -3.38)"/><path class="cls-1" d="M229.85,80.79c-2,1.41-1.65,3.35.55,3.09,7.32-.88,23.65-2.84,26.55.89s-3.23,19.06-6,25.92c-.84,2.06.93,2.9,2.82,1.32,12.19-10.2,15.34-31.58,12.84-34.66S242.87,71.66,229.85,80.79Z" transform="translate(-4.81 -3.38)"/><path class="cls-2" d="M274.35,54.85c-6.95-3.9-15.05-5-22.69-4.87l20.6-29.43c1.93-2.64,3-4.31,3-5.59V7.35A2.22,2.22,0,0,0,273,5.1l-39.79,0a2.18,2.18,0,0,0-2.25,2.24v8.89a2.22,2.22,0,0,0,2.3,2.23H254L230.13,52.73a10.67,10.67,0,0,0-1.48,6.11v9c0,1.31,1.45,2.8,2.82,2.07a45.81,45.81,0,0,1,42.05-.09c1.51.78,2.94-.72,2.94-2V58.33A4.06,4.06,0,0,0,274.35,54.85Z" transform="translate(-4.81 -3.38)"/><path class="cls-2" d="M73.65,71.7h12.1a2.28,2.28,0,0,0,2.34-2.23V36.53c0-7.19-.34-17.14,8.37-17.14s7.46,10.21,7.46,17.14V69.47a2.27,2.27,0,0,0,2.18,2.23H118.2a2.27,2.27,0,0,0,2.34-2.23V36.53c0-3.53-.12-8.76,1.12-11.91a8.06,8.06,0,0,1,7.25-5.09c3.49,0,6.2,1.18,7.11,5.35.57,2.48.34,9,.34,11.65V69.47a2.27,2.27,0,0,0,2.17,2.23h12.09A2.28,2.28,0,0,0,153,69.47V30.24c0-6.66.8-14.26-3.05-19.48a17.87,17.87,0,0,0-30.74,4.71C115.78,7.63,111,4,103.47,4s-13,3.68-15.94,11.52H87.3V7.36a2.28,2.28,0,0,0-2.2-2.08H73.82a2.29,2.29,0,0,0-2.33,2.24V69.66A2.25,2.25,0,0,0,73.65,71.7Z" transform="translate(-4.81 -3.38)"/><path class="cls-2" d="M309.53,3.95c-17.52,0-27.24,15-27.24,34.41S291.89,73,309.54,73c16.94,0,27.68-15,27.68-34C337.22,19.39,327.49,3.95,309.53,3.95Zm0,56.23c-9.51,0-9.39-16.2-9.39-23.79s.56-19.74,9.48-19.74c3.85,0,6.55,1.69,7.93,6,1.57,5,1.8,11.22,1.8,16.48C319.36,47.12,318.91,60.17,309.54,60.17Z" transform="translate(-4.81 -3.38)"/><path class="cls-2" d="M392.82,11.28c-3.39-5.37-8.69-7.34-14.12-7.34-8.37,0-13.12,4.06-16.51,12.57H362V7a2.27,2.27,0,0,0-2.15-1.74H348.59a2.29,2.29,0,0,0-2.32,2l0,62.17a2.26,2.26,0,0,0,2.18,2.23h12a2.31,2.31,0,0,0,2.37-2.23V36c0-4.17.23-8,1.94-11.77a7.9,7.9,0,0,1,7-5c8.39,0,7.57,9.92,7.57,16.73V69.73a2.29,2.29,0,0,0,2.15,2h12.16a2.3,2.3,0,0,0,2.32-2V30.62C396,24.61,396,16.25,392.82,11.28Z" transform="translate(-4.81 -3.38)"/><path class="cls-2" d="M199.2,29.7c-7,.79-16.2,1.32-22.77,4.18-7.59,3.28-12.9,10-12.9,19.81,0,12.58,7.92,18.86,18.1,18.86,8.62,0,13.33-2,20-8.8,2.19,3.18,2.91,4.72,6.93,8.07a2.51,2.51,0,0,0,2.86-.28l0,0c2.42-2.15,6.83-6,9.3-8,1-.82.8-2.12,0-3.22-2.22-3.07-4.58-5.56-4.58-11.23V30.22c0-8,.57-15.33-5.31-20.83-4.65-4.46-12.35-6-18.25-6-11.51,0-24.36,4.29-27.08,18.53a2.13,2.13,0,0,0,1.82,2.52L179.1,25.7a2.55,2.55,0,0,0,2.1-2.22c1-4.89,5.11-7.28,9.73-7.28,2.48,0,5.32.94,6.78,3.17,1.71,2.48,1.48,5.9,1.48,8.77Zm-2.26,25.16c-1.94,3.41-5,5.52-8.38,5.52-4.64,0-7.36-3.55-7.36-8.79,0-10.31,9.24-12.19,18-12.19V42C199.2,46.74,199.31,50.67,196.93,54.86Z" transform="translate(-4.81 -3.38)"/><path class="cls-2" d="M62,60.32c-2.21-3.07-4.57-5.56-4.57-11.23V30.23c0-8,.57-15.33-5.32-20.84-4.64-4.44-12.35-6-18.24-6C22.39,3.38,9.53,7.67,6.85,21.91a2.11,2.11,0,0,0,1.79,2.52L20.38,25.7a2.54,2.54,0,0,0,2.1-2.22c1-4.89,5.13-7.27,9.73-7.27,2.5,0,5.33.93,6.8,3.15,1.7,2.49,1.47,5.91,1.47,8.77v1.58c-7,.79-16.19,1.32-22.75,4.18-7.6,3.29-12.92,10-12.91,19.81,0,12.58,7.92,18.87,18.12,18.87,8.6,0,13.3-2,19.95-8.8,2.2,3.18,2.93,4.72,6.94,8.07a2.53,2.53,0,0,0,2.87-.27l0,0c2.43-2.15,6.81-6,9.29-8C63,62.72,62.81,61.42,62,60.32ZM40.48,42c0,4.7.11,8.63-2.25,12.83-1.93,3.41-5,5.52-8.4,5.52-4.65,0-7.36-3.54-7.36-8.79,0-10.31,9.26-12.19,18-12.19Z" transform="translate(-4.81 -3.38)"/></svg>