<svg id="Layer_1" data-name="Layer 1" xmlns="http://www.w3.org/2000/svg" viewBox="0 0 168.86 74.84"><defs><style>.cls-1{fill:#454351;}</style></defs><title>Fugu_logo_1-0</title><path class="cls-1" d="M17,30.49H4.61a.25.25,0,0,0-.25.25V51.65a.25.25,0,0,0,.25.25H7.69a.25.25,0,0,0,.25-.25v-9h7.44a.25.25,0,0,0,.25-.25V40a.25.25,0,0,0-.25-.25H7.94V33.47H17a.25.25,0,0,0,.25-.25V30.74A.25.25,0,0,0,17,30.49Z"/><path class="cls-1" d="M37.08,30.24H33.4a.5.5,0,0,0-.5.5V44.23a4.52,4.52,0,0,1-1.07,3.26,4.22,4.22,0,0,1-3.17,1.1,4.22,4.22,0,0,1-3.17-1.1,4.52,4.52,0,0,1-1.07-3.26V30.74a.5.5,0,0,0-.5-.5H20.24a.5.5,0,0,0-.5.5V44a8.61,8.61,0,0,0,2.32,6.41,9.11,9.11,0,0,0,6.6,2.27,9.07,9.07,0,0,0,6.59-2.27A8.58,8.58,0,0,0,37.58,44V30.74A.51.51,0,0,0,37.08,30.24Z"/><path class="cls-1" d="M58.77,39.17H50.69a.74.74,0,0,0-.75.75v3.26a.75.75,0,0,0,.75.75h3.17V47.6c-.56,0-1.06.08-1.48.08-2,0-3.51-.48-4.39-1.41s-1.35-2.53-1.35-4.69V41c0-2.18.46-3.78,1.36-4.75a5.83,5.83,0,0,1,4.38-1.44,18.46,18.46,0,0,1,5.41,1,.73.73,0,0,0,.67-.11.75.75,0,0,0,.31-.6V31.65a.76.76,0,0,0-.43-.68,14.76,14.76,0,0,0-6.45-1.31c-3.65,0-6.5,1-8.46,3.05s-2.94,4.95-2.94,8.72c0,3.56,1,6.36,2.85,8.33s4.61,3,8.07,3a19.8,19.8,0,0,0,4.14-.44,14.08,14.08,0,0,0,3.57-1.25.75.75,0,0,0,.4-.66V39.92A.74.74,0,0,0,58.77,39.17Z"/><path class="cls-1" d="M81.25,29.74H75.43a1,1,0,0,0-1,1V44.17c0,1.71-.66,2.38-2.35,2.38A2.4,2.4,0,0,1,70.32,46a2.54,2.54,0,0,1-.56-1.82V30.74a1,1,0,0,0-1-1H62.94a1,1,0,0,0-1,1V44a8.67,8.67,0,0,0,2.73,6.8,10.81,10.81,0,0,0,7.41,2.38,10.88,10.88,0,0,0,7.42-2.38A8.58,8.58,0,0,0,82.25,44V30.74A1,1,0,0,0,81.25,29.74Z"/><path class="cls-1" d="M113.05,16.26a7.38,7.38,0,0,1,1.15.38.3.3,0,0,0,.29,0,23.26,23.26,0,0,1,11.59-3.93A1.29,1.29,0,0,0,127.23,11c-.43-1.21-.91-2.41-1.33-3.47a26.06,26.06,0,0,1-1-2.6v0a4.91,4.91,0,0,1,2.53-.42,4.79,4.79,0,0,1,2.53.42v0a27.57,27.57,0,0,1-1,2.6c-.42,1.06-.9,2.26-1.33,3.47a1.29,1.29,0,0,0,.14,1.16,1.3,1.3,0,0,0,1,.57,23.28,23.28,0,0,1,11.73,4,.26.26,0,0,0,.17.05.23.23,0,0,0,.11,0,12.21,12.21,0,0,1,1.18-.34.32.32,0,0,0,.23-.23.3.3,0,0,0-.11-.31,24.79,24.79,0,0,0-12.82-4.74c.38-1,.8-2.1,1.18-3,.49-1.23.88-2.2,1-2.78a1.51,1.51,0,0,0-.23-1.37c-.56-.72-1.85-1.08-3.84-1.08s-3.29.36-3.84,1.08a1.51,1.51,0,0,0-.23,1.37c.15.58.54,1.55,1,2.78.38.94.8,2,1.18,3A24.69,24.69,0,0,0,113,15.73a.28.28,0,0,0-.12.3A.28.28,0,0,0,113.05,16.26Z"/><path class="cls-1" d="M161.43,38.18c-2.86-.88-5.93-1.66-9.12-2.33a25.3,25.3,0,0,0-.2-3.13,6,6,0,0,0,3.28,1c3.43,0,3.43-2.87,3.43-5.91s0-5.91-3.43-5.91c-1.94,0-4,2.1-5.07,3.35a.31.31,0,0,0-.06.13c0,.22-.11.44-.18.65a5.83,5.83,0,0,1-.22.63.29.29,0,0,0,0,.24l.07.15a.91.91,0,0,1,.07.14.29.29,0,0,0,.37.18,1.44,1.44,0,0,0,.71-.51c1.59-2,3.28-3.36,4.31-3.36,1.56,0,1.83.64,1.83,4.31s-.27,4.31-1.83,4.31a4.33,4.33,0,0,1-2.83-1.05,1.32,1.32,0,0,0-1.48-.16,1.3,1.3,0,0,0-.65,1.34,23.39,23.39,0,0,1,.28,3.64v.21a1.31,1.31,0,0,0,1,1.28c1.83.38,3.64.8,5.38,1.25-1.54.13-3.08.23-4.59.29h-.86a1.31,1.31,0,0,0-1.25,1.13c-.07.54-.15,1-.24,1.52A1.29,1.29,0,0,0,151,43c1.73.71,3.42,1.45,5,2.22-1.56-.16-3.11-.36-4.62-.61l-.34-.06-.42-.07a1.3,1.3,0,0,0-1.45.85c-.16.47-.34.95-.55,1.45a1.3,1.3,0,0,0,.46,1.58c1.55,1.06,3,2.13,4.41,3.25-1.68-.57-3.37-1.21-5-1.92a1.32,1.32,0,0,0-1.6.5c-.25.4-.55.83-.9,1.3a1.31,1.31,0,0,0,.06,1.64l.25.27.16.18c.93,1.07,1.85,2.19,2.71,3.32.13.16.25.32.37.49-1.38-.89-2.72-1.83-4-2.8l-.21-.16-.21-.18a1.34,1.34,0,0,0-1.68.08c-.35.32-.75.66-1.22,1a1.29,1.29,0,0,0-.37,1.6l.12.23a2.4,2.4,0,0,1,.11.23q1,2.18,1.95,4.47l-.39-.45c-.93-1.06-1.85-2.18-2.73-3.32l-.26-.36a1.34,1.34,0,0,0-1.63-.37c-.49.25-1,.49-1.51.7a1.31,1.31,0,0,0-.77,1.46c.35,1.72.62,3.4.84,5.09-.76-1.5-1.49-3.06-2.18-4.65a1.31,1.31,0,0,0-1.49-.74c-.54.12-1.11.24-1.7.33a1.31,1.31,0,0,0-1.09,1.25c0,1.68-.12,3.34-.24,5-.42-1.57-.8-3.19-1.15-4.82a1.32,1.32,0,0,0-1.31-1h-1.8a1.3,1.3,0,0,0-1.27,1c-.35,1.65-.73,3.28-1.15,4.85-.12-1.63-.2-3.3-.24-5a1.31,1.31,0,0,0-1.08-1.26c-.59-.1-1.16-.21-1.7-.34a1.3,1.3,0,0,0-1.49.74c-.7,1.59-1.45,3.15-2.22,4.65.21-1.59.48-3.17.78-4.7l.09-.41a1.29,1.29,0,0,0-.76-1.46c-.49-.21-1-.44-1.51-.72a1.33,1.33,0,0,0-1.63.37c-1.1,1.43-2.23,2.79-3.36,4.07.6-1.5,1.25-3,1.94-4.41l.24-.47a1.3,1.3,0,0,0-.37-1.6c-.45-.35-.86-.7-1.25-1a1.31,1.31,0,0,0-1.67-.07c-1.42,1.1-2.88,2.14-4.35,3.11,1-1.27,2-2.53,3-3.77l.4-.44a1.3,1.3,0,0,0,.06-1.64c-.36-.48-.66-.9-.92-1.3a1.31,1.31,0,0,0-1.6-.49c-1.66.72-3.34,1.37-5,2,1.39-1.13,2.83-2.21,4.36-3.28a1.31,1.31,0,0,0,.45-1.59c-.22-.51-.41-1-.57-1.44a1.29,1.29,0,0,0-1.47-.84l-.34.07-.39.07c-1.52.26-3.07.48-4.64.66,1.6-.79,3.29-1.55,5-2.27a1.31,1.31,0,0,0,.78-1.46c-.1-.47-.18-1-.26-1.51a1.29,1.29,0,0,0-1.26-1.12h-.85c-1.52,0-3.07-.14-4.62-.26,1.75-.47,3.57-.9,5.4-1.28a1.32,1.32,0,0,0,1-1.29v-.19a24,24,0,0,1,.28-3.6,1.3,1.3,0,0,0-.64-1.34,1.36,1.36,0,0,0-1.48.14,4.31,4.31,0,0,1-2.78,1c-1.57,0-1.84-.64-1.84-4.31s.27-4.31,1.84-4.31a4.27,4.27,0,0,1,4.12,3.05c.24.77,1,.91,1,0a3.2,3.2,0,0,0-.13-.92,3.63,3.63,0,0,0-1.8-2.75,6.16,6.16,0,0,0-3.22-1c-3.44,0-3.44,2.87-3.44,5.91s0,5.91,3.44,5.91a5.82,5.82,0,0,0,3.22-1,24.8,24.8,0,0,0-.19,3.1c-3.18.67-6.24,1.47-9.12,2.37a.81.81,0,0,0-.55.88.8.8,0,0,0,.7.73c2.9.36,5.83.58,8.7.68h.61c.06.37.12.74.19,1.11a81.63,81.63,0,0,0-8.38,4,.79.79,0,0,0-.37.93.8.8,0,0,0,.83.62,87,87,0,0,0,8.65-1l.45-.09h.06c.13.35.27.7.43,1.07a78.16,78.16,0,0,0-7.22,5.75.79.79,0,0,0-.17,1,.83.83,0,0,0,1,.43A77.17,77.17,0,0,0,107,51.24l.68,1-.23.26a68.32,68.32,0,0,0-5.29,7,.77.77,0,0,0,.11,1,.81.81,0,0,0,1,.17,68,68,0,0,0,7.5-5c.3.28.62.54,1,.82l-.13.26a70.83,70.83,0,0,0-3.3,8.08.79.79,0,0,0,.33.94.83.83,0,0,0,1-.08,67.44,67.44,0,0,0,5.91-6.73c.39.2.78.38,1.16.55l0,.18a75.55,75.55,0,0,0-1.23,8.68.78.78,0,0,0,.54.82.8.8,0,0,0,1-.33,76.38,76.38,0,0,0,4-7.93q.65.15,1.32.27A88.72,88.72,0,0,0,123,70a.8.8,0,0,0,.77.7h.08a.8.8,0,0,0,.76-.56c.85-2.69,1.6-5.58,2.25-8.57h1.35c.65,3,1.4,5.87,2.23,8.57a.82.82,0,0,0,.82.56.8.8,0,0,0,.8-.7c.35-2.82.57-5.8.65-8.86.45-.08.89-.16,1.31-.26a82.09,82.09,0,0,0,4,8,.79.79,0,0,0,.69.4.72.72,0,0,0,.27,0,.8.8,0,0,0,.59-.83,79.08,79.08,0,0,0-1.22-8.87c.39-.17.78-.35,1.16-.54l.13.17c.89,1.16,1.83,2.3,2.78,3.4s2,2.16,3,3.18a.85.85,0,0,0,1,.1.81.81,0,0,0,.37-1,70.07,70.07,0,0,0-3.27-8.11c-.05-.08-.09-.17-.14-.26.35-.27.66-.53.94-.78l.25.19a71.18,71.18,0,0,0,7.29,4.81.83.83,0,0,0,1-.15.79.79,0,0,0,.12-1c-.85-1.28-1.68-2.45-2.54-3.57s-1.82-2.31-2.77-3.4l-.25-.28c.25-.35.48-.67.68-1a74,74,0,0,0,8.64,3,.83.83,0,0,0,.94-.43.82.82,0,0,0-.17-1,75.28,75.28,0,0,0-7.29-5.67q.23-.56.42-1.08l.09,0,.43.07c2.81.45,5.72.77,8.7.95a.84.84,0,0,0,.4-1.56,85.89,85.89,0,0,0-8.43-4q.1-.56.18-1.11h.62c2.87-.11,5.8-.35,8.69-.72a.78.78,0,0,0,.69-.71A.8.8,0,0,0,161.43,38.18Z"/><path class="cls-1" d="M135,29.92a10.72,10.72,0,0,1-15.18,0Z"/><path class="cls-1" d="M138.52,23.3a5.22,5.22,0,1,0,5.22-5.22A5.22,5.22,0,0,0,138.52,23.3Zm5.22-2.08a2.08,2.08,0,1,1-2.09,2.08A2.08,2.08,0,0,1,143.74,21.22Z"/><path class="cls-1" d="M111.16,28.52a5.22,5.22,0,1,0-5.22-5.22A5.22,5.22,0,0,0,111.16,28.52Zm0-7.3a2.08,2.08,0,1,1-2.08,2.08A2.09,2.09,0,0,1,111.16,21.22Z"/></svg>