<?xml version="1.0" encoding="utf-8"?>
<!-- Generator: Adobe Illustrator 21.0.2, SVG Export Plug-In . SVG Version: 6.00 Build 0)  -->
<svg version="1.1" id="OBJECTS" xmlns="http://www.w3.org/2000/svg" xmlns:xlink="http://www.w3.org/1999/xlink" x="0px" y="0px"
	 viewBox="0 0 853.3 533.3" style="enable-background:new 0 0 853.3 533.3;" xml:space="preserve">
<style type="text/css">
	.st0{enable-background:new    ;}
	.st1{fill:none;}
	.st2{opacity:0.15;}
	.st3{fill:#FFFFFF;}
	.st4{clip-path:url(#SVGID_2_);}
	.st5{clip-path:url(#SVGID_4_);}
	.st6{clip-path:url(#SVGID_6_);}
	.st7{clip-path:url(#SVGID_8_);}
	.st8{clip-path:url(#SVGID_10_);}
	.st9{clip-path:url(#SVGID_12_);}
	.st10{clip-path:url(#SVGID_14_);}
	.st11{clip-path:url(#SVGID_16_);}
	.st12{clip-path:url(#SVGID_18_);}
	.st13{clip-path:url(#SVGID_20_);}
	.st14{clip-path:url(#SVGID_22_);}
	.st15{clip-path:url(#SVGID_24_);}
	.st16{clip-path:url(#SVGID_26_);}
	.st17{display:none;fill:none;}
	.st18{clip-path:url(#SVGID_28_);}
	.st19{opacity:0.6;}
	.st20{font-family:'AmazonEmber-Regular';}
	.st21{font-size:13.8165px;}
	.st22{opacity:0.6;enable-background:new    ;}
	.st23{opacity:0.9;}
	.st24{font-family:'AmazonEmber-Thin';}
	.st25{font-size:51.8596px;}
	.st26{fill:none;stroke:#000000;stroke-width:0.5;stroke-miterlimit:10;}
	.st27{fill:#00A5E2;}
	.st28{opacity:0.3;enable-background:new    ;}
	.st29{opacity:0.9;enable-background:new    ;}
	.st30{font-size:13.1511px;}
</style>
<symbol  id="Left_status_bar_icons" viewBox="-151 -12 302 24">
	<text transform="matrix(1 0 0 -1 -135 -5)" class="st20" style="font-size:14px;">Jeff&apos;s 7th Fire</text>
	<g>
		<rect x="-10" y="-12" class="st1" width="14" height="24"/>
	</g>
	<g>
		<g>
		</g>
		<g>
			<rect x="12" y="-12" class="st1" width="14" height="24"/>
		</g>
	</g>
	
		<use xlink:href="#twitter_icon"  width="14" height="24" id="XMLID_2_" x="-7" y="-12" transform="matrix(1 0 0 1 41.1767 0)" style="overflow:visible;"/>
	
		<use xlink:href="#twitter_icon"  width="14" height="24" x="-7" y="-12" transform="matrix(1 0 0 1 63.1767 0)" style="overflow:visible;"/>
	<g>
		<g>
			<polygon points="78.2,5 78.2,3.2 85.2,-0.5 92.2,3.2 92.2,5 			"/>
			<polygon points="85.2,-1.8 78.2,1.8 78.2,-5 92.2,-5 92.2,1.8 			"/>
		</g>
		<g>
			<rect x="78.2" y="-12" class="st1" width="14" height="24"/>
		</g>
	</g>
	<g>
		<g>
			<g>
				<g class="st2">
					<circle class="st3" cx="-26" cy="-1.5" r="8"/>
				</g>
				<g>
					<circle cx="-26" cy="0" r="8"/>
				</g>
			</g>
			<text transform="matrix(1.0165 0 0 -1 -29.5747 -4)" class="st3" style="font-family:'AmazonEmber-Bold'; font-size:12px;">2</text>
		</g>
		<g>
			<rect x="-34" y="-12" class="st1" width="16" height="24"/>
		</g>
	</g>
	<g>
		<rect x="-151" y="-12" class="st1" width="302" height="24"/>
	</g>
	<g>
		<g>
			<g>
				<defs>
					<rect id="SVGID_1_" x="-10" y="-7" width="14" height="14"/>
				</defs>
				<clipPath id="SVGID_2_">
					<use xlink:href="#SVGID_1_"  style="overflow:visible;"/>
				</clipPath>
				<path class="st4" d="M3.4,5.5H1.1v1.2C1.1,6.9,1,7,0.8,7h-1.2c-0.2,0-0.3-0.1-0.3-0.3V5.5h-4.7v1.2C-5.3,6.9-5.5,7-5.6,7h-1.2
					C-7,7-7.1,6.9-7.1,6.7V5.5h-2.3C-9.7,5.5-10,5.3-10,5V-6.4C-10-6.7-9.7-7-9.4-7H3.4C3.7-7,4-6.7,4-6.4V5C4,5.3,3.7,5.5,3.4,5.5
					 M2.8-5.8H-8.8V4.4h1.7V2.6c0-0.2,0.1-0.3,0.3-0.3h1.2c0.2,0,0.3,0.1,0.3,0.3v1.7h4.7V2.6c0-0.2,0.1-0.3,0.3-0.3h1.2
					c0.2,0,0.3,0.1,0.3,0.3v1.7H3V-5.8H2.8z"/>
			</g>
			<g>
				<defs>
					<rect id="SVGID_3_" x="-10" y="-7" width="14" height="14"/>
				</defs>
				<clipPath id="SVGID_4_">
					<use xlink:href="#SVGID_3_"  style="overflow:visible;"/>
				</clipPath>
				<rect x="-4.7" class="st5" width="1.2" height="1.2"/>
			</g>
			<g>
				<defs>
					<rect id="SVGID_5_" x="-10" y="-7" width="14" height="14"/>
				</defs>
				<clipPath id="SVGID_6_">
					<use xlink:href="#SVGID_5_"  style="overflow:visible;"/>
				</clipPath>
				<rect x="-2.4" class="st6" width="1.2" height="1.2"/>
			</g>
			<g>
				<defs>
					<rect id="SVGID_7_" x="-10" y="-7" width="14" height="14"/>
				</defs>
				<clipPath id="SVGID_8_">
					<use xlink:href="#SVGID_7_"  style="overflow:visible;"/>
				</clipPath>
				<rect x="-0.1" class="st7" width="1.2" height="1.2"/>
			</g>
			<g>
				<defs>
					<rect id="SVGID_9_" x="-10" y="-7" width="14" height="14"/>
				</defs>
				<clipPath id="SVGID_10_">
					<use xlink:href="#SVGID_9_"  style="overflow:visible;"/>
				</clipPath>
				<rect x="-7.1" y="-2.3" class="st8" width="1.2" height="1.2"/>
			</g>
			<g>
				<defs>
					<rect id="SVGID_11_" x="-10" y="-7" width="14" height="14"/>
				</defs>
				<clipPath id="SVGID_12_">
					<use xlink:href="#SVGID_11_"  style="overflow:visible;"/>
				</clipPath>
				<rect x="-4.7" y="-2.3" class="st9" width="1.2" height="1.2"/>
			</g>
			<g>
				<defs>
					<rect id="SVGID_13_" x="-10" y="-7" width="14" height="14"/>
				</defs>
				<clipPath id="SVGID_14_">
					<use xlink:href="#SVGID_13_"  style="overflow:visible;"/>
				</clipPath>
				<rect x="-2.4" y="-2.3" class="st10" width="1.2" height="1.2"/>
			</g>
			<g>
				<defs>
					<rect id="SVGID_15_" x="-10" y="-7" width="14" height="14"/>
				</defs>
				<clipPath id="SVGID_16_">
					<use xlink:href="#SVGID_15_"  style="overflow:visible;"/>
				</clipPath>
				<rect x="-0.1" y="-2.3" class="st11" width="1.2" height="1.2"/>
			</g>
			<g>
				<defs>
					<rect id="SVGID_17_" x="-10" y="-7" width="14" height="14"/>
				</defs>
				<clipPath id="SVGID_18_">
					<use xlink:href="#SVGID_17_"  style="overflow:visible;"/>
				</clipPath>
				<rect x="-7.1" y="-4.7" class="st12" width="1.2" height="1.2"/>
			</g>
			<g>
				<defs>
					<rect id="SVGID_19_" x="-10" y="-7" width="14" height="14"/>
				</defs>
				<clipPath id="SVGID_20_">
					<use xlink:href="#SVGID_19_"  style="overflow:visible;"/>
				</clipPath>
				<rect x="-4.7" y="-4.7" class="st13" width="1.2" height="1.2"/>
			</g>
			<g>
				<defs>
					<rect id="SVGID_21_" x="-10" y="-7" width="14" height="14"/>
				</defs>
				<clipPath id="SVGID_22_">
					<use xlink:href="#SVGID_21_"  style="overflow:visible;"/>
				</clipPath>
				<rect x="-2.4" y="-4.7" class="st14" width="1.2" height="1.2"/>
			</g>
			<g>
				<defs>
					<rect id="SVGID_23_" x="-10" y="-7" width="14" height="14"/>
				</defs>
				<clipPath id="SVGID_24_">
					<use xlink:href="#SVGID_23_"  style="overflow:visible;"/>
				</clipPath>
				<rect x="-0.1" y="-4.7" class="st15" width="1.2" height="1.2"/>
			</g>
		</g>
		<g>
			<rect x="-10" y="-12" class="st1" width="14" height="24"/>
		</g>
	</g>
	<g>
		<g>
			<g>
				<defs>
					<rect id="SVGID_25_" x="12" y="-7" width="14" height="14"/>
				</defs>
				<clipPath id="SVGID_26_">
					<use xlink:href="#SVGID_25_"  style="overflow:visible;"/>
				</clipPath>
				<path class="st16" d="M24.9,6.7H13c-0.4,0-0.7-0.4-0.7-0.8V-6c0-0.4,0.3-0.7,0.7-0.7h6.6v5.2h-2v2h2V2c0,1.7,1,2.7,2.6,2.7
					c0.7,0,1.5-0.1,1.5-0.1v-2h-1.2c-0.8,0-0.9-0.3-0.9-0.9V0.6h1.9l-0.3-2h-1.6v-5.2h3.3c0.4,0,0.8,0.3,0.8,0.7V5.9
					C25.7,6.3,25.3,6.7,24.9,6.7"/>
			</g>
		</g>
		<g>
			<rect x="12" y="-12" class="st1" width="14" height="24"/>
		</g>
	</g>
</symbol>
<symbol  id="ic_x5F_alarm_x5F_clock" viewBox="-24 -24 48 48">
	<g>
		<rect x="-24" y="-24" class="st1" width="48" height="48"/>
	</g>
	<g>
		<path d="M18.8-3.5C18.8,6.4,11,14.4,1,14.9V18h2l1,1v4l-1,1H0h-3l-1-1v-4l1-1h1v-3.1c-9-1-16.2-8.9-16.2-18.4
			c0-4.9,2-9.3,5.2-12.6l-4.4-4.4l2.9-2.8l4.7,4.6c3-2,6.6-3.2,10.4-3.2c3.6,0,7,1.1,9.8,2.9l4.3-4.3l2.8,2.8l-4.1,3.9
			C16.8-13.3,18.8-8.6,18.8-3.5z M-14-3.5C-14,4.5-7.5,11,0.5,11S15,4.5,15-3.5S8.5-18,0.5-18S-14-11.5-14-3.5z"/>
		<polygon points="2,5 -2,5 -2,-5 6.3,-7.5 7.5,-3.7 2,-2 		"/>
		<path d="M-11.7,21.6L-11.7,21.6L-11.7,21.6L-12,22h-0.1c-1.6,1.5-5,1-7.9-1.2s-4.3-5.3-3.4-7.3l0,0l2.8-3.8l11.4,8.5L-11.7,21.6z"
			/>
		<path d="M19.9,20.8c-2.9,2.1-6.3,2.6-7.9,1.1V22l-0.3-0.4l0,0l0,0l-2.6-3.4l11.4-8.5l2.8,3.8l0,0C24.3,15.4,22.9,18.6,19.9,20.8z"
			/>
	</g>
	<rect x="-24" y="-24" class="st17" width="48" height="48"/>
</symbol>
<symbol  id="twitter_icon" viewBox="-7 -12 14 24">
	<g>
		<g>
			<defs>
				<rect id="SVGID_27_" x="-7" y="-7" width="14" height="14"/>
			</defs>
			<clipPath id="SVGID_28_">
				<use xlink:href="#SVGID_27_"  style="overflow:visible;"/>
			</clipPath>
			<path class="st18" d="M6.7,4.1c-0.5-0.2-1-0.4-1.6-0.4c0.6,0.3,1,0.9,1.2,1.5C5.8,4.9,5.2,4.7,4.6,4.6c-0.5,0.5-1.2,0.9-2,0.9
				c-1.5,0-2.8-1.2-2.8-2.7c0-0.2,0-0.4,0.1-0.6c-2.3,0.1-4.3,1.2-5.7,2.9C-6,4.5-6.1,4-6.1,3.5c0-0.9,0.5-1.8,1.2-2.3
				c-0.5,0-0.9,0.1-1.2,0.3l0,0c0-1.3,0.9-2.4,2.2-2.7c-0.2-0.1-0.5-0.1-0.7-0.1s-0.4,0-0.5,0C-4.8-2.2-3.8-3-2.6-3.1
				c-1-0.7-2.2-1.1-3.4-1.1c-0.2,0-0.4,0-0.7,0C-5.5-5-4-5.4-2.5-5.4c5.1,0,7.8,4.2,7.8,7.8c0,0.1,0,0.2,0,0.4
				C5.9,3.1,6.3,3.6,6.7,4.1"/>
		</g>
	</g>
	<g>
		<rect x="-7" y="-12" class="st1" width="14" height="24"/>
	</g>
</symbol>
<g class="st19">
	<text transform="matrix(1 0 0 1 20 129.6953)" class="st20 st21">Mon, Dec 8</text>
</g>
<g>
	<g>
		<g>
			<text transform="matrix(1 0 0 1 129.6348 130.0898)" class="st22 st20 st21">Tue 9:00 AM</text>
		</g>
	</g>
	
		<use xlink:href="#ic_x5F_alarm_x5F_clock"  width="48" height="48" id="XMLID_1_" x="-24" y="-24" transform="matrix(0.2878 0 0 -0.2878 116.7145 124.9072)" style="overflow:visible;"/>
</g>
<g class="st23">
	<text transform="matrix(1 0 0 1 21.0097 102.8985)" class="st24 st25">12:28</text>
	<text transform="matrix(1 0 0 1 21.0097 102.8985)" class="st26 st24 st25">12:28</text>
</g>
<use xlink:href="#Left_status_bar_icons"  width="302" height="24" id="XMLID_8_" x="-151" y="-12" transform="matrix(1 0 0 -1 152 39)" style="overflow:visible;"/>
<g>
	<circle class="st27" cx="812.2" cy="38.8" r="18.8"/>
	<g>
		<path class="st3" d="M818.1,28.6c-0.8-2.4-3.2-4-5.9-4s-5.1,1.6-5.9,4c-0.5,1.3-0.6,2.5-0.5,4.3c0.4,5.4,2.9,9.1,6.4,9.2
			c3.5,0,6.1-3.8,6.4-9.2C818.8,31.1,818.6,30,818.1,28.6z M814.9,37.8c-0.5,1-1.3,2.1-2.8,2.1s-2.3-1.1-2.8-2.1
			c-0.1-0.1,0.1-0.3,0.2-0.3c0.9,0.3,1.7,0.4,2.6,0.4c0.8,0,1.7-0.2,2.6-0.4C814.9,37.5,815,37.7,814.9,37.8z"/>
	</g>
	<g>
		<path class="st3" d="M812.2,55c5.1,0,9.6-2.3,12.6-6c0.5-0.6,0.5-1.5,0.1-2.1c-0.8-1.1-1.4-1.6-1.4-1.6l0,0
			c-0.2-0.2-0.5-0.4-0.7-0.6c0,0-0.1,0-0.1-0.1h-0.1c-1.6-0.6-3.8-1-5.7-1.3c-0.3,0-0.6,0-0.9,0.2l0,0c-1.1,0.8-2.3,1.2-3.7,1.2
			s-2.5-0.4-3.7-1.2l0,0c-0.3-0.2-0.6-0.2-0.9-0.2c-1.9,0.2-4.2,0.6-5.7,1.3h-0.1c0,0-0.1,0-0.1,0.1c-0.2,0.1-0.5,0.3-0.7,0.6l0,0
			c0,0-0.6,0.5-1.4,1.6c-0.5,0.6-0.4,1.5,0.1,2.1C802.6,52.6,807.1,55,812.2,55z"/>
	</g>
</g>
<g>
	<g class="st23">
		<g>
			<path class="st28" d="M707.9,33.3c-3.7,0-7,1.5-9.4,4l1.2,1.1c2.1-2.2,5-3.5,8.2-3.5s6.1,1.3,8.2,3.5l1.2-1.1
				C714.9,34.8,711.6,33.3,707.9,33.3z"/>
			<path d="M707.9,36.1c-2.9,0-5.5,1.2-7.3,3.1l1.2,1.1c1.6-1.6,3.7-2.6,6.1-2.6s4.6,1,6.1,2.6l1.2-1.1
				C713.4,37.3,710.8,36.1,707.9,36.1z"/>
			<path d="M707.9,39c-2.1,0-3.9,0.9-5.3,2.3l1.2,1.1c1-1.1,2.5-1.8,4.1-1.8s3.1,0.7,4.1,1.8l1.2-1.1C711.9,39.8,710,39,707.9,39z"
				/>
			<path d="M707.9,41.8c-1.3,0-2.4,0.5-3.2,1.4l1.2,1.1c0.5-0.5,1.2-0.9,2-0.9s1.5,0.3,2,0.9l1.2-1.1
				C710.3,42.3,709.2,41.8,707.9,41.8z"/>
		</g>
		<g>
			<rect x="699" y="28" class="st1" width="18" height="22"/>
		</g>
	</g>
	<g class="st23">
		<g>
			<rect x="660" y="28" class="st1" width="9" height="22"/>
		</g>
		<path d="M668,41.6l-2.8-2.7l2.8-2.5l-4.1-4.1v5.4l-2.1-2l-0.7,0.8l2.5,2.4l-2.5,2.3l0.7,0.8l2.1-1.9v5.2L668,41.6z M664.8,34.9
			l1.4,1.4l-1.4,1.3V34.9z M664.8,40.2l1.4,1.3l-1.4,1.3V40.2z"/>
	</g>
	<text transform="matrix(1 0 0 1 724.3174 43.4844)" class="st29 st20 st30">99%</text>
	<g class="st23">
		<g>
			<path d="M760.5,36.1c-0.4,0-0.7,0.3-0.7,0.7v4c0,0.4,0.3,0.7,0.7,0.7h9.9v-5.3h-9.9V36.1z"/>
		</g>
		<g>
			<g>
				<path d="M777.3,36.6h-0.9v-2.2c0-0.5-0.4-0.9-0.9-0.9h-18.1c-0.5,0-0.9,0.4-0.9,0.9v8.8c0,0.5,0.4,0.9,0.9,0.9h18.1
					c0.5,0,0.9-0.4,0.9-0.9V41h0.9c0.2,0,0.4-0.2,0.4-0.4V37C777.7,36.8,777.5,36.6,777.3,36.6z M775.1,42.8h-17.2v-8h17.2V37v3.5
					V42.8z"/>
			</g>
		</g>
		<g>
			<rect x="755.9" y="27.5" class="st1" width="22.5" height="22.5"/>
		</g>
	</g>
	<g>
		<g>
			<path d="M689.4,39.8c0-2.8-2.2-5-4.9-5.2v-0.7h0.5l0.4-0.4v-0.9l-0.4-0.4h-1h-0.9l-0.4,0.4v0.9l0.4,0.4h0.5v0.8
				c-2.6,0.3-4.6,2.5-4.6,5.1c0,1.4,0.5,2.6,1.4,3.5l-1.2,1.2l0.8,0.8l1.3-1.3c0.8,0.6,1.8,0.9,2.9,0.9c1,0,2-0.3,2.8-0.8l1.2,1.2
				l0.8-0.8l-1.1-1.1C688.8,42.6,689.4,41.3,689.4,39.8z M680.1,39.8c0-2.2,1.8-4.1,4.1-4.1c2.2,0,4.1,1.8,4.1,4.1
				c0,2.2-1.8,4.1-4.1,4.1C681.9,43.9,680.1,42.1,680.1,39.8z"/>
			<polygon points="684.5,37.5 683.4,37.5 683.4,40.1 685.7,40.8 686,39.8 684.5,39.3 			"/>
			<path d="M680.8,32.8L680.8,32.8L680.8,32.8L680.8,32.8L680.8,32.8c-0.5-0.5-1.5-0.4-2.3,0.2c-0.8,0.6-1.2,1.5-0.9,2l0,0l0.8,1.1
				l3.2-2.4L680.8,32.8z"/>
			<path d="M689.6,33.1c-0.8-0.6-1.8-0.7-2.2-0.3l0,0l-0.1,0.1l0,0l0,0l-0.7,1l3.2,2.4l0.8-1.1l0,0
				C690.9,34.6,690.5,33.7,689.6,33.1z"/>
		</g>
		<g>
			<rect x="676.9" y="27.5" class="st1" width="14.1" height="22.5"/>
		</g>
	</g>
</g>
</svg>
