<?xml version="1.0" encoding="utf-8"?>
<!-- Generator: Adobe Illustrator 22.1.0, SVG Export Plug-In . SVG Version: 6.00 Build 0)  -->
<svg version="1.1" id="OBJECTS" xmlns="http://www.w3.org/2000/svg" xmlns:xlink="http://www.w3.org/1999/xlink" x="0px" y="0px"
	 viewBox="0 0 853.3 533.3" style="enable-background:new 0 0 853.3 533.3;" xml:space="preserve">
<style type="text/css">
	.st0{fill:none;}
	.st1{display:none;fill:none;}
	.st2{fill:#FFFFFF;fill-opacity:0;}
	.st3{opacity:0.9;enable-background:new    ;}
	.st4{opacity:0.6;}
</style>
<symbol  id="CAMERA" viewBox="-24 -24 48 48">
	<rect x="-24" y="-24" class="st0" width="48" height="48"/>
	<g>
		<g>
			<path d="M-0.1,7c-5.5,0-10-4.5-10-10s4.5-10,10-10s10,4.5,10,10S5.4,7-0.1,7z"/>
		</g>
		<g>
			<path d="M11.9,14c-1.1,0-2.3,0.8-2.7,1.9l-1.6,4.3C7.2,21.2,6,22,4.9,22h-10c-1.1,0-2.3-0.8-2.7-1.9l-1.6-4.3
				c-0.4-1-1.6-1.9-2.7-1.9h-10c-1.1,0-1.9-0.9-1.9-2v-32c0-1.1,0.8-2,1.9-2h44c1.1,0,2.1,0.9,2.1,2v32c0,1.1-1,2-2.1,2L11.9,14
				L11.9,14z M-18.1,7c-1.1,0-2,0.9-2,2s0.9,2,2,2s2-0.9,2-2S-17,7-18.1,7z M-0.1-17c-7.7,0-14,6.3-14,14s6.3,14,14,14s14-6.3,14-14
				S7.6-17-0.1-17z"/>
		</g>
	</g>
	<rect x="-24" y="-24" class="st1" width="48" height="48"/>
</symbol>
<symbol  id="LOCK" viewBox="-24 -24 48 48">
	<rect x="-24" y="-24" class="st0" width="48" height="48"/>
	<path d="M12,4v8c0,6.6-5.4,12-12,12s-12-5.4-12-12V4h-7v-28h38V4H12z M-8,12c0,4.4,3.6,8,8,8s8-3.6,8-8V4H-8V12z"/>
	<rect x="-24" y="-24" class="st1" width="48" height="48"/>
</symbol>
<symbol  id="f_x5F_ic_x5F_ad_x5F_browsing" viewBox="-12 -12 24 24">
	<rect x="-12" y="-12" class="st2" width="24" height="24"/>
	<path class="st3" d="M-5.5,11L-9,7.5V3.3L2.3-8c0.8-0.8,2.1-0.8,2.8,0L10-3.1c0.8,0.8,0.8,2.1,0,2.8L-1.2,11H-5.5z M-3,5
		c-0.6-0.6-1.5-0.6-2.1,0s-0.6,1.5,0,2.1s1.5,0.6,2.1,0S-2.4,5.6-3,5z M-7-11h-2c-1.1,0-2,0.9-2,2v9L-7-11z M0.4-9.7l-2.7-1.1
		c-1-0.4-2.2,0.1-2.6,1.1l-3.8,9.2L0.4-9.7z"/>
</symbol>
<use xlink:href="#CAMERA"  width="48" height="48" id="XMLID_4_" x="-24" y="-24" transform="matrix(0.5 0 0 -0.5 820 502)" style="overflow:visible;"/>
<use xlink:href="#LOCK"  width="48" height="48" id="XMLID_5_" x="-24" y="-24" transform="matrix(0.5 0 0 -0.5 426 502)" style="overflow:visible;"/>
<use xlink:href="#f_x5F_ic_x5F_ad_x5F_browsing"  width="24" height="24" id="XMLID_9_" x="-12" y="-12" transform="matrix(1 0 0 -1 32 502)" style="overflow:visible;"/>
<g class="st4">
	<path d="M242,457.4l0.2-1.2l7.5-8.6h-5.5l0.3-1.3h7.3l-0.2,1.2l-7.5,8.6h5.8l-0.3,1.3H242z"/>
	<path d="M256.9,457.4l0.1-1.5c-0.4,0.5-0.9,1-1.5,1.3s-1.1,0.5-1.6,0.5c-0.6,0-1.1-0.2-1.4-0.5c-0.3-0.4-0.5-0.9-0.5-1.6
		c0-0.5,0.1-1.2,0.3-2l0.8-4.2h1.5l-0.8,4.2c-0.2,0.8-0.2,1.4-0.2,1.9c0,0.4,0.1,0.6,0.2,0.8c0.2,0.2,0.4,0.2,0.7,0.2
		c0.4,0,0.8-0.2,1.3-0.5c0.5-0.3,1-0.7,1.4-1.3l1-5.3h1.5l-1.6,8.1H256.9z"/>
	<path d="M270.9,457.4l0.8-4.2c0.2-0.8,0.3-1.5,0.3-1.8c0-0.7-0.3-1.1-1-1.1c-0.4,0-0.8,0.1-1.3,0.4c-0.5,0.3-0.9,0.7-1.4,1.2
		l-0.2,1.3l-0.8,4.2h-1.5l0.8-4.2c0.2-0.8,0.3-1.5,0.3-1.8c0-0.7-0.3-1.1-1-1.1c-0.4,0-0.8,0.2-1.2,0.5s-0.9,0.7-1.4,1.3l-1.1,5.4
		h-1.5l1.6-8.1h1.3l-0.1,1.5c0.5-0.6,0.9-1,1.5-1.3c0.5-0.3,1-0.4,1.5-0.4c0.6,0,1.1,0.2,1.4,0.5c0.3,0.3,0.5,0.7,0.6,1.3
		c0.5-0.6,1-1,1.5-1.3c0.5-0.3,1.1-0.5,1.7-0.5c0.6,0,1.1,0.2,1.5,0.5c0.3,0.4,0.5,0.9,0.5,1.6c0,0.2,0,0.5-0.1,0.7
		c0,0.3-0.1,0.7-0.2,1.3l-0.8,4.2H270.9z"/>
	<path d="M285.9,457.4l-0.4-3h-4.4l-1.6,3h-1.7l6.1-11.1h1.7l1.8,11.1H285.9z M281.7,453.3h3.6l-0.8-5.4L281.7,453.3z"/>
	<path d="M294.1,457.4l0.8-4.2c0.2-0.8,0.3-1.5,0.3-1.8c0-0.7-0.4-1.1-1.1-1.1c-0.4,0-0.8,0.2-1.3,0.5s-1,0.7-1.4,1.3l-1.1,5.3h-1.5
		l1.6-8.1h1.3l-0.1,1.5c0.5-0.6,1-1,1.5-1.3c0.5-0.3,1.1-0.5,1.6-0.5c0.7,0,1.2,0.2,1.5,0.5c0.4,0.4,0.5,0.9,0.5,1.6
		c0,0.2,0,0.5-0.1,0.7c0,0.3-0.1,0.7-0.2,1.3l-0.8,4.2H294.1z"/>
	<path d="M300.2,453.7c-0.5-0.3-0.9-0.6-1.1-0.9c-0.2-0.3-0.4-0.7-0.4-1.1c0-0.5,0.1-0.9,0.4-1.3c0.3-0.4,0.6-0.7,1.1-0.9
		c0.5-0.2,1-0.3,1.6-0.3c0.9,0,1.6,0.2,2.3,0.5l-0.2,1.1c-0.3-0.1-0.6-0.2-1-0.3c-0.4-0.1-0.7-0.1-1-0.1c-0.5,0-0.9,0.1-1.2,0.3
		s-0.4,0.5-0.4,0.9c0,0.4,0.3,0.8,0.9,1.1l1,0.5c0.5,0.3,0.9,0.6,1.1,0.9s0.3,0.7,0.3,1.1c0,0.8-0.3,1.4-0.9,1.9s-1.3,0.7-2.3,0.7
		c-0.5,0-1-0.1-1.5-0.2s-0.9-0.3-1.2-0.4l0.2-1.1c0.4,0.2,0.8,0.3,1.2,0.4c0.5,0.1,0.9,0.1,1.3,0.1c0.5,0,0.9-0.1,1.2-0.3
		s0.4-0.5,0.4-0.9c0-0.2-0.1-0.4-0.2-0.6c-0.1-0.2-0.4-0.3-0.7-0.5L300.2,453.7z"/>
	<path d="M307.9,457.7c-0.9,0-1.6-0.3-2.1-0.8c-0.5-0.5-0.8-1.3-0.8-2.2c0-1,0.2-1.9,0.6-2.7c0.4-0.9,1-1.6,1.7-2.1s1.6-0.8,2.4-0.8
		c0.3,0,0.7,0,1,0.1c0.3,0.1,0.6,0.2,0.9,0.3l-0.2,1.2c-0.5-0.2-1-0.3-1.5-0.3c-0.6,0-1.2,0.2-1.7,0.5c-0.5,0.3-0.9,0.8-1.2,1.5
		c-0.3,0.6-0.4,1.4-0.4,2.2c0,0.7,0.1,1.1,0.4,1.4s0.7,0.4,1.2,0.4c0.6,0,1.4-0.2,2.3-0.8l0.4,1c-0.4,0.3-0.9,0.6-1.4,0.8
		C308.9,457.6,308.4,457.7,307.9,457.7z"/>
	<path d="M314.9,450.8c0.5-0.6,1-1,1.5-1.3s1.1-0.4,1.6-0.4c0.7,0,1.2,0.2,1.5,0.5c0.4,0.4,0.5,0.9,0.5,1.6c0,0.2,0,0.5-0.1,0.7
		c0,0.3-0.1,0.7-0.2,1.3l-0.8,4.2h-1.5l0.8-4.2c0.2-0.8,0.3-1.5,0.3-1.8c0-0.7-0.4-1.1-1.1-1.1c-0.4,0-0.8,0.2-1.3,0.5
		s-1,0.8-1.5,1.3l-1,5.3H312l2.3-11.8h1.5L314.9,450.8z"/>
	<path d="M326.4,457.4l0.1-1.5c-0.4,0.5-0.9,1-1.4,1.3c-0.5,0.3-1,0.4-1.6,0.4c-0.7,0-1.2-0.2-1.6-0.7c-0.4-0.5-0.5-1.1-0.5-2
		c0-1,0.2-1.9,0.6-2.8c0.4-0.9,1-1.6,1.8-2.2s1.6-0.9,2.5-0.9c0.4,0,0.9,0.1,1.4,0.2c0.5,0.1,1,0.3,1.4,0.5l-1.5,7.7H326.4z
		 M324.1,456.4c0.8,0,1.7-0.6,2.6-1.7l0.8-4.2c-0.5-0.1-0.9-0.2-1.2-0.2c-0.6,0-1.1,0.2-1.6,0.6c-0.5,0.4-0.9,0.9-1.3,1.6
		c-0.3,0.7-0.5,1.4-0.5,2.3c0,0.5,0.1,1,0.3,1.2C323.4,456.3,323.7,456.4,324.1,456.4z"/>
	<path d="M335.4,457.4l0.1-1.5c-0.4,0.5-0.9,1-1.5,1.3s-1.1,0.5-1.6,0.5c-0.6,0-1.1-0.2-1.4-0.5c-0.3-0.4-0.5-0.9-0.5-1.6
		c0-0.5,0.1-1.2,0.3-2l0.8-4.2h1.5l-0.8,4.2c-0.2,0.8-0.2,1.4-0.2,1.9c0,0.4,0.1,0.6,0.2,0.8c0.2,0.2,0.4,0.2,0.7,0.2
		c0.4,0,0.8-0.2,1.3-0.5c0.5-0.3,1-0.7,1.4-1.3l1-5.3h1.5l-1.6,8.1H335.4z"/>
	<path d="M345.3,456.7c-1,0.7-2.2,1.1-3.4,1.1c-0.9,0-1.5-0.3-2-0.8c-0.5-0.5-0.7-1.2-0.7-2.2c0-0.7,0.1-1.4,0.3-2.1
		c0.2-0.7,0.6-1.3,1-1.8c0.4-0.5,0.9-1,1.6-1.3c0.6-0.3,1.3-0.5,2-0.5c0.7,0,1.2,0.2,1.5,0.5c0.4,0.3,0.6,0.8,0.6,1.3
		c0,0.8-0.4,1.6-1.2,2.2c-0.8,0.6-1.9,1-3.3,1.3l-1,0.2c0,0.7,0.1,1.2,0.4,1.5c0.2,0.3,0.7,0.5,1.2,0.5c0.8,0,1.6-0.3,2.6-0.8
		L345.3,456.7z M343.8,450.2c-0.5,0-0.9,0.1-1.3,0.4c-0.4,0.3-0.8,0.7-1.1,1.2c-0.3,0.5-0.5,1.1-0.6,1.7l1-0.2
		c0.9-0.2,1.7-0.5,2.2-0.9s0.8-0.8,0.8-1.3c0-0.2-0.1-0.4-0.2-0.6C344.3,450.3,344.1,450.2,343.8,450.2z"/>
	<path d="M352.2,457.4l0.8-4.2c0.2-0.8,0.3-1.5,0.3-1.8c0-0.7-0.4-1.1-1.1-1.1c-0.4,0-0.8,0.2-1.3,0.5s-1,0.7-1.4,1.3l-1.1,5.3h-1.5
		l1.6-8.1h1.3l-0.1,1.5c0.5-0.6,1-1,1.5-1.3c0.5-0.3,1.1-0.5,1.6-0.5c0.7,0,1.2,0.2,1.5,0.5c0.4,0.4,0.5,0.9,0.5,1.6
		c0,0.2,0,0.5-0.1,0.7c0,0.3-0.1,0.7-0.2,1.3l-0.8,4.2H352.2z"/>
	<path d="M362.1,457.4l-1.5-8.1h1.6l1,6.7c0.7-1.1,1.3-2.3,1.9-3.5c0.6-1.2,1.1-2.3,1.5-3.2h1.6c-0.5,1.2-1.1,2.5-2,4
		c-0.9,1.5-1.7,2.9-2.6,4.1H362.1z"/>
	<path d="M371.3,457.7c-0.9,0-1.7-0.3-2.2-0.9c-0.5-0.6-0.8-1.4-0.8-2.4c0-1,0.2-1.9,0.6-2.7c0.4-0.8,0.9-1.5,1.6-2
		c0.7-0.5,1.5-0.7,2.3-0.7c0.9,0,1.7,0.3,2.2,0.9c0.5,0.6,0.8,1.4,0.8,2.4c0,1-0.2,1.9-0.6,2.7c-0.4,0.8-0.9,1.5-1.6,2
		C372.9,457.4,372.1,457.7,371.3,457.7z M371.4,456.4c0.5,0,1-0.2,1.4-0.5c0.4-0.3,0.8-0.8,1-1.4c0.2-0.6,0.4-1.3,0.4-2.1
		c0-0.7-0.1-1.2-0.4-1.5c-0.3-0.4-0.7-0.5-1.2-0.5c-0.5,0-1,0.2-1.4,0.5c-0.4,0.3-0.8,0.8-1,1.4c-0.2,0.6-0.4,1.3-0.4,2.1
		c0,0.7,0.1,1.2,0.4,1.5C370.5,456.3,370.9,456.4,371.4,456.4z"/>
	<path d="M382.1,457.4l0.8-4.2c0.2-0.8,0.3-1.5,0.3-1.8c0-0.7-0.4-1.1-1.1-1.1c-0.4,0-0.8,0.2-1.3,0.5s-1,0.7-1.4,1.3l-1.1,5.3h-1.5
		l1.6-8.1h1.3l-0.1,1.5c0.5-0.6,1-1,1.5-1.3c0.5-0.3,1.1-0.5,1.6-0.5c0.7,0,1.2,0.2,1.5,0.5c0.4,0.4,0.5,0.9,0.5,1.6
		c0,0.2,0,0.5-0.1,0.7c0,0.3-0.1,0.7-0.2,1.3l-0.8,4.2H382.1z"/>
	<path d="M397.1,457.4l-0.4-3h-4.4l-1.6,3h-1.7l6.1-11.1h1.7l1.8,11.1H397.1z M392.9,453.3h3.6l-0.8-5.4L392.9,453.3z"/>
	<path d="M405.4,457.4l0.8-4.2c0.2-0.8,0.3-1.5,0.3-1.8c0-0.7-0.4-1.1-1.1-1.1c-0.4,0-0.8,0.2-1.3,0.5s-1,0.7-1.4,1.3l-1.1,5.3H400
		l1.6-8.1h1.3l-0.1,1.5c0.5-0.6,1-1,1.5-1.3c0.5-0.3,1.1-0.5,1.6-0.5c0.7,0,1.2,0.2,1.5,0.5c0.4,0.4,0.5,0.9,0.5,1.6
		c0,0.2,0,0.5-0.1,0.7c0,0.3-0.1,0.7-0.2,1.3l-0.8,4.2H405.4z"/>
	<path d="M414.4,455.6c-0.4,0.5-0.9,0.9-1.4,1.2c-0.5,0.3-1,0.4-1.5,0.4c-0.7,0-1.2-0.2-1.6-0.7s-0.6-1.1-0.6-1.9
		c0-0.9,0.2-1.8,0.6-2.7s1-1.6,1.8-2.1c0.8-0.6,1.6-0.8,2.5-0.8c0.4,0,0.9,0.1,1.4,0.2s1,0.3,1.4,0.5l-1.3,6.7
		c-0.3,1.5-0.8,2.6-1.6,3.3s-1.9,1.1-3.1,1.1c-0.9,0-1.6-0.2-2.4-0.6l0.2-1.2c0.7,0.3,1.4,0.5,2.1,0.5c0.9,0,1.6-0.3,2.2-0.8
		c0.5-0.5,0.9-1.4,1.1-2.6L414.4,455.6z M412,456.1c0.4,0,0.8-0.2,1.3-0.5s0.9-0.8,1.4-1.4l0.7-3.7c-0.5-0.1-0.9-0.2-1.2-0.2
		c-0.6,0-1.1,0.2-1.6,0.6c-0.5,0.4-0.9,0.9-1.2,1.5c-0.3,0.7-0.5,1.4-0.5,2.1C410.9,455.6,411.3,456.1,412,456.1z"/>
	<path d="M424.2,456.7c-1,0.7-2.2,1.1-3.4,1.1c-0.9,0-1.5-0.3-2-0.8c-0.5-0.5-0.7-1.2-0.7-2.2c0-0.7,0.1-1.4,0.3-2.1
		c0.2-0.7,0.6-1.3,1-1.8c0.4-0.5,0.9-1,1.6-1.3c0.6-0.3,1.3-0.5,2-0.5c0.7,0,1.2,0.2,1.5,0.5c0.4,0.3,0.6,0.8,0.6,1.3
		c0,0.8-0.4,1.6-1.2,2.2c-0.8,0.6-1.9,1-3.3,1.3l-1,0.2c0,0.7,0.1,1.2,0.4,1.5c0.2,0.3,0.7,0.5,1.2,0.5c0.8,0,1.6-0.3,2.6-0.8
		L424.2,456.7z M422.6,450.2c-0.5,0-0.9,0.1-1.3,0.4c-0.4,0.3-0.8,0.7-1.1,1.2c-0.3,0.5-0.5,1.1-0.6,1.7l1-0.2
		c0.9-0.2,1.7-0.5,2.2-0.9s0.8-0.8,0.8-1.3c0-0.2-0.1-0.4-0.2-0.6C423.2,450.3,422.9,450.2,422.6,450.2z"/>
	<path d="M428.5,450.7c0.4-0.5,0.9-0.9,1.4-1.2c0.5-0.3,1-0.4,1.5-0.4c0.7,0,1.2,0.2,1.5,0.7c0.4,0.5,0.5,1.2,0.5,2.1
		c0,1-0.2,2-0.6,2.8c-0.4,0.9-1,1.6-1.7,2.1s-1.6,0.8-2.5,0.8c-0.4,0-0.9-0.1-1.4-0.2s-1-0.3-1.4-0.5l2.2-11.4h1.5L428.5,450.7z
		 M430.8,450.4c-0.8,0-1.6,0.6-2.6,1.8l-0.8,4.1c0.5,0.1,0.9,0.2,1.2,0.2c0.6,0,1.1-0.2,1.6-0.5c0.5-0.4,0.9-0.9,1.2-1.5
		c0.3-0.7,0.4-1.4,0.4-2.2C431.9,450.9,431.6,450.4,430.8,450.4z"/>
	<path d="M437.6,457.7c-0.9,0-1.7-0.3-2.2-0.9c-0.5-0.6-0.8-1.4-0.8-2.4c0-1,0.2-1.9,0.6-2.7c0.4-0.8,0.9-1.5,1.6-2
		c0.7-0.5,1.5-0.7,2.3-0.7c0.9,0,1.7,0.3,2.2,0.9c0.5,0.6,0.8,1.4,0.8,2.4c0,1-0.2,1.9-0.6,2.7c-0.4,0.8-0.9,1.5-1.6,2
		C439.3,457.4,438.5,457.7,437.6,457.7z M437.8,456.4c0.5,0,1-0.2,1.4-0.5c0.4-0.3,0.8-0.8,1-1.4c0.2-0.6,0.4-1.3,0.4-2.1
		c0-0.7-0.1-1.2-0.4-1.5c-0.3-0.4-0.7-0.5-1.2-0.5c-0.5,0-1,0.2-1.4,0.5c-0.4,0.3-0.8,0.8-1,1.4c-0.2,0.6-0.4,1.3-0.4,2.1
		c0,0.7,0.1,1.2,0.4,1.5C436.8,456.3,437.2,456.4,437.8,456.4z"/>
	<path d="M448.1,456.9c-0.3,0.2-0.6,0.4-1,0.5c-0.4,0.1-0.8,0.2-1.2,0.2c-1.4,0-2-0.6-2-1.7c0-0.3,0.1-0.8,0.2-1.6l0.7-3.6h-1.5
		l0.2-1l1.6-0.2l0.7-2.3h1.2l-0.4,2.3h2.4l-0.2,1.2h-2.4l-0.7,3.5c-0.1,0.8-0.2,1.3-0.2,1.5c0,0.3,0.1,0.5,0.2,0.6
		c0.1,0.1,0.4,0.2,0.7,0.2c0.4,0,0.9-0.1,1.4-0.3L448.1,456.9z"/>
	<path d="M455.5,456.7c-1,0.7-2.2,1.1-3.4,1.1c-0.9,0-1.5-0.3-2-0.8c-0.5-0.5-0.7-1.2-0.7-2.2c0-0.7,0.1-1.4,0.3-2.1
		c0.2-0.7,0.6-1.3,1-1.8c0.4-0.5,0.9-1,1.6-1.3c0.6-0.3,1.3-0.5,2-0.5c0.7,0,1.2,0.2,1.5,0.5c0.4,0.3,0.6,0.8,0.6,1.3
		c0,0.8-0.4,1.6-1.2,2.2c-0.8,0.6-1.9,1-3.3,1.3l-1,0.2c0,0.7,0.1,1.2,0.4,1.5c0.2,0.3,0.7,0.5,1.2,0.5c0.8,0,1.6-0.3,2.6-0.8
		L455.5,456.7z M453.9,450.2c-0.5,0-0.9,0.1-1.3,0.4c-0.4,0.3-0.8,0.7-1.1,1.2c-0.3,0.5-0.5,1.1-0.6,1.7l1-0.2
		c0.9-0.2,1.7-0.5,2.2-0.9s0.8-0.8,0.8-1.3c0-0.2-0.1-0.4-0.2-0.6C454.4,450.3,454.2,450.2,453.9,450.2z"/>
	<path d="M462.4,457.4l0.8-4.2c0.2-0.8,0.3-1.5,0.3-1.8c0-0.7-0.4-1.1-1.1-1.1c-0.4,0-0.8,0.2-1.3,0.5s-1,0.7-1.4,1.3l-1.1,5.3H457
		l1.6-8.1h1.3l-0.1,1.5c0.5-0.6,1-1,1.5-1.3c0.5-0.3,1.1-0.5,1.6-0.5c0.7,0,1.2,0.2,1.5,0.5c0.4,0.4,0.5,0.9,0.5,1.6
		c0,0.2,0,0.5-0.1,0.7c0,0.3-0.1,0.7-0.2,1.3l-0.8,4.2H462.4z"/>
	<path d="M475.8,457.4l0.8-4.2c0.2-0.8,0.3-1.5,0.3-1.8c0-0.7-0.4-1.1-1.1-1.1c-0.4,0-0.8,0.2-1.3,0.5s-1,0.7-1.4,1.3l-1.1,5.3h-1.5
		l1.6-8.1h1.3l-0.1,1.5c0.5-0.6,1-1,1.5-1.3c0.5-0.3,1.1-0.5,1.6-0.5c0.7,0,1.2,0.2,1.5,0.5c0.4,0.4,0.5,0.9,0.5,1.6
		c0,0.2,0,0.5-0.1,0.7c0,0.3-0.1,0.7-0.2,1.3l-0.8,4.2H475.8z"/>
	<path d="M484.8,457.4l0.1-1.5c-0.4,0.5-0.9,1-1.4,1.3c-0.5,0.3-1,0.4-1.6,0.4c-0.7,0-1.2-0.2-1.6-0.7c-0.4-0.5-0.5-1.1-0.5-2
		c0-1,0.2-1.9,0.6-2.8c0.4-0.9,1-1.6,1.8-2.2s1.6-0.9,2.5-0.9c0.4,0,0.9,0.1,1.4,0.2c0.5,0.1,1,0.3,1.4,0.5l-1.5,7.7H484.8z
		 M482.5,456.4c0.8,0,1.7-0.6,2.6-1.7l0.8-4.2c-0.5-0.1-0.9-0.2-1.2-0.2c-0.6,0-1.1,0.2-1.6,0.6c-0.5,0.4-0.9,0.9-1.3,1.6
		c-0.3,0.7-0.5,1.4-0.5,2.3c0,0.5,0.1,1,0.3,1.2C481.8,456.3,482.1,456.4,482.5,456.4z"/>
	<path d="M491.4,457.7c-0.9,0-1.6-0.3-2.1-0.8c-0.5-0.5-0.8-1.3-0.8-2.2c0-1,0.2-1.9,0.6-2.7c0.4-0.9,1-1.6,1.7-2.1s1.6-0.8,2.4-0.8
		c0.3,0,0.7,0,1,0.1c0.3,0.1,0.6,0.2,0.9,0.3l-0.2,1.2c-0.5-0.2-1-0.3-1.5-0.3c-0.6,0-1.2,0.2-1.7,0.5c-0.5,0.3-0.9,0.8-1.2,1.5
		c-0.3,0.6-0.4,1.4-0.4,2.2c0,0.7,0.1,1.1,0.4,1.4s0.7,0.4,1.2,0.4c0.6,0,1.4-0.2,2.3-0.8l0.4,1c-0.4,0.3-0.9,0.6-1.4,0.8
		C492.5,457.6,492,457.7,491.4,457.7z"/>
	<path d="M498.4,450.8c0.5-0.6,1-1,1.5-1.3s1.1-0.4,1.6-0.4c0.7,0,1.2,0.2,1.5,0.5c0.4,0.4,0.5,0.9,0.5,1.6c0,0.2,0,0.5-0.1,0.7
		c0,0.3-0.1,0.7-0.2,1.3l-0.8,4.2H501l0.8-4.2c0.2-0.8,0.3-1.5,0.3-1.8c0-0.7-0.4-1.1-1.1-1.1c-0.4,0-0.8,0.2-1.3,0.5
		s-1,0.8-1.5,1.3l-1,5.3h-1.5l2.3-11.8h1.5L498.4,450.8z"/>
	<path d="M509.1,457.4l1.6-8.1h1.3l-0.1,1.6c0.8-1.1,1.6-1.6,2.6-1.6c0.2,0,0.5,0,0.7,0.1l-0.3,1.4c-0.3,0-0.6-0.1-0.7-0.1
		c-0.9,0-1.7,0.5-2.4,1.4l-1.1,5.4H509.1z"/>
	<path d="M521.2,456.7c-1,0.7-2.2,1.1-3.4,1.1c-0.9,0-1.5-0.3-2-0.8c-0.5-0.5-0.7-1.2-0.7-2.2c0-0.7,0.1-1.4,0.3-2.1
		c0.2-0.7,0.6-1.3,1-1.8c0.4-0.5,0.9-1,1.6-1.3c0.6-0.3,1.3-0.5,2-0.5c0.7,0,1.2,0.2,1.5,0.5c0.4,0.3,0.6,0.8,0.6,1.3
		c0,0.8-0.4,1.6-1.2,2.2c-0.8,0.6-1.9,1-3.3,1.3l-1,0.2c0,0.7,0.1,1.2,0.4,1.5c0.2,0.3,0.7,0.5,1.2,0.5c0.8,0,1.6-0.3,2.6-0.8
		L521.2,456.7z M519.6,450.2c-0.5,0-0.9,0.1-1.3,0.4c-0.4,0.3-0.8,0.7-1.1,1.2c-0.3,0.5-0.5,1.1-0.6,1.7l1-0.2
		c0.9-0.2,1.7-0.5,2.2-0.9s0.8-0.8,0.8-1.3c0-0.2-0.1-0.4-0.2-0.6C520.2,450.3,519.9,450.2,519.6,450.2z"/>
	<path d="M525.7,457.7c-0.9,0-1.6-0.3-2.1-0.8c-0.5-0.5-0.8-1.3-0.8-2.2c0-1,0.2-1.9,0.6-2.7c0.4-0.9,1-1.6,1.7-2.1s1.6-0.8,2.4-0.8
		c0.3,0,0.7,0,1,0.1c0.3,0.1,0.6,0.2,0.9,0.3l-0.2,1.2c-0.5-0.2-1-0.3-1.5-0.3c-0.6,0-1.2,0.2-1.7,0.5c-0.5,0.3-0.9,0.8-1.2,1.5
		c-0.3,0.6-0.4,1.4-0.4,2.2c0,0.7,0.1,1.1,0.4,1.4s0.7,0.4,1.2,0.4c0.6,0,1.4-0.2,2.3-0.8l0.4,1c-0.4,0.3-0.9,0.6-1.4,0.8
		C526.7,457.6,526.2,457.7,525.7,457.7z"/>
	<path d="M532.7,450.8c0.5-0.6,1-1,1.5-1.3s1.1-0.4,1.6-0.4c0.7,0,1.2,0.2,1.5,0.5c0.4,0.4,0.5,0.9,0.5,1.6c0,0.2,0,0.5-0.1,0.7
		c0,0.3-0.1,0.7-0.2,1.3l-0.8,4.2h-1.5l0.8-4.2c0.2-0.8,0.3-1.5,0.3-1.8c0-0.7-0.4-1.1-1.1-1.1c-0.4,0-0.8,0.2-1.3,0.5
		s-1,0.8-1.5,1.3l-1,5.3h-1.5l2.3-11.8h1.5L532.7,450.8z"/>
	<path d="M544.1,456.9c-0.3,0.2-0.6,0.4-1,0.5c-0.4,0.1-0.8,0.2-1.2,0.2c-1.4,0-2-0.6-2-1.7c0-0.3,0.1-0.8,0.2-1.6l0.7-3.6h-1.5
		l0.2-1l1.6-0.2l0.7-2.3h1.2l-0.4,2.3h2.4l-0.2,1.2h-2.4l-0.7,3.5c-0.1,0.8-0.2,1.3-0.2,1.5c0,0.3,0.1,0.5,0.2,0.6
		c0.1,0.1,0.4,0.2,0.7,0.2c0.4,0,0.9-0.1,1.4-0.3L544.1,456.9z"/>
	<path d="M547.5,453.7c-0.5-0.3-0.9-0.6-1.1-0.9c-0.2-0.3-0.4-0.7-0.4-1.1c0-0.5,0.1-0.9,0.4-1.3c0.3-0.4,0.6-0.7,1.1-0.9
		c0.5-0.2,1-0.3,1.6-0.3c0.9,0,1.6,0.2,2.3,0.5l-0.2,1.1c-0.3-0.1-0.6-0.2-1-0.3c-0.4-0.1-0.7-0.1-1-0.1c-0.5,0-0.9,0.1-1.2,0.3
		s-0.4,0.5-0.4,0.9c0,0.4,0.3,0.8,0.9,1.1l1,0.5c0.5,0.3,0.9,0.6,1.1,0.9s0.3,0.7,0.3,1.1c0,0.8-0.3,1.4-0.9,1.9s-1.3,0.7-2.3,0.7
		c-0.5,0-1-0.1-1.5-0.2s-0.9-0.3-1.2-0.4l0.2-1.1c0.4,0.2,0.8,0.3,1.2,0.4c0.5,0.1,0.9,0.1,1.3,0.1c0.5,0,0.9-0.1,1.2-0.3
		s0.4-0.5,0.4-0.9c0-0.2-0.1-0.4-0.2-0.6c-0.1-0.2-0.4-0.3-0.7-0.5L547.5,453.7z"/>
	<path d="M562.7,457.4l-0.5-6.3l-2.8,6.3h-1.5l-1.1-8.1h1.6l0.6,6.5l2.8-6.5h1.5l0.5,6.7c1.2-2.3,2.1-4.5,2.8-6.7h1.6
		c-0.4,1.2-1,2.5-1.7,4.1s-1.5,2.9-2.2,4H562.7z"/>
	<path d="M568.3,457.4l1.6-8.1h1.5l-1.6,8.1H568.3z M570.9,447.9c-0.3,0-0.5-0.1-0.6-0.2c-0.2-0.1-0.2-0.3-0.2-0.6
		c0-0.3,0.1-0.6,0.3-0.8c0.2-0.2,0.5-0.3,0.8-0.3c0.3,0,0.5,0.1,0.6,0.2c0.2,0.1,0.2,0.3,0.2,0.6c0,0.3-0.1,0.6-0.3,0.8
		C571.5,447.8,571.3,447.9,570.9,447.9z"/>
	<path d="M574.5,453.7c-0.5-0.3-0.9-0.6-1.1-0.9c-0.2-0.3-0.4-0.7-0.4-1.1c0-0.5,0.1-0.9,0.4-1.3c0.3-0.4,0.6-0.7,1.1-0.9
		c0.5-0.2,1-0.3,1.6-0.3c0.9,0,1.6,0.2,2.3,0.5l-0.2,1.1c-0.3-0.1-0.6-0.2-1-0.3c-0.4-0.1-0.7-0.1-1-0.1c-0.5,0-0.9,0.1-1.2,0.3
		s-0.4,0.5-0.4,0.9c0,0.4,0.3,0.8,0.9,1.1l1,0.5c0.5,0.3,0.9,0.6,1.1,0.9s0.3,0.7,0.3,1.1c0,0.8-0.3,1.4-0.9,1.9s-1.3,0.7-2.3,0.7
		c-0.5,0-1-0.1-1.5-0.2s-0.9-0.3-1.2-0.4l0.2-1.1c0.4,0.2,0.8,0.3,1.2,0.4c0.5,0.1,0.9,0.1,1.3,0.1c0.5,0,0.9-0.1,1.2-0.3
		s0.4-0.5,0.4-0.9c0-0.2-0.1-0.4-0.2-0.6c-0.1-0.2-0.4-0.3-0.7-0.5L574.5,453.7z"/>
	<path d="M582.1,457.7c-0.9,0-1.6-0.3-2.1-0.8c-0.5-0.5-0.8-1.3-0.8-2.2c0-1,0.2-1.9,0.6-2.7c0.4-0.9,1-1.6,1.7-2.1s1.6-0.8,2.4-0.8
		c0.3,0,0.7,0,1,0.1c0.3,0.1,0.6,0.2,0.9,0.3l-0.2,1.2c-0.5-0.2-1-0.3-1.5-0.3c-0.6,0-1.2,0.2-1.7,0.5c-0.5,0.3-0.9,0.8-1.2,1.5
		c-0.3,0.6-0.4,1.4-0.4,2.2c0,0.7,0.1,1.1,0.4,1.4s0.7,0.4,1.2,0.4c0.6,0,1.4-0.2,2.3-0.8l0.4,1c-0.4,0.3-0.9,0.6-1.4,0.8
		C583.2,457.6,582.6,457.7,582.1,457.7z"/>
	<path d="M589.1,450.8c0.5-0.6,1-1,1.5-1.3s1.1-0.4,1.6-0.4c0.7,0,1.2,0.2,1.5,0.5c0.4,0.4,0.5,0.9,0.5,1.6c0,0.2,0,0.5-0.1,0.7
		c0,0.3-0.1,0.7-0.2,1.3l-0.8,4.2h-1.5l0.8-4.2c0.2-0.8,0.3-1.5,0.3-1.8c0-0.7-0.4-1.1-1.1-1.1c-0.4,0-0.8,0.2-1.3,0.5
		s-1,0.8-1.5,1.3l-1,5.3h-1.5l2.3-11.8h1.5L589.1,450.8z"/>
	<path d="M601.7,456.7c-1,0.7-2.2,1.1-3.4,1.1c-0.9,0-1.5-0.3-2-0.8c-0.5-0.5-0.7-1.2-0.7-2.2c0-0.7,0.1-1.4,0.3-2.1
		c0.2-0.7,0.6-1.3,1-1.8c0.4-0.5,0.9-1,1.6-1.3c0.6-0.3,1.3-0.5,2-0.5c0.7,0,1.2,0.2,1.5,0.5c0.4,0.3,0.6,0.8,0.6,1.3
		c0,0.8-0.4,1.6-1.2,2.2c-0.8,0.6-1.9,1-3.3,1.3l-1,0.2c0,0.7,0.1,1.2,0.4,1.5c0.2,0.3,0.7,0.5,1.2,0.5c0.8,0,1.6-0.3,2.6-0.8
		L601.7,456.7z M600.2,450.2c-0.5,0-0.9,0.1-1.3,0.4c-0.4,0.3-0.8,0.7-1.1,1.2c-0.3,0.5-0.5,1.1-0.6,1.7l1-0.2
		c0.9-0.2,1.7-0.5,2.2-0.9s0.8-0.8,0.8-1.3c0-0.2-0.1-0.4-0.2-0.6C600.7,450.3,600.5,450.2,600.2,450.2z"/>
	<path d="M608.6,457.4l0.8-4.2c0.2-0.8,0.3-1.5,0.3-1.8c0-0.7-0.4-1.1-1.1-1.1c-0.4,0-0.8,0.2-1.3,0.5s-1,0.7-1.4,1.3l-1.1,5.3h-1.5
		l1.6-8.1h1.3l-0.1,1.5c0.5-0.6,1-1,1.5-1.3c0.5-0.3,1.1-0.5,1.6-0.5c0.7,0,1.2,0.2,1.5,0.5c0.4,0.4,0.5,0.9,0.5,1.6
		c0,0.2,0,0.5-0.1,0.7c0,0.3-0.1,0.7-0.2,1.3l-0.8,4.2H608.6z"/>
</g>
</svg>
