<?xml version="1.0" encoding="utf-8"?>
<!-- Generator: Adobe Illustrator 21.0.2, SVG Export Plug-In . SVG Version: 6.00 Build 0)  -->
<svg version="1.1" xmlns="http://www.w3.org/2000/svg" xmlns:xlink="http://www.w3.org/1999/xlink" x="0px" y="0px"
	 viewBox="0 0 853.3 533.3" style="enable-background:new 0 0 853.3 533.3;" xml:space="preserve">
<style type="text/css">
	.st0{display:none;}
	.st1{display:inline;fill:#A54E4E;}
	.st2{opacity:0.6;fill:#FFFFFF;enable-background:new    ;}
	.st3{font-family:'AmazonEmber-Italic';}
	.st4{font-size:16px;}
	.st5{fill:#FFFFFF;}
	.st6{display:none;fill:#FFFFFF;}
</style>
<g id="Layer_2" class="st0">
	<rect x="-1" class="st1" width="854" height="534"/>
</g>
<g id="OBJECTS">
	<text transform="matrix(1 0 0 1 327.641 457.5439)" class="st2 st3 st4">Swipe right to browse offers</text>
	<g>
		<path class="st5" d="M820,498.5c-2.8,0-5,2.2-5,5s2.2,5,5,5s5-2.2,5-5S822.7,498.5,820,498.5z"/>
		<path class="st5" d="M826,495c-0.5,0-1.2-0.4-1.4-1l-0.8-2.1c-0.2-0.5-0.8-0.9-1.3-0.9h-5c-0.5,0-1.2,0.4-1.4,0.9l-0.8,2.2
			c-0.2,0.5-0.8,0.9-1.3,0.9h-5c-0.5,0-1,0.5-1,1v16c0,0.5,0.4,1,1,1h22c0.5,0,1-0.5,1-1v-16c0-0.5-0.5-1-1-1H826z M811,498.5
			c-0.5,0-1-0.5-1-1c0-0.6,0.5-1,1-1s1,0.4,1,1C812,498,811.5,498.5,811,498.5z M820,510.5c-3.9,0-7-3.1-7-7s3.1-7,7-7
			c3.8,0,7,3.1,7,7S823.8,510.5,820,510.5z"/>
		<path class="st5" d="M432,500v-4c0-3.3-2.7-6-6-6s-6,2.7-6,6v4h-3.5v14h19v-14H432z M422,496c0-2.2,1.8-4,4-4s4,1.8,4,4v4h-8V496z
			"/>
		<path class="st6" d="M27.9,494.5c-0.4,0-0.7,0.2-1,0.5c-0.6,0.6-0.6,1.5,0,2.1c0.3,0.3,0.7,0.5,1,0.5s0.8-0.2,1.1-0.5
			c0.6-0.6,0.6-1.5,0-2.1C28.7,494.6,28.3,494.5,27.9,494.5 M29,512.9c-0.8,0-1.6-0.5-1.9-1.2l-3.8-9.2l9.1,9.2l-2.7,1.1
			C29.5,512.9,29.2,512.9,29,512.9 M23,513c-1.1,0-2-0.9-2-2v-9l4,11H23 M35.7,510.6c-0.5,0-1-0.2-1.4-0.6L23,498.7v-4.2l3.5-3.5
			h4.3L42,502.3c0.8,0.7,0.8,2,0,2.8l-4.9,4.9C36.7,510.4,36.3,510.6,35.7,510.6 M44,490H20v24h24V490"/>
		<path class="st5" d="M23.3,502.5l3.8,9.2c0.3,0.8,1.1,1.2,1.9,1.2c0.2,0,0.5,0,0.7-0.1l2.7-1.1L23.3,502.5 M21,502v9
			c0,1.1,0.9,2,2,2h2L21,502 M27.9,497.5c-0.4,0-0.7-0.2-1-0.5c-0.6-0.6-0.6-1.5,0-2.1c0.3-0.3,0.7-0.5,1-0.5s0.8,0.2,1.1,0.5
			c0.6,0.6,0.6,1.5,0,2.1C28.7,497.3,28.3,497.5,27.9,497.5 M30.8,491h-4.3l-3.5,3.5v4.2L34.3,510c0.4,0.4,0.9,0.6,1.4,0.6
			s1-0.2,1.4-0.6l4.9-4.9c0.8-0.8,0.8-2.1,0-2.8L30.8,491"/>
	</g>
</g>
</svg>
