<?xml version="1.0" encoding="utf-8"?>
<!-- Generator: Adobe Illustrator 21.0.2, SVG Export Plug-In . SVG Version: 6.00 Build 0)  -->
<svg version="1.1" id="Layer_1" xmlns="http://www.w3.org/2000/svg" xmlns:xlink="http://www.w3.org/1999/xlink" x="0px" y="0px"
	 viewBox="0 0 391.2 117.9" style="enable-background:new 0 0 391.2 117.9;" xml:space="preserve">
<style type="text/css">
	.st0{fill:#F7981D;}
	.st1{fill:#FFFFFF;}
</style>
<title>Amazon</title>
<path class="st0" d="M239.4,86.9c-24.8,10.4-51.4,15.9-78.4,16c-37.3,0-73.5-10.2-102.7-27.2c-2.6-1.5-4.5,1.2-2.3,3.1
	c28.2,25.4,64.8,39.4,102.7,39.2c28.4,0,61.3-8.9,84-25.7C246.4,89.4,243.2,85.2,239.4,86.9z"/>
<path class="st0" d="M225,77.4c-2,1.4-1.6,3.3,0.6,3.1c7.3-0.9,23.6-2.8,26.6,0.9c2.9,3.7-3.2,19.1-6,25.9c-0.8,2.1,0.9,2.9,2.8,1.3
	C261.2,98.4,264.3,77,261.8,74S238.1,68.3,225,77.4z"/>
<path class="st1" d="M269.5,51.5c-7-3.9-15-5-22.7-4.9l20.6-29.4c1.9-2.6,3-4.3,3-5.6V4c0-1.2-1-2.2-2.2-2.3c0,0,0,0-0.1,0h-39.8
	c-1.2,0-2.2,0.9-2.2,2.1c0,0,0,0.1,0,0.1v8.9c0,1.2,1,2.2,2.2,2.2c0,0,0.1,0,0.1,0h20.7l-23.9,34.3c-1.1,1.8-1.6,4-1.5,6.1v9
	c0,1.3,1.4,2.8,2.8,2.1c13.2-6.8,28.8-6.9,42.1-0.1c1.5,0.8,2.9-0.7,2.9-2V55C271.6,53.5,270.8,52.2,269.5,51.5z"/>
<path class="st1" d="M68.8,68.3h12.1c1.3,0,2.3-1,2.3-2.2c0,0,0,0,0,0V33.1c0-7.2-0.3-17.1,8.4-17.1s7.5,10.2,7.5,17.1v32.9
	c0,1.2,1,2.2,2.2,2.2h12.1c1.3,0,2.3-0.9,2.3-2.2c0,0,0,0,0,0V33.1c0-3.5-0.1-8.8,1.1-11.9c1.2-3,4-5,7.3-5.1c3.5,0,6.2,1.2,7.1,5.4
	c0.6,2.5,0.3,9,0.3,11.6v32.9c0,1.2,1,2.2,2.2,2.2h12.1c1.3,0.1,2.3-0.9,2.4-2.2c0,0,0,0,0-0.1V26.9c0-6.7,0.8-14.3-3.1-19.5
	c-6.1-7.8-17.3-9.1-25.1-3c-2.5,2-4.5,4.7-5.6,7.7C111,4.2,106.2,0.6,98.7,0.6s-13,3.7-15.9,11.5h-0.2V4c-0.1-1.2-1-2-2.2-2.1H69
	c-1.3,0-2.3,1-2.3,2.2v62.1C66.8,67.4,67.7,68.3,68.8,68.3z"/>
<path class="st1" d="M304.7,0.6c-17.5,0-27.2,15-27.2,34.4s9.6,34.6,27.2,34.6c16.9,0,27.7-15,27.7-34C332.4,16,322.7,0.6,304.7,0.6
	z M304.7,56.8c-9.5,0-9.4-16.2-9.4-23.8s0.6-19.7,9.5-19.7c3.9,0,6.5,1.7,7.9,6c1.6,5,1.8,11.2,1.8,16.5
	C314.5,43.7,314.1,56.8,304.7,56.8L304.7,56.8z"/>
<path class="st1" d="M388,7.9c-3.4-5.4-8.7-7.3-14.1-7.3c-8.4,0-13.1,4.1-16.5,12.6h-0.2V3.6c-0.2-1-1.1-1.7-2.1-1.7h-11.3
	c-1.2,0-2.2,0.8-2.3,2v62.2c0,1.2,1,2.2,2.2,2.2h12c1.3,0,2.3-1,2.4-2.2V32.6c0-4.2,0.2-8,1.9-11.8c1.1-2.9,3.9-4.9,7-5
	c8.4,0,7.6,9.9,7.6,16.7v33.8c0.1,1.1,1,1.9,2.1,2h12.2c1.2,0,2.2-0.8,2.3-2V27.2C391.2,21.2,391.2,12.9,388,7.9z"/>
<path class="st1" d="M194.4,26.3c-7,0.8-16.2,1.3-22.8,4.2c-7.6,3.3-12.9,10-12.9,19.8c0,12.6,7.9,18.9,18.1,18.9
	c8.6,0,13.3-2,20-8.8c2.2,3.2,2.9,4.7,6.9,8.1c0.9,0.5,2.1,0.4,2.9-0.3l0,0c2.4-2.2,6.8-6,9.3-8c1-0.8,0.8-2.1,0-3.2
	c-2.2-3.1-4.6-5.6-4.6-11.2V26.8c0-8,0.6-15.3-5.3-20.8c-4.6-4.5-12.4-6-18.2-6c-11.5,0-24.4,4.3-27.1,18.5
	c-0.2,1.2,0.5,2.3,1.7,2.5c0,0,0.1,0,0.1,0l11.8,1.3c1.1-0.2,2-1.1,2.1-2.2c1-4.9,5.1-7.3,9.7-7.3c2.5,0,5.3,0.9,6.8,3.2
	c1.7,2.5,1.5,5.9,1.5,8.8L194.4,26.3z M192.1,51.5c-1.9,3.4-5,5.5-8.4,5.5c-4.6,0-7.4-3.5-7.4-8.8c0-10.3,9.2-12.2,18-12.2v2.6
	C194.4,43.4,194.5,47.3,192.1,51.5L192.1,51.5z"/>
<path class="st1" d="M57.2,56.9c-2.2-3.1-4.6-5.6-4.6-11.2V26.8c0-8,0.6-15.3-5.3-20.8C42.7,1.6,35,0,29.1,0C17.6,0,4.7,4.3,2,18.5
	c-0.2,1.1,0.5,2.3,1.6,2.5c0.1,0,0.1,0,0.2,0l11.7,1.3c1.1-0.2,2-1.1,2.1-2.2c1-4.9,5.1-7.3,9.7-7.3c2.5,0,5.3,0.9,6.8,3.1
	c1.7,2.5,1.5,5.9,1.5,8.8v1.6c-7,0.8-16.2,1.3-22.7,4.2C5.3,33.8,0,40.5,0,50.3c0,12.6,7.9,18.9,18.1,18.9c8.6,0,13.3-2,19.9-8.8
	c2.2,3.2,2.9,4.7,6.9,8.1c0.9,0.5,2.1,0.4,2.9-0.3l0,0c2.4-2.2,6.8-6,9.3-8C58.2,59.3,58,58,57.2,56.9z M35.7,38.6
	c0,4.7,0.1,8.6-2.2,12.8c-1.9,3.4-5,5.5-8.4,5.5c-4.6,0-7.4-3.5-7.4-8.8c0-10.3,9.3-12.2,18-12.2L35.7,38.6z"/>
</svg>
