<svg height="480pt" viewBox="-46 0 480 480.00061" width="480pt" xmlns="http://www.w3.org/2000/svg"><path d="m387.679688 312v-32c0-4.417969-3.582032-8-8-8h-16v-232c0-4.417969-3.582032-8-8-8h-136v-24c0-4.417969-3.582032-8-8-8h-32c-4.417969 0-8 3.582031-8 8v24h-136c-4.417969 0-8 3.582031-8 8v232h-16c-4.417969 0-8 3.582031-8 8v32c0 4.417969 3.582031 8 8 8h65.601562l-76.210938 132c-2.207031 3.828125-.894531 8.71875 2.929688 10.929688l27.679688 16c3.828124 2.207031 8.71875.894531 10.929687-2.929688l90.085937-156h38.984376v120c0 4.417969 3.582031 8 8 8h32c4.417968 0 8-3.582031 8-8v-120h35.304687l90.085937 156c1.0625 1.835938 2.808594 3.179688 4.859376 3.726562 2.046874.550782 4.234374.261719 6.070312-.796874l27.679688-16c3.828124-2.210938 5.136718-7.101563 2.929687-10.929688l-76.191406-132h69.261719c4.417968 0 8-3.582031 8-8zm-200-296h16v16h-16zm-144 32h304v224h-304zm-10.917969 413.070312-13.839844-8 76.8125-133.070312h18.480469zm170.917969-29.070312h-16v-112h16zm165.082031 21.070312-13.839844 8-81.457031-141.070312h18.480468zm2.917969-149.070312h-352v-16h352zm0 0"/></svg>