<?xml version="1.0" encoding="utf-8"?>
<!-- Generator: Adobe Illustrator 22.0.0, SVG Export Plug-In . SVG Version: 6.00 Build 0)  -->
<svg version="1.1" id="Layer_1" xmlns="http://www.w3.org/2000/svg" xmlns:xlink="http://www.w3.org/1999/xlink" x="0px" y="0px"
	 viewBox="0 0 480 480" style="enable-background:new 0 0 480 480;" xml:space="preserve">
<style type="text/css">
	.st0{fill:#F49800;}
</style>
<path class="st0" d="M433.7,312v-32c0-4.4-3.6-8-8-8h-16V40c0-4.4-3.6-8-8-8h-136V8c0-4.4-3.6-8-8-8h-32c-4.4,0-8,3.6-8,8v24h-136
	c-4.4,0-8,3.6-8,8v232h-16c-4.4,0-8,3.6-8,8v32c0,4.4,3.6,8,8,8h65.6L47.1,452c-2.2,3.8-0.9,8.7,2.9,10.9l27.7,16
	c3.8,2.2,8.7,0.9,10.9-2.9l90.1-156h39v120c0,4.4,3.6,8,8,8h32c4.4,0,8-3.6,8-8V320H301l90.1,156c1.1,1.8,2.8,3.2,4.9,3.7
	c2,0.6,4.2,0.3,6.1-0.8l27.7-16c3.8-2.2,5.1-7.1,2.9-10.9l-76.2-132h69.3C430.1,320,433.7,316.4,433.7,312z M233.7,16h16v16h-16V16z
	 M89.7,48h304v224h-304V48z M78.8,461.1l-13.8-8L141.7,320h18.5L78.8,461.1z M249.7,432h-16V320h16V432z M414.8,453.1l-13.8,8
	L319.5,320h18.5L414.8,453.1z M417.7,304h-352v-16h352V304z"/>
</svg>
