<?xml version="1.0" encoding="utf-8"?>
<!-- Generator: Adobe Illustrator 22.0.0, SVG Export Plug-In . SVG Version: 6.00 Build 0)  -->
<svg version="1.1" id="Layer_1" xmlns="http://www.w3.org/2000/svg" xmlns:xlink="http://www.w3.org/1999/xlink" x="0px" y="0px"
	 viewBox="0 0 64 64" style="enable-background:new 0 0 64 64;" xml:space="preserve">
<style type="text/css">
	.st0{fill:#F49800;}
</style>
<g id="Info-file">
	<path class="st0" d="M37.5,50h-4V34c0-0.6-0.4-1-1-1h-4c-0.6,0-1,0.4-1,1c0,0.6,0.4,1,1,1h3v15h-4c-0.6,0-1,0.5-1,1
		c0,0.6,0.5,1,1,1h10c0.6,0,1-0.5,1-1C38.5,50.4,38.1,50,37.5,50z"/>
	<circle class="st0" cx="31.5" cy="25" r="3"/>
	<path class="st0" d="M56.6,15.8L41.1,0.3C40.9,0.1,40.7,0,40.4,0L10.1,0C8.4,0,7,1.3,7,3v57.9c0,0.8,0.4,1.6,1,2.2
		c0.6,0.6,1.5,0.9,2.3,0.9h43.6c0.8,0,1.6-0.3,2.2-0.9c0.6-0.6,0.9-1.3,0.9-2.1V16.5C57,16.2,56.8,16,56.6,15.8z M40.1,2.1L54,16H40
		C40.1,7.7,40.1,3.9,40.1,2.1z M55,61c0,0.3-0.2,0.5-0.3,0.7c-0.2,0.2-0.5,0.3-0.7,0.3H10.3c-0.3,0-0.7-0.1-0.9-0.3
		C9.2,61.5,9,61.2,9,60.9V3c0-0.5,0.5-1,1.1-1l28,0c0,2.5,0,10.1,0,15c0,0.3,0.1,0.5,0.3,0.7c0.2,0.2,0.5,0.3,0.7,0.3h16V61z"/>
</g>
</svg>
