<?xml version="1.0" encoding="utf-8"?>
<!-- Generator: Adobe Illustrator 22.0.0, SVG Export Plug-In . SVG Version: 6.00 Build 0)  -->
<svg version="1.1" id="Capa_1" xmlns="http://www.w3.org/2000/svg" xmlns:xlink="http://www.w3.org/1999/xlink" x="0px" y="0px"
	 viewBox="0 0 512 512" style="enable-background:new 0 0 512 512;" xml:space="preserve">
<style type="text/css">
	.st0{fill:#F49800;}
</style>
<g>
	<g>
		<g>
			<ellipse transform="matrix(0.1602 -0.9871 0.9871 0.1602 -270.6671 665.869)" class="st0" cx="256" cy="492" rx="20" ry="20"/>
			<path class="st0" d="M413,155.8C412.3,69.8,342.1,0,256,0C169.4,0,99,70.4,99,157c0,11,9,20,20,20s20-9,20-20
				c0-64.5,52.5-117,117-117s117,52.5,117,117c0,0.4,0,0.7,0,1.1c-0.4,46.6-28.2,88.3-71.1,106.7c-40,17.1-65.9,56.7-65.9,100.8V412
				c0,11,9,20,20,20c11,0,20-9,20-20v-46.4c0-28.1,16.3-53.3,41.6-64.1C375.6,276.8,413,220,413,157C413,156.6,413,156.2,413,155.8z
				"/>
		</g>
	</g>
</g>
</svg>
