<?xml version="1.0" encoding="utf-8"?>
<!-- Generator: Adobe Illustrator 21.0.2, SVG Export Plug-In . SVG Version: 6.00 Build 0)  -->
<svg version="1.1" id="Layer_1" xmlns="http://www.w3.org/2000/svg" xmlns:xlink="http://www.w3.org/1999/xlink" x="0px" y="0px"
	 viewBox="0 0 853.3 533.3" style="enable-background:new 0 0 853.3 533.3;" xml:space="preserve">
<style type="text/css">
	.st0{fill:none;}
	.st1{enable-background:new    ;}
	.st2{opacity:0.15;}
	.st3{fill:#FFFFFF;}
	.st4{clip-path:url(#SVGID_2_);}
	.st5{clip-path:url(#SVGID_4_);}
	.st6{fill:#FFFFFF;fill-opacity:0;}
	.st7{opacity:0.9;enable-background:new    ;}
	.st8{clip-path:url(#SVGID_6_);}
	.st9{display:none;}
	.st10{display:inline;fill:#1A1A1A;fill-opacity:0;}
	.st11{display:inline;opacity:0.6;}
	.st12{font-family:'AmazonEmber-Regular';}
	.st13{font-size:13.82px;}
	.st14{display:inline;}
	.st15{display:inline;opacity:0.9;}
	.st16{font-family:'AmazonEmber-Thin';}
	.st17{font-size:51.86px;}
	.st18{fill:none;stroke:#000000;stroke-width:0.5;stroke-miterlimit:10;}
	.st19{font-size:14px;}
	.st20{font-family:'AmazonEmber-Bold';}
	.st21{font-size:12px;}
	.st22{clip-path:url(#SVGID_8_);}
	.st23{clip-path:url(#SVGID_10_);}
	.st24{clip-path:url(#SVGID_12_);}
	.st25{clip-path:url(#SVGID_14_);}
	.st26{display:inline;opacity:0.6;enable-background:new    ;}
	.st27{font-family:'AmazonEmber-Italic';}
	.st28{font-size:16px;}
	.st29{opacity:0.3;enable-background:new    ;}
	.st30{display:inline;opacity:0.9;enable-background:new    ;}
	.st31{font-size:13.15px;}
	.st32{display:inline;fill:none;}
	.st33{fill:#7F7F7F;}
	.st34{display:none;fill:url(#SVGID_15_);}
	.st35{display:none;fill:url(#SVGID_16_);}
	.st36{fill:url(#SVGID_17_);}
	.st37{fill:url(#SVGID_18_);}
	.st38{fill:url(#SVGID_19_);}
	.st39{fill:url(#SVGID_20_);}
	.st40{display:inline;fill:url(#SVGID_21_);}
	.st41{display:none;fill:none;stroke:#FFFFFF;stroke-width:1.1021;stroke-miterlimit:10;}
</style>
<symbol  id="CAMERA" viewBox="-24 -24 48.1 48">
	<rect x="-24" y="-24" class="st0" width="48" height="48"/>
	<path d="M-0.2-7c-5.5,0-10,4.5-10,10s4.5,10,10,10s10-4.5,10-10S5.4-7-0.2-7z"/>
	<path d="M11.8-14c-1.2-0.1-2.2-0.8-2.7-1.9l-1.6-4.3C7-21.3,6-22,4.8-22.1h-10c-1.2,0.1-2.2,0.8-2.7,1.9l-1.6,4.3
		c-0.5,1.1-1.5,1.8-2.7,1.9h-10c-1.1,0-1.9,0.9-1.9,1.9c0,0,0,0,0,0.1v32c0,1.1,0.8,2,1.9,2c0,0,0,0,0.1,0h44c1.1,0,2-0.9,2.1-2v-32
		c0-1.1-1-2-2.1-2H11.8z M-18.2-7c-1.1,0-2-0.9-2-2s0.9-2,2-2c1.1,0,2,0.9,2,2S-17-7-18.2-7L-18.2-7z M-0.2,17c-7.7,0-14-6.3-14-14
		s6.3-14,14-14s14,6.3,14,14S7.6,17-0.2,17L-0.2,17z"/>
</symbol>
<symbol  id="LOCK" viewBox="-24 -24 48 48">
	<rect x="-24" y="-24" class="st0" width="48" height="48"/>
	<path d="M12-4v-8c0-6.6-5.4-12-12-12s-12,5.4-12,12v8h-7v28h38V-4H12z M-8-12c0-4.4,3.6-8,8-8s8,3.6,8,8v8H-8V-12z"/>
</symbol>
<symbol  id="Left_status_bar_icons" viewBox="-174.6 -17.5 349.2 35">
	<text transform="matrix(1 0 0 1 -158.5898 -0.5)" class="st12 st19">Je</text>
	<text transform="matrix(1 0 0 1 -145.0703 -0.5)" class="st12 st19">ff</text>
	<text transform="matrix(1 0 0 1 -134.7803 -0.5)" class="st12 st19">&apos;</text>
	<text transform="matrix(1 0 0 1 -132.3096 -0.5)" class="st12 st19">s 7th Fi</text>
	<text transform="matrix(1 0 0 1 -86.2197 -0.5)" class="st12 st19">r</text>
	<text transform="matrix(1 0 0 1 -81.1396 -0.5)" class="st12 st19">e</text>
	<rect x="-33.6" y="-17.5" class="st0" width="14" height="24"/>
	
		<use xlink:href="#twitter_icon"  width="14" height="24" id="twitter_icon-3_2_" x="-7" y="-12" transform="matrix(1 0 0 1 167.59 5.5)" style="overflow:visible;"/>
	
		<use xlink:href="#twitter_icon"  width="14" height="24" x="-7" y="-12" transform="matrix(1 0 0 1 39.59 -5.5)" style="overflow:visible;"/>
	<polygon points="54.6,-10.5 54.6,-8.7 61.6,-5 68.6,-8.7 68.6,-10.5 	"/>
	<polygon points="61.6,-3.7 54.6,-7.3 54.6,-0.5 68.6,-0.5 68.6,-7.3 	"/>
	<rect x="54.6" y="-17.5" class="st0" width="14" height="24"/>
	<g class="st2">
		<circle class="st3" cx="-49.6" cy="-4" r="8"/>
	</g>
	<circle cx="-49.6" cy="-5.5" r="8"/>
	<text transform="matrix(1.02 0 0 1 -53.1602 -1.5)" class="st3 st20 st21">2</text>
	<rect x="-57.6" y="-17.5" class="st0" width="16" height="24"/>
	<rect x="-174.6" y="-17.5" class="st0" width="302" height="24"/>
	<g>
		<g>
			<defs>
				<rect id="SVGID_1_" x="-33.6" y="-12.5" width="14" height="14"/>
			</defs>
			<clipPath id="SVGID_2_">
				<use xlink:href="#SVGID_1_"  style="overflow:visible;"/>
			</clipPath>
			<g class="st4">
				<path d="M-20.2-11h-2.3v-1.2c0-0.2-0.1-0.3-0.3-0.3H-24c-0.2,0-0.3,0.1-0.3,0.3v1.2H-29v-1.2c0.1-0.2-0.1-0.3-0.2-0.3h-1.2
					c-0.2,0-0.3,0.1-0.3,0.3v1.2H-33c-0.3,0-0.6,0.2-0.6,0.5V0.9c0,0.3,0.3,0.6,0.6,0.6h12.8c0.3,0,0.6-0.3,0.6-0.6v-11.4
					C-19.6-10.8-19.9-11.1-20.2-11 M-20.8,0.3h-11.6V-9.9h1.8v1.8c0,0.2,0.1,0.3,0.3,0.3h1.2c0.2,0,0.3-0.1,0.3-0.3v-1.8h4.7v1.8
					c0,0.2,0.1,0.3,0.3,0.3h1.2c0.2,0,0.3-0.1,0.3-0.3v-1.8h1.8L-20.8,0.3z"/>
				<rect x="-28.4" y="-6.7" width="1.2" height="1.2"/>
				<rect x="-26" y="-6.7" width="1.2" height="1.2"/>
				<rect x="-23.7" y="-6.7" width="1.2" height="1.2"/>
				<rect x="-30.7" y="-4.3" width="1.2" height="1.2"/>
				<rect x="-28.4" y="-4.3" width="1.2" height="1.2"/>
				<rect x="-26" y="-4.3" width="1.2" height="1.2"/>
				<rect x="-23.7" y="-4.3" width="1.2" height="1.2"/>
				<rect x="-30.7" y="-2" width="1.2" height="1.2"/>
				<rect x="-28.4" y="-2" width="1.2" height="1.2"/>
				<rect x="-26" y="-2" width="1.2" height="1.2"/>
				<rect x="-23.7" y="-2" width="1.2" height="1.2"/>
			</g>
		</g>
	</g>
	<rect x="-33.6" y="-17.5" class="st0" width="14" height="24"/>
	<g>
		<g>
			<defs>
				<rect id="SVGID_3_" x="-11.6" y="-12.5" width="14" height="14"/>
			</defs>
			<clipPath id="SVGID_4_">
				<use xlink:href="#SVGID_3_"  style="overflow:visible;"/>
			</clipPath>
			<g class="st5">
				<path d="M1.3-12.2h-11.9c-0.4,0-0.7,0.4-0.7,0.8V0.5c0,0.4,0.3,0.7,0.7,0.7l0,0H-4V-4h-2v-2h2v-1.5c-0.1-1.3,0.8-2.5,2.1-2.7
					c0.1,0,0.3,0,0.4,0c0.5,0,1,0,1.5,0.1v2h-1.2c-0.8,0-0.9,0.3-0.9,0.9V-6h1.9l-0.3,2h-1.6v5.2h3.3C1.6,1.2,2,0.9,2,0.5v-11.9
					C2-11.8,1.7-12.2,1.3-12.2"/>
			</g>
		</g>
	</g>
	<rect x="-11.6" y="-17.5" class="st0" width="14" height="24"/>
</symbol>
<symbol  id="f_ic_ad_browsing" viewBox="-12 -12 24 24">
	<rect x="-12" y="-12" class="st6" width="24" height="24"/>
	<path class="st7" d="M-5.5-11L-9-7.5v4.2L2.3,8.1c0.8,0.8,2,0.8,2.8,0l0,0l5-4.9c0.8-0.8,0.8-2,0-2.8l0,0L-1.2-11H-5.5z M-3-5
		c-0.6,0.6-1.5,0.6-2.1,0s-0.6-1.5,0-2.1s1.5-0.6,2.1,0l0,0C-2.4-6.5-2.4-5.6-3-5z M-7,11h-2c-1.1,0-2-0.9-2-2V0L-7,11z M0.4,9.7
		l-2.7,1.1c-1,0.4-2.2,0-2.6-1c0,0,0,0,0-0.1l-3.8-9.2L0.4,9.7z"/>
</symbol>
<symbol  id="ic_alarm_clock" viewBox="-24 -24 48 48">
	<rect x="-24" y="-24" class="st0" width="48" height="48"/>
	<path d="M18.8,3.5c0-9.9-7.9-18-17.8-18.5v-3h2l1-1v-4l-1-1h-6l-1,1v4l1,1h1v3.1C-12.1-13.7-19.3-4.5-18.1,5.5
		c0.5,4,2.2,7.7,5,10.6l-4.4,4.5l2.9,2.8l4.6-4.7c6.1,4.2,14,4.3,20.3,0.4l4.3,4.3l2.8-2.8l-4-3.9C16.8,13.2,18.8,8.4,18.8,3.5z
		 M-14,3.5C-14-4.5-7.5-11,0.5-11S15-4.5,15,3.5S8.5,18,0.5,18S-14,11.5-14,3.5z"/>
	<polygon points="2,-5 -2,-5 -2,5 6.3,7.5 7.5,3.6 2,2 	"/>
	<path d="M-11.7-21.6L-11.7-21.6L-12-22h-0.1c-1.6-1.5-5-1-7.9,1.2s-4.3,5.4-3.4,7.3l0,0l2.8,3.8l11.4-8.5L-11.7-21.6z"/>
	<path d="M19.9-20.8C17-23,13.6-23.4,12-22l0,0l-0.3,0.4l0,0l-2.6,3.4l11.4,8.5l2.8-3.8l0,0C24.3-15.4,22.9-18.6,19.9-20.8z"/>
</symbol>
<symbol  id="twitter_icon" viewBox="-7 -12 14 24">
	<g>
		<g>
			<defs>
				<rect id="SVGID_5_" x="-7" y="-7" width="14" height="14"/>
			</defs>
			<clipPath id="SVGID_6_">
				<use xlink:href="#SVGID_5_"  style="overflow:visible;"/>
			</clipPath>
			<g class="st8">
				<path d="M6.7-4.1c-0.5,0.2-1,0.4-1.6,0.4c0.6-0.3,1-0.9,1.2-1.5C5.8-4.9,5.2-4.7,4.6-4.6c-1-1.1-2.8-1.2-3.9-0.1
					C0-4-0.3-3-0.1-2.1C-2.3-2.2-4.4-3.2-5.8-5C-6-4.5-6.1-4-6.2-3.5c0,0.9,0.5,1.8,1.2,2.3c-0.4,0-0.9-0.1-1.2-0.3l0,0
					c0,1.3,0.9,2.4,2.2,2.7c-0.4,0.1-0.8,0.1-1.3,0C-4.8,2.2-3.8,3-2.6,3c-1,0.8-2.1,1.2-3.4,1.3c-0.2,0-0.4,0-0.7,0
					C-5.4,5-3.9,5.5-2.4,5.5c4.3,0,7.8-3.4,7.8-7.7v-0.1c0-0.1,0-0.2,0-0.4C5.9-3.1,6.4-3.5,6.7-4.1"/>
			</g>
		</g>
	</g>
	<rect x="-7" y="-12" class="st0" width="14" height="24"/>
</symbol>
<title>Gen7UI</title>
<g id="OBJECTS" class="st9">
	<rect x="-1" y="1" class="st10" width="854" height="534"/>
	<g class="st11">
		<text transform="matrix(1 0 0 1 19 130.7)" class="st12 st13">Mon, Dec 8</text>
	</g>
	<text transform="matrix(1 0 0 1 129.39 131.09)" class="st14 st12 st13">T</text>
	<text transform="matrix(1 0 0 1 136.56 131.09)" class="st14 st12 st13">ue 9:00 AM</text>
	
		<use xlink:href="#ic_alarm_clock"  width="48" height="48" id="ic_alarm_clock-3" x="-24" y="-24" transform="matrix(0.29 0 0 0.29 115.77 125.96)" style="display:inline;overflow:visible;"/>
	<g class="st15">
		<text transform="matrix(1 0 0 1 20.01 103.9)" class="st16 st17">12:28</text>
		<text transform="matrix(1 0 0 1 20.01 103.9)" class="st18 st16 st17">12:28</text>
	</g>
	<g class="st14">
		<text transform="matrix(1 0 0 -1 15 179)" class="st12 st19">Je</text>
		<text transform="matrix(1 0 0 -1 28.52 179)" class="st12 st19">ff</text>
		<text transform="matrix(1 0 0 -1 38.81 179)" class="st12 st19">&apos;</text>
		<text transform="matrix(1 0 0 -1 41.28 179)" class="st12 st19">s 7th Fi</text>
		<text transform="matrix(1 0 0 -1 87.37 179)" class="st12 st19">r</text>
		<text transform="matrix(1 0 0 -1 92.45 179)" class="st12 st19">e</text>
		<rect x="140" y="172" class="st0" width="14" height="24"/>
		<rect x="162" y="172" class="st0" width="14" height="24"/>
		
			<use xlink:href="#twitter_icon"  width="14" height="24" id="twitter_icon-3" x="-7" y="-12" transform="matrix(1 0 0 -1 191.18 184)" style="overflow:visible;"/>
		
			<use xlink:href="#twitter_icon"  width="14" height="24" x="-7" y="-12" transform="matrix(1 0 0 -1 213.18 184)" style="overflow:visible;"/>
		<polygon points="228.2,189 228.2,187.2 235.2,183.5 242.2,187.2 242.2,189 		"/>
		<polygon points="235.2,182.2 228.2,185.8 228.2,179 242.2,179 242.2,185.8 		"/>
		<rect x="228.2" y="172" class="st0" width="14" height="24"/>
		<g class="st2">
			<circle class="st3" cx="124" cy="182.5" r="8"/>
		</g>
		<circle cx="124" cy="184" r="8"/>
		<text transform="matrix(1.02 0 0 -1 120.4297 180)" class="st3 st20 st21">2</text>
		<rect x="116" y="172" class="st0" width="16" height="24"/>
		<rect x="-1" y="172" class="st0" width="302" height="24"/>
		<g>
			<g>
				<defs>
					<rect id="SVGID_7_" x="140" y="177" width="14" height="14"/>
				</defs>
				<clipPath id="SVGID_8_">
					<use xlink:href="#SVGID_7_"  style="overflow:visible;"/>
				</clipPath>
				<g class="st22">
					<path d="M153.4,189.5h-2.3v1.2c0,0.2-0.1,0.3-0.3,0.3h-1.2c-0.2,0-0.3-0.1-0.3-0.3v-1.2h-4.7v1.2c0,0.2-0.1,0.3-0.3,0.3h-1.2
						c-0.2,0-0.3-0.1-0.3-0.3v-1.2h-2.3c-0.3,0-0.6-0.2-0.6-0.5v-11.4c0-0.3,0.3-0.6,0.6-0.6h12.8c0.3,0,0.6,0.3,0.6,0.6V189
						C154,189.3,153.7,189.6,153.4,189.5 M152.8,178.2h-11.7v10.2h1.8v-1.8c0-0.2,0.1-0.3,0.3-0.3h1.2c0.2,0,0.3,0.1,0.3,0.3v1.8
						h4.7v-1.8c0-0.2,0.1-0.3,0.3-0.3h1.2c0.2,0,0.3,0.1,0.3,0.3v1.8h1.8L152.8,178.2z"/>
					<rect x="145.2" y="184" width="1.2" height="1.2"/>
					<rect x="147.6" y="184" width="1.2" height="1.2"/>
					<rect x="149.9" y="184" width="1.2" height="1.2"/>
					<rect x="142.9" y="181.7" width="1.2" height="1.2"/>
					<rect x="145.2" y="181.7" width="1.2" height="1.2"/>
					<rect x="147.6" y="181.7" width="1.2" height="1.2"/>
					<rect x="149.9" y="181.7" width="1.2" height="1.2"/>
					<rect x="142.9" y="179.3" width="1.2" height="1.2"/>
					<rect x="145.2" y="179.3" width="1.2" height="1.2"/>
					<rect x="147.6" y="179.3" width="1.2" height="1.2"/>
					<rect x="149.9" y="179.3" width="1.2" height="1.2"/>
				</g>
			</g>
		</g>
		<rect x="140" y="172" class="st0" width="14" height="24"/>
		<g>
			<g>
				<defs>
					<rect id="SVGID_9_" x="162" y="177" width="14" height="14"/>
				</defs>
				<clipPath id="SVGID_10_">
					<use xlink:href="#SVGID_9_"  style="overflow:visible;"/>
				</clipPath>
				<g class="st23">
					<path d="M174.9,190.7H163c-0.4,0-0.7-0.4-0.7-0.8V178c0-0.4,0.3-0.7,0.7-0.7l0,0h6.6v5.3h-2v2h2v1.5c-0.1,1.3,0.8,2.5,2.1,2.7
						c0.1,0,0.3,0,0.4,0c0.5,0,1,0,1.5-0.1v-2h-1.2c-0.8,0-0.9-0.3-0.9-0.9v-1.2h1.9l-0.3-2h-1.6v-5.2h3.3c0.4,0,0.8,0.3,0.8,0.7
						v11.8C175.6,190.3,175.3,190.7,174.9,190.7"/>
				</g>
			</g>
		</g>
		<rect x="162" y="172" class="st0" width="14" height="24"/>
	</g>
	<g class="st14">
		<text transform="matrix(1 0 0 -1 -135 190)" class="st12 st19">Je</text>
		<text transform="matrix(1 0 0 -1 -121.4805 190)" class="st12 st19">ff</text>
		<text transform="matrix(1 0 0 -1 -111.1904 190)" class="st12 st19">&apos;</text>
		<text transform="matrix(1 0 0 -1 -108.7197 190)" class="st12 st19">s 7th Fi</text>
		<text transform="matrix(1 0 0 -1 -62.6299 190)" class="st12 st19">r</text>
		<text transform="matrix(1 0 0 -1 -57.5498 190)" class="st12 st19">e</text>
		<rect x="-10" y="183" class="st0" width="14" height="24"/>
		
			<use xlink:href="#twitter_icon"  width="14" height="24" id="twitter_icon-3_1_" x="-7" y="-12" transform="matrix(1 0 0 -1 191.18 184)" style="overflow:visible;"/>
		
			<use xlink:href="#twitter_icon"  width="14" height="24" x="-7" y="-12" transform="matrix(1 0 0 -1 63.18 195)" style="overflow:visible;"/>
		<polygon points="78.2,200 78.2,198.2 85.2,194.5 92.2,198.2 92.2,200 		"/>
		<polygon points="85.2,193.2 78.2,196.8 78.2,190 92.2,190 92.2,196.8 		"/>
		<rect x="78.2" y="183" class="st0" width="14" height="24"/>
		<g class="st2">
			<circle class="st3" cx="-26" cy="193.5" r="8"/>
		</g>
		<circle cx="-26" cy="195" r="8"/>
		<text transform="matrix(1.02 0 0 -1 -29.5703 191)" class="st3 st20 st21">2</text>
		<rect x="-34" y="183" class="st0" width="16" height="24"/>
		<rect x="-151" y="183" class="st0" width="302" height="24"/>
		<g>
			<g>
				<defs>
					<rect id="SVGID_11_" x="-10" y="188" width="14" height="14"/>
				</defs>
				<clipPath id="SVGID_12_">
					<use xlink:href="#SVGID_11_"  style="overflow:visible;"/>
				</clipPath>
				<g class="st24">
					<path d="M3.4,200.5H1.1v1.2c0,0.2-0.1,0.3-0.3,0.3h-1.2c-0.2,0-0.3-0.1-0.3-0.3v-1.2h-4.7v1.2c0.1,0.2-0.1,0.3-0.2,0.3h-1.2
						c-0.2,0-0.3-0.1-0.3-0.3v-1.2h-2.3c-0.3,0-0.6-0.2-0.6-0.5v-11.4c0-0.3,0.3-0.6,0.6-0.6H3.4c0.3,0,0.6,0.3,0.6,0.6V200
						C4,200.3,3.7,200.6,3.4,200.5 M2.8,189.2H-8.8v10.2H-7v-1.8c0-0.2,0.1-0.3,0.3-0.3h1.2c0.2,0,0.3,0.1,0.3,0.3v1.8h4.7v-1.8
						c0-0.2,0.1-0.3,0.3-0.3H1c0.2,0,0.3,0.1,0.3,0.3v1.8h1.8L2.8,189.2z"/>
					<rect x="-4.8" y="195" width="1.2" height="1.2"/>
					<rect x="-2.4" y="195" width="1.2" height="1.2"/>
					<rect x="-0.1" y="195" width="1.2" height="1.2"/>
					<rect x="-7.1" y="192.6" width="1.2" height="1.2"/>
					<rect x="-4.8" y="192.6" width="1.2" height="1.2"/>
					<rect x="-2.4" y="192.6" width="1.2" height="1.2"/>
					<rect x="-0.1" y="192.6" width="1.2" height="1.2"/>
					<rect x="-7.1" y="190.3" width="1.2" height="1.2"/>
					<rect x="-4.8" y="190.3" width="1.2" height="1.2"/>
					<rect x="-2.4" y="190.3" width="1.2" height="1.2"/>
					<rect x="-0.1" y="190.3" width="1.2" height="1.2"/>
				</g>
			</g>
		</g>
		<rect x="-10" y="183" class="st0" width="14" height="24"/>
		<g>
			<g>
				<defs>
					<rect id="SVGID_13_" x="12" y="188" width="14" height="14"/>
				</defs>
				<clipPath id="SVGID_14_">
					<use xlink:href="#SVGID_13_"  style="overflow:visible;"/>
				</clipPath>
				<g class="st25">
					<path d="M24.9,201.7H13c-0.4,0-0.7-0.4-0.7-0.8V189c0-0.4,0.3-0.7,0.7-0.7l0,0h6.6v5.2h-2v2h2v1.5c-0.1,1.3,0.8,2.5,2.1,2.7
						c0.1,0,0.3,0,0.4,0c0.5,0,1,0,1.5-0.1v-2h-1.2c-0.8,0-0.9-0.3-0.9-0.9v-1.2h1.9l-0.3-2h-1.6v-5.2h3.3c0.4,0,0.8,0.3,0.8,0.7
						v11.9C25.6,201.3,25.3,201.7,24.9,201.7"/>
				</g>
			</g>
		</g>
		<rect x="12" y="183" class="st0" width="14" height="24"/>
	</g>
	
		<use xlink:href="#Left_status_bar_icons"  width="349.2" height="35" id="Left_status_bar_icons-3" x="-174.6" y="-17.5" transform="matrix(0.6857 0 0 -0.6857 0 195)" style="display:inline;overflow:visible;"/>
	
		<use xlink:href="#CAMERA"  width="48.1" height="48" id="CAMERA-3" x="-24" y="-24" transform="matrix(0.499 0 0 0.499 819 503)" style="display:inline;overflow:visible;"/>
	
		<use xlink:href="#LOCK"  width="48" height="48" id="LOCK-3" x="-24" y="-24" transform="matrix(0.5 0 0 0.5 425 503)" style="display:inline;overflow:visible;"/>
	<text transform="matrix(1 0 0 1 326.8 458.54)" class="st26 st27 st28">S</text>
	<text transform="matrix(1 0 0 1 335.14 458.54)" class="st14 st27 st28">wipe right to browse offers</text>
	<g class="st15">
		<path class="st29" d="M706.9,34.3c-3.5,0-6.9,1.4-9.4,4l1.2,1.1c4.3-4.5,11.5-4.7,16-0.4c0.1,0.1,0.2,0.2,0.4,0.4l1.2-1.1
			C713.9,35.7,710.5,34.3,706.9,34.3z"/>
		<path d="M706.9,37.1c-2.8,0-5.4,1.1-7.3,3.1l1.2,1.1c3.2-3.4,8.6-3.5,12-0.3c0.1,0.1,0.2,0.2,0.3,0.3l1.2-1.1
			C712.3,38.2,709.7,37.1,706.9,37.1z"/>
		<path d="M706.9,40c-2,0-3.9,0.8-5.3,2.2l1.2,1.1c2.2-2.3,5.7-2.3,8-0.2c0.1,0.1,0.1,0.1,0.2,0.2l1.2-1.1
			C710.8,40.8,708.9,40,706.9,40z"/>
		<path d="M706.9,42.8c-1.2,0-2.4,0.5-3.2,1.4l1.2,1.1c1.1-1.1,2.9-1.2,4-0.1l0.1,0.1l1.2-1.1C709.3,43.3,708.2,42.8,706.9,42.8z"/>
		<rect x="697.5" y="28.5" class="st0" width="18.8" height="22.5"/>
	</g>
	<g class="st15">
		<rect x="659" y="28.5" class="st0" width="9.4" height="22.5"/>
		<path d="M667,42.5l-2.8-2.7l2.8-2.5l-4.1-4.1v5.4l-2-2l-0.7,0.8l2.5,2.4l-2.5,2.3l0.7,0.8l2-1.9v5.2L667,42.5z M663.8,35.9
			l1.4,1.4l-1.4,1.3V35.9z M663.8,41.2l1.4,1.3l-1.4,1.2V41.2z"/>
	</g>
	<text transform="matrix(1 0 0 1 723.32 44.48)" class="st30 st12 st31">99%</text>
	<g class="st15">
		<path d="M759.5,37.1c-0.4,0-0.7,0.3-0.7,0.7v4c0,0.4,0.3,0.7,0.7,0.7h10v-5.3L759.5,37.1z"/>
		<path d="M776.3,37.6h-0.9v-2.2c0-0.5-0.4-0.9-0.9-0.9h-18.1c-0.5,0-0.9,0.4-0.9,0.9v8.8c0,0.5,0.4,0.9,0.9,0.9h18.1
			c0.5,0,0.9-0.4,0.9-0.9V42h0.9c0.2,0,0.4-0.2,0.4-0.4l0,0V38C776.7,37.8,776.5,37.6,776.3,37.6z M774.1,43.8h-17.2v-8h17.2V43.8
			L774.1,43.8z"/>
		<rect x="754.8" y="28.5" class="st0" width="22.5" height="22.5"/>
	</g>
	<path class="st14" d="M688.4,40.8c0-2.7-2.2-5-4.9-5.2v-0.7h0.5l0.5-0.5v-0.9L684,33h-1.8l-0.5,0.5v0.9l0.5,0.5h0.5v0.8
		c-2.8,0.3-4.9,2.8-4.6,5.7c0.1,1.1,0.6,2.2,1.4,3l-1.2,1.2l0.8,0.8l1.3-1.3c1.7,1.2,3.9,1.2,5.7,0.1l1.2,1.2l0.8-0.8l-1.1-1.1
		C687.8,43.6,688.4,42.2,688.4,40.8z M679.1,40.8c0-2.2,1.8-4.1,4-4.1s4.1,1.8,4.1,4s-1.8,4.1-4,4.1l0,0
		C680.9,44.9,679.1,43.1,679.1,40.8z"/>
	<polygon class="st14" points="683.5,38.5 682.4,38.5 682.4,41.1 684.7,41.8 685,40.8 683.5,40.3 	"/>
	<path class="st14" d="M679.8,33.8L679.8,33.8L679.8,33.8L679.8,33.8c-0.5-0.5-1.5-0.4-2.3,0.2s-1.2,1.5-1,2l0,0l0.8,1.1l3.2-2.4
		L679.8,33.8z"/>
	<path class="st14" d="M688.6,34.1c-0.8-0.6-1.8-0.7-2.2-0.3l0,0l-0.1,0.1l0,0l-0.7,1l3.2,2.4l0.8-1.1l0,0
		C689.9,35.5,689.5,34.7,688.6,34.1z"/>
	<rect x="675.9" y="28.5" class="st32" width="14.1" height="22.5"/>
	
		<use xlink:href="#f_ic_ad_browsing"  width="24" height="24" id="f_ic_ad_browsing-3" x="-12" y="-12" transform="matrix(1 0 0 1 31 503)" style="display:inline;overflow:visible;"/>
</g>
<g>
	<polygon points="814.1,4 0.8,4 0.8,75.2 814.1,75.2 814.1,498.3 0.8,498.3 0.8,529.7 851.7,529.7 851.7,509.2 851.7,498.3 
		851.7,32.8 851.7,4 	"/>
	<g>
		<g>
			<g>
				<g>
					<g>
						<path class="st33" d="M831,496.8l-7.3,6.8v5.7h5.4v-3.4c0-1,0.9-1.9,1.9-1.9s1.9,0.9,1.9,1.9v3.4h5.4v-5.7L831,496.8z"/>
						<g>
							<polygon class="st33" points="839.9,503.6 831,495.4 822.2,503.6 821,502.3 831,492.9 841.1,502.3 							"/>
						</g>
					</g>
				</g>
				<g>
					<polygon class="st33" points="840.2,266.4 826.3,266.4 831.4,261.3 829.8,259.7 821.9,267.5 829.8,275.4 831.4,273.8 
						826.3,268.7 840.2,268.7 					"/>
				</g>
			</g>
		</g>
	</g>
	<g>
		<g>
			<path class="st3" d="M8,19.5c0.5,0.2,1,0.3,1.4,0.3c0.6,0,1-0.1,1.2-0.4S11,18.7,11,18v-6.1h0.7V18c0,0.8-0.2,1.4-0.6,1.9
				c-0.4,0.4-1,0.6-1.7,0.6c-0.5,0-1-0.1-1.4-0.3C8,20.2,8,19.5,8,19.5z"/>
			<path class="st3" d="M14.1,17.3c0,0.8,0.2,1.5,0.6,1.9c0.4,0.4,0.9,0.6,1.7,0.6c0.7,0,1.4-0.1,2-0.4V20c-0.6,0.3-1.2,0.5-2,0.5
				c-1,0-1.7-0.3-2.2-0.8s-0.7-1.3-0.7-2.4c0-1,0.2-1.8,0.7-2.4c0.5-0.6,1.2-0.8,2-0.8c0.7,0,1.3,0.2,1.7,0.6c0.4,0.4,0.6,1,0.6,1.8
				c0,0.4,0,0.7-0.1,0.9h-4.3V17.3z M16.1,14.6c-1.3,0-1.9,0.7-2,2.2h3.7c0-0.1,0-0.2,0-0.4c0-0.6-0.1-1-0.4-1.3
				C17,14.8,16.6,14.6,16.1,14.6z"/>
			<path class="st3" d="M24.3,20.2v-5.4h-3.2v5.4h-0.7v-5.4h-1.2v-0.5l1.2-0.1v-1.4c0-0.5,0.1-0.9,0.4-1.2s0.7-0.4,1.2-0.4
				c0.2,0,0.4,0,0.6,0.1c0.2,0,0.4,0.1,0.5,0.1V12c-0.4-0.1-0.7-0.1-1-0.1c-0.4,0-0.6,0.1-0.8,0.2c-0.2,0.1-0.2,0.4-0.2,0.7v1.4h3.2
				v-1.4c0-0.5,0.1-0.9,0.4-1.2s0.7-0.4,1.2-0.4c0.2,0,0.4,0,0.6,0.1c0.2,0,0.4,0.1,0.5,0.1V12c-0.4-0.1-0.7-0.1-1-0.1
				c-0.4,0-0.6,0.1-0.8,0.2C25,12.2,25,12.5,25,12.8v1.4h2v0.6h-2v5.4C25,20.2,24.3,20.2,24.3,20.2z"/>
			<path class="st3" d="M28.2,14.5l0.4-2.6h0.3c0.2,0,0.3,0,0.4,0.1c0.1,0,0.1,0.1,0.1,0.2c0,0.1,0,0.2-0.1,0.5l-0.5,1.8H28.2z"/>
			<path class="st3" d="M33.6,18.6c0-0.2-0.1-0.4-0.2-0.6c-0.2-0.2-0.4-0.3-0.8-0.4l-1.1-0.4c-0.9-0.3-1.3-0.8-1.3-1.6
				c0-0.5,0.2-0.9,0.6-1.2s0.9-0.5,1.5-0.5c0.3,0,0.6,0,0.9,0.1c0.3,0.1,0.6,0.2,0.8,0.3v0.6c-0.6-0.2-1.2-0.3-1.8-0.3
				c-0.4,0-0.8,0.1-1,0.3s-0.3,0.4-0.3,0.8c0,0.3,0.1,0.5,0.2,0.6c0.2,0.1,0.5,0.3,0.9,0.5l1,0.4c0.4,0.2,0.8,0.4,1,0.6
				s0.3,0.5,0.3,0.9c0,0.5-0.2,1-0.6,1.3s-0.9,0.5-1.6,0.5c-0.7,0-1.4-0.1-2-0.4v-0.6c0.7,0.3,1.4,0.4,2,0.4c0.5,0,0.9-0.1,1.1-0.3
				C33.5,19.3,33.6,19,33.6,18.6z"/>
			<path class="st3" d="M38.9,20.2v-8.3h0.7v3.9l3.8-3.9h0.9l-4,4.1l4.4,4.3h-1l-4.1-4v4h-0.7V20.2z"/>
			<path class="st3" d="M46,12.9c-0.2,0-0.3,0-0.4-0.1c-0.1-0.1-0.1-0.2-0.1-0.4s0-0.3,0.1-0.4c0.1-0.1,0.2-0.1,0.4-0.1
				s0.3,0,0.4,0.1c0.1,0.1,0.1,0.2,0.1,0.4s0,0.3-0.1,0.4C46.3,12.8,46.1,12.9,46,12.9z M45.6,20.2v-6.1h0.7v6.1H45.6z"/>
			<path class="st3" d="M52.5,20.2v-4.1c0-0.5-0.1-0.9-0.3-1.1c-0.2-0.2-0.5-0.4-1-0.4c-0.8,0-1.6,0.3-2.3,0.8v4.8h-0.7v-6.1h0.6
				l0.1,0.7c0.4-0.3,0.8-0.5,1.2-0.6C50.5,14,51,14,51.4,14c0.6,0,1,0.2,1.3,0.5s0.5,0.8,0.5,1.4v4.4L52.5,20.2L52.5,20.2z"/>
			<path class="st3" d="M59.4,20.2l-0.1-0.7c-0.3,0.2-0.6,0.4-1,0.6c-0.4,0.1-0.7,0.2-1.1,0.2c-0.8,0-1.4-0.3-1.9-0.8
				c-0.5-0.6-0.7-1.3-0.7-2.3s0.2-1.8,0.7-2.4c0.5-0.6,1.1-0.9,1.9-0.9c0.7,0,1.4,0.3,2,0.8v-3.5h0.7v8.9L59.4,20.2L59.4,20.2z
				 M57.5,19.7c0.6,0,1.2-0.3,1.9-0.8v-3.6c-0.3-0.3-0.7-0.5-1-0.6s-0.6-0.2-1-0.2c-0.6,0-1.1,0.2-1.5,0.6c-0.3,0.4-0.5,1.1-0.5,1.9
				C55.5,18.9,56.1,19.7,57.5,19.7z"/>
			<path class="st3" d="M63.6,20.2c-0.2,0.1-0.4,0.1-0.6,0.1c-0.3,0-0.6-0.1-0.8-0.3c-0.2-0.2-0.3-0.5-0.3-0.8v-7.9h0.7v7.9
				c0,0.2,0,0.3,0.1,0.4s0.2,0.1,0.4,0.1c0.1,0,0.3,0,0.5,0C63.6,19.7,63.6,20.2,63.6,20.2z"/>
			<path class="st3" d="M65.3,17.3c0,0.8,0.2,1.5,0.6,1.9s0.9,0.6,1.7,0.6c0.7,0,1.4-0.1,2-0.4V20c-0.6,0.3-1.2,0.5-2,0.5
				c-1,0-1.7-0.3-2.2-0.8s-0.7-1.3-0.7-2.4c0-1,0.2-1.8,0.7-2.4c0.5-0.6,1.2-0.8,2-0.8c0.7,0,1.3,0.2,1.7,0.6c0.4,0.4,0.6,1,0.6,1.8
				c0,0.4,0,0.7-0.1,0.9h-4.3V17.3z M67.3,14.6c-1.3,0-1.9,0.7-2,2.2H69c0-0.1,0-0.2,0-0.4c0-0.6-0.1-1-0.4-1.3
				C68.3,14.8,67.9,14.6,67.3,14.6z"/>
		</g>
		<g>
			<path class="st3" d="M412.4,20.4c-1,0-1.7-0.4-2.2-1.1s-0.8-1.8-0.8-3.2c0-1.4,0.3-2.5,0.8-3.2s1.2-1.1,2.2-1.1s1.7,0.4,2.2,1.1
				c0.5,0.7,0.8,1.8,0.8,3.2s-0.3,2.5-0.8,3.2S413.4,20.4,412.4,20.4z M412.4,19.8c0.8,0,1.3-0.3,1.7-0.9c0.4-0.6,0.5-1.5,0.5-2.8
				s-0.2-2.2-0.5-2.8c-0.4-0.6-0.9-0.9-1.7-0.9c-0.8,0-1.3,0.3-1.7,0.9c-0.4,0.6-0.5,1.5-0.5,2.8s0.2,2.2,0.5,2.8
				C411.1,19.5,411.6,19.8,412.4,19.8z"/>
			<path class="st3" d="M419.9,20.2v-7.6l-2.5,1V13l2.5-1.2h0.7v8.3h-0.7V20.2z"/>
			<path class="st3" d="M424.3,15.2c-0.2,0-0.3-0.1-0.4-0.2c-0.1-0.1-0.2-0.2-0.2-0.4s0-0.3,0.2-0.4c0.1-0.1,0.2-0.2,0.4-0.2
				c0.2,0,0.3,0.1,0.4,0.2c0.1,0.1,0.2,0.2,0.2,0.4s-0.1,0.3-0.2,0.4C424.6,15.2,424.4,15.2,424.3,15.2z M424.3,20.3
				c-0.2,0-0.3-0.1-0.4-0.2s-0.2-0.2-0.2-0.4c0-0.2,0-0.3,0.2-0.4c0.1-0.1,0.2-0.2,0.4-0.2c0.2,0,0.3,0.1,0.4,0.2s0.2,0.2,0.2,0.4
				c0,0.2-0.1,0.3-0.2,0.4C424.6,20.2,424.4,20.3,424.3,20.3z"/>
			<path class="st3" d="M429.5,20.2v-7.6l-2.5,1V13l2.5-1.2h0.7v8.3h-0.7V20.2z"/>
			<path class="st3" d="M436.1,20.4c-1,0-1.7-0.4-2.2-1.1s-0.8-1.8-0.8-3.2c0-1.4,0.3-2.5,0.8-3.2s1.2-1.1,2.2-1.1s1.7,0.4,2.2,1.1
				c0.5,0.7,0.8,1.8,0.8,3.2s-0.3,2.5-0.8,3.2C437.8,20,437.1,20.4,436.1,20.4z M436.1,19.8c0.8,0,1.3-0.3,1.7-0.9
				c0.4-0.6,0.5-1.5,0.5-2.8s-0.2-2.2-0.5-2.8c-0.4-0.6-0.9-0.9-1.7-0.9c-0.8,0-1.3,0.3-1.7,0.9c-0.4,0.6-0.5,1.5-0.5,2.8
				s0.2,2.2,0.5,2.8C434.8,19.5,435.4,19.8,436.1,19.8z"/>
		</g>
		<g>
			<rect x="790.5" y="14.4" class="st3" width="11.1" height="4.1"/>
			<path class="st3" d="M805.3,14.3h-0.8v-2.7h-16.8v10.1h16.8V19h0.8V14.3z M803.4,20.5h-14.6v-7.8h14.6V20.5z"/>
		</g>
		<g>
			<g>
				<path class="st3" d="M777.5,15c-7.2-5.9-13.3-0.3-13.6,0l-0.9-1c0.1-0.1,7.2-6.8,15.3,0L777.5,15z"/>
			</g>
			<g>
				<path class="st3" d="M766.1,17.1l-0.8-1.1c0.1,0,5.5-4.1,10.5,0l-0.8,1C770.7,13.7,766.1,17.1,766.1,17.1z"/>
			</g>
			<g>
				<path class="st3" d="M767.9,19.5l-0.7-1.1c0.1-0.1,3.3-2.1,6.4,0l-0.7,1.1C770.4,17.9,768,19.5,767.9,19.5z"/>
			</g>
			<g>
				<circle class="st3" cx="770.5" cy="21.6" r="1"/>
			</g>
		</g>
	</g>
	<path class="st33" d="M832.2,24.7l2.2,4.4c0.1,0.2,0.3,0.4,0.5,0.4l4.9,0.7c0.6,0.1,0.8,0.8,0.4,1.2l-3.5,3.4
		c-0.2,0.2-0.2,0.4-0.2,0.6l0.8,4.9c0.1,0.6-0.5,1-1,0.8l-4.4-2.3c-0.2-0.1-0.5-0.1-0.7,0l-4.4,2.3c-0.5,0.3-1.1-0.2-1-0.8l0.8-4.9
		c0-0.2,0-0.5-0.2-0.6l-3.5-3.4c-0.4-0.4-0.2-1.1,0.4-1.2l4.9-0.7c0.2,0,0.4-0.2,0.5-0.4l2.2-4.4C831.2,24.2,832,24.2,832.2,24.7z"
		/>
</g>
<linearGradient id="SVGID_15_" gradientUnits="userSpaceOnUse" x1="64.3" y1="65.4336" x2="64.3" y2="121.2672" gradientTransform="matrix(1 0 0 -1 0 533)">
	<stop  offset="0" style="stop-color:#3F3F40"/>
	<stop  offset="1" style="stop-color:#4F4F4F"/>
</linearGradient>
<circle class="st34" cx="64.3" cy="451.8" r="19.2"/>
<linearGradient id="SVGID_16_" gradientUnits="userSpaceOnUse" x1="66.65" y1="89.0679" x2="66.65" y2="74.238" gradientTransform="matrix(1 0 0 -1 0 533)">
	<stop  offset="0" style="stop-color:#F7F7F8"/>
	<stop  offset="1" style="stop-color:#9B9CA1"/>
</linearGradient>
<polygon class="st35" points="74.4,451.8 66.7,456.3 58.9,460.8 58.9,451.8 58.9,442.8 66.7,447.3 "/>
<g class="st9">
	<g class="st14">
		
			<linearGradient id="SVGID_17_" gradientUnits="userSpaceOnUse" x1="449.7" y1="84.4644" x2="449.7" y2="72.5209" gradientTransform="matrix(1 0 0 -1 0 533)">
			<stop  offset="0" style="stop-color:#323031"/>
			<stop  offset="1" style="stop-color:#4F4F4F"/>
		</linearGradient>
		<path class="st36" d="M763,456.3H136.4c-2.5,0-4.5-2-4.5-4.5l0,0c0-2.5,2-4.5,4.5-4.5H763c2.5,0,4.5,2,4.5,4.5l0,0
			C767.5,454.2,765.5,456.3,763,456.3z"/>
		
			<linearGradient id="SVGID_18_" gradientUnits="userSpaceOnUse" x1="165.8" y1="77.8544" x2="165.8" y2="85.3297" gradientTransform="matrix(1 0 0 -1 0 533)">
			<stop  offset="0" style="stop-color:#EC7924"/>
			<stop  offset="1" style="stop-color:#FAA819"/>
		</linearGradient>
		<path class="st37" d="M199.7,447.3h-63.3c-2.5,0-4.5,2-4.5,4.5s2,4.5,4.5,4.5h63.3V447.3z"/>
		
			<linearGradient id="SVGID_19_" gradientUnits="userSpaceOnUse" x1="231.5" y1="85.5145" x2="231.5" y2="78.1421" gradientTransform="matrix(1 0 0 -1 0 533)">
			<stop  offset="0" style="stop-color:#8F8F8E"/>
			<stop  offset="1" style="stop-color:#4F4F4F"/>
		</linearGradient>
		<rect x="204.4" y="447.3" class="st38" width="54.2" height="9"/>
		
			<radialGradient id="SVGID_20_" cx="47.6344" cy="76.8473" r="16.4955" gradientTransform="matrix(0.7854 0 0 -0.7854 162.2879 512.1559)" gradientUnits="userSpaceOnUse">
			<stop  offset="0" style="stop-color:#000000"/>
			<stop  offset="0.9015" style="stop-color:#000000;stop-opacity:0"/>
		</radialGradient>
		<circle class="st39" cx="199.7" cy="451.8" r="12.9"/>
	</g>
	
		<linearGradient id="SVGID_21_" gradientUnits="userSpaceOnUse" x1="199.7" y1="89.0961" x2="199.7" y2="74.2129" gradientTransform="matrix(1 0 0 -1 0 533)">
		<stop  offset="0" style="stop-color:#F7F7F8"/>
		<stop  offset="1" style="stop-color:#9B9CA1"/>
	</linearGradient>
	<circle class="st40" cx="199.7" cy="451.8" r="9"/>
</g>
<rect x="36.5" y="86.8" class="st41" width="185.2" height="39.2"/>
</svg>
