<?xml version="1.0" encoding="utf-8"?>
<!-- Generator: Adobe Illustrator 21.0.2, SVG Export Plug-In . SVG Version: 6.00 Build 0)  -->
<svg version="1.1" xmlns="http://www.w3.org/2000/svg" xmlns:xlink="http://www.w3.org/1999/xlink" x="0px" y="0px"
	 viewBox="0 0 533.3 853.3" style="enable-background:new 0 0 533.3 853.3;" xml:space="preserve">
<style type="text/css">
	.st0{display:none;}
	.st1{display:inline;fill:#872A2A;}
	.st2{opacity:0.6;fill:#FFFFFF;enable-background:new    ;}
	.st3{font-family:'AmazonEmber-Italic';}
	.st4{font-size:16px;}
	.st5{fill:#FFFFFF;}
	.st6{display:none;fill:#FFFFFF;}
</style>
<g id="Layer_2" class="st0">
	<rect x="-4" y="-3" class="st1" width="544" height="905"/>
</g>
<g id="Layer_1">
	<title>Gen7UI</title>
	<g id="OBJECTS">
		<text transform="matrix(1 0 0 1 169.8 769.54)" class="st2 st3 st4">S</text>
		<text transform="matrix(1 0 0 1 178.14 769.54)" class="st5 st3 st4">wipe right to browse offers</text>
		<g>
			<path class="st6" d="M20.2,834.1v-22.6h22.6v22.6H20.2"/>
			<path class="st5" d="M272.6,819.2v-3.7c0-3-2.5-5.5-5.5-5.5s-5.5,2.5-5.5,5.5v3.7h-3.2v12.9h17.5v-12.9H272.6z M263.4,815.5
				c0-2,1.7-3.7,3.7-3.7s3.7,1.7,3.7,3.7v3.7h-7.4L263.4,815.5L263.4,815.5z"/>
			<path class="st5" d="M502.2,818.2c-2.4,0-4.4,2-4.4,4.4s2,4.4,4.4,4.4s4.4-2,4.4-4.4S504.6,818.2,502.2,818.2z"/>
			<path class="st5" d="M507.4,815.1c-0.5,0-1-0.4-1.2-0.8l-0.7-1.9c-0.2-0.5-0.7-0.8-1.2-0.8H500c-0.5,0-1,0.4-1.2,0.8l-0.7,1.9
				c-0.2,0.5-0.7,0.8-1.2,0.8h-4.4c-0.5,0-0.8,0.4-0.8,0.8l0,0V830c0,0.5,0.4,0.9,0.8,0.9l0,0h19.3c0.5,0,0.9-0.4,0.9-0.9v-14
				c0-0.5-0.4-0.9-0.9-0.9H507.4z M494.3,818.2c-0.5,0-0.9-0.4-0.9-0.9s0.4-0.9,0.9-0.9s0.9,0.4,0.9,0.9
				C495.1,817.8,494.8,818.2,494.3,818.2z M502.2,828.7c-3.4,0-6.1-2.8-6.1-6.1s2.8-6.1,6.1-6.1s6.1,2.8,6.1,6.1
				S505.6,828.7,502.2,828.7z"/>
			<path class="st6" d="M27.7,815.7c-0.4,0-0.7,0.1-1,0.4c-0.6,0.6-0.6,1.4,0,2c0.3,0.3,0.6,0.4,1,0.4s0.7-0.1,1-0.4
				c0.6-0.6,0.6-1.4,0-2C28.4,815.8,28,815.7,27.7,815.7 M28.6,833.1c-0.7,0-1.4-0.4-1.7-1.1c0,0,0,0,0-0.1l-3.6-8.6l8.6,8.6l-2.5,1
				C29.1,833,28.8,833.1,28.6,833.1 M23,833.1c-1,0-1.9-0.8-1.9-1.9v-8.5l3.8,10.3H23 M34.9,831c-0.5,0-0.9-0.2-1.3-0.6L23,819.7
				v-3.9l3.3-3.3h4L41,823.2c0.8,0.8,0.8,1.9,0,2.6l-4.7,4.6C35.9,830.8,35.4,831,34.9,831 M42.8,811.5H20.2v22.6h22.6L42.8,811.5"
				/>
			<path class="st5" d="M23.3,823.3l3.6,8.6c0,0.1,0,0.1,0,0.1c0.3,0.7,1,1.1,1.7,1.1c0.3,0,0.5,0,0.7-0.1l2.5-1L23.3,823.3
				 M21.1,822.8v8.5c0,1,0.8,1.9,1.9,1.9h1.9L21.1,822.8 M27.7,818.5c-0.4,0-0.7-0.1-1-0.4c-0.6-0.6-0.6-1.4,0-2
				c0.3-0.3,0.6-0.4,1-0.4s0.7,0.1,1,0.4c0.6,0.6,0.6,1.4,0,2C28.4,818.4,28,818.5,27.7,818.5 M30.3,812.5h-4l-3.3,3.3v3.9
				l10.6,10.7c0.4,0.4,0.8,0.6,1.3,0.6s0.9-0.2,1.3-0.6l4.7-4.6c0.8-0.8,0.8-1.9,0-2.6L30.3,812.5"/>
		</g>
	</g>
</g>
</svg>
