<?xml version="1.0" encoding="utf-8"?>
<!-- Generator: Adobe Illustrator 21.0.2, SVG Export Plug-In . SVG Version: 6.00 Build 0)  -->
<svg version="1.0" id="OBJECTS" xmlns="http://www.w3.org/2000/svg" xmlns:xlink="http://www.w3.org/1999/xlink" x="0px" y="0px"
	 viewBox="0 0 853.3 533.3" style="enable-background:new 0 0 853.3 533.3;" xml:space="preserve">
<style type="text/css">
	.st0{fill:none;}
	.st1{display:none;fill:none;}
	.st2{fill:#FFFFFF;fill-opacity:0;}
	.st3{opacity:0.9;enable-background:new    ;}
	.st4{opacity:0.6;enable-background:new    ;}
	.st5{font-family:'AmazonEmber-Italic';}
	.st6{font-size:16px;}
</style>
<symbol  id="CAMERA" viewBox="-24 -24 48 48">
	<rect x="-24" y="-24" class="st0" width="48" height="48"/>
	<g>
		<g>
			<path d="M-0.1,7c-5.5,0-10-4.5-10-10s4.5-10,10-10s10,4.5,10,10S5.4,7-0.1,7z"/>
		</g>
		<g>
			<path d="M11.9,14c-1.1,0-2.3,0.8-2.7,1.9l-1.6,4.3C7.2,21.2,6,22,4.9,22h-10c-1.1,0-2.3-0.8-2.7-1.9l-1.6-4.3
				c-0.4-1-1.6-1.9-2.7-1.9h-10c-1.1,0-1.9-0.9-1.9-2v-32c0-1.1,0.8-2,1.9-2h44c1.1,0,2.1,0.9,2.1,2v32c0,1.1-1,2-2.1,2L11.9,14
				L11.9,14z M-18.1,7c-1.1,0-2,0.9-2,2s0.9,2,2,2s2-0.9,2-2S-17,7-18.1,7z M-0.1-17c-7.7,0-14,6.3-14,14s6.3,14,14,14s14-6.3,14-14
				S7.6-17-0.1-17z"/>
		</g>
	</g>
	<rect x="-24" y="-24" class="st1" width="48" height="48"/>
</symbol>
<symbol  id="LOCK" viewBox="-24 -24 48 48">
	<rect x="-24" y="-24" class="st0" width="48" height="48"/>
	<path d="M12,4v8c0,6.6-5.4,12-12,12s-12-5.4-12-12V4h-7v-28h38V4H12z M-8,12c0,4.4,3.6,8,8,8s8-3.6,8-8V4H-8V12z"/>
	<rect x="-24" y="-24" class="st1" width="48" height="48"/>
</symbol>
<symbol  id="f_x5F_ic_x5F_ad_x5F_browsing" viewBox="-12 -12 24 24">
	<rect x="-12" y="-12" class="st2" width="24" height="24"/>
	<path class="st3" d="M-5.5,11L-9,7.5V3.3L2.3-8c0.8-0.8,2.1-0.8,2.8,0L10-3.1c0.8,0.8,0.8,2.1,0,2.8L-1.2,11H-5.5z M-3,5
		c-0.6-0.6-1.5-0.6-2.1,0s-0.6,1.5,0,2.1s1.5,0.6,2.1,0S-2.4,5.6-3,5z M-7-11h-2c-1.1,0-2,0.9-2,2v9L-7-11z M0.4-9.7l-2.7-1.1
		c-1-0.4-2.2,0.1-2.6,1.1l-3.8,9.2L0.4-9.7z"/>
</symbol>
<use xlink:href="#CAMERA"  width="48" height="48" id="XMLID_4_" x="-24" y="-24" transform="matrix(0.5 0 0 -0.5 820 502)" style="overflow:visible;"/>
<use xlink:href="#LOCK"  width="48" height="48" id="XMLID_5_" x="-24" y="-24" transform="matrix(0.5 0 0 -0.5 426 502)" style="overflow:visible;"/>
<text transform="matrix(1 0 0 1 327.641 457.5439)" class="st4 st5 st6">Swipe right to browse offers</text>
<use xlink:href="#f_x5F_ic_x5F_ad_x5F_browsing"  width="24" height="24" id="XMLID_9_" x="-12" y="-12" transform="matrix(1 0 0 -1 32 502)" style="overflow:visible;"/>
</svg>
