<?xml version="1.0" encoding="utf-8"?>
<!-- Generator: Adobe Illustrator 22.0.0, SVG Export Plug-In . SVG Version: 6.00 Build 0)  -->
<svg version="1.1" id="Layer_1" xmlns="http://www.w3.org/2000/svg" xmlns:xlink="http://www.w3.org/1999/xlink" x="0px" y="0px"
	 viewBox="0 0 533.3 853.3" style="enable-background:new 0 0 533.3 853.3;" xml:space="preserve">
<style type="text/css">
	.st0{display:none;}
	.st1{display:inline;fill:#872A2A;}
	.st2{display:none;fill:#FFFFFF;}
	.st3{opacity:0.6;fill:#FFFFFF;enable-background:new    ;}
	.st4{opacity:0.6;}
	.st5{fill:#FFFFFF;}
</style>
<g id="Layer_2_1_" class="st0">
	<rect x="-4" y="-3" class="st1" width="544" height="905"/>
</g>
<g id="Layer_1_1_">
	<title>Gen7UI</title>
	<g id="OBJECTS">
		<g>
			<path class="st2" d="M20.2,834.1v-22.6h22.6v22.6H20.2"/>
			<path class="st3" d="M272.6,819.2v-3.7c0-3-2.5-5.5-5.5-5.5s-5.5,2.5-5.5,5.5v3.7h-3.2v12.9h17.5v-12.9H272.6z M263.4,815.5
				c0-2,1.7-3.7,3.7-3.7s3.7,1.7,3.7,3.7v3.7h-7.4L263.4,815.5L263.4,815.5z"/>
			<path class="st3" d="M502.2,818.2c-2.4,0-4.4,2-4.4,4.4s2,4.4,4.4,4.4s4.4-2,4.4-4.4S504.6,818.2,502.2,818.2z"/>
			<path class="st3" d="M507.4,815.1c-0.5,0-1-0.4-1.2-0.8l-0.7-1.9c-0.2-0.5-0.7-0.8-1.2-0.8H500c-0.5,0-1,0.4-1.2,0.8l-0.7,1.9
				c-0.2,0.5-0.7,0.8-1.2,0.8h-4.4c-0.5,0-0.8,0.4-0.8,0.8l0,0V830c0,0.5,0.4,0.9,0.8,0.9l0,0h19.3c0.5,0,0.9-0.4,0.9-0.9v-14
				c0-0.5-0.4-0.9-0.9-0.9H507.4z M494.3,818.2c-0.5,0-0.9-0.4-0.9-0.9s0.4-0.9,0.9-0.9s0.9,0.4,0.9,0.9
				C495.1,817.8,494.8,818.2,494.3,818.2z M502.2,828.7c-3.4,0-6.1-2.8-6.1-6.1s2.8-6.1,6.1-6.1s6.1,2.8,6.1,6.1
				S505.6,828.7,502.2,828.7z"/>
			<g>
				<path class="st2" d="M27.7,815.7c-0.4,0-0.7,0.1-1,0.4c-0.6,0.6-0.6,1.4,0,2c0.3,0.3,0.6,0.4,1,0.4s0.7-0.1,1-0.4
					c0.6-0.6,0.6-1.4,0-2C28.4,815.8,28,815.7,27.7,815.7 M28.6,833.1c-0.7,0-1.4-0.4-1.7-1.1c0,0,0,0,0-0.1l-3.6-8.6l8.6,8.6
					l-2.5,1C29.1,833,28.8,833.1,28.6,833.1 M23,833.1c-1,0-1.9-0.8-1.9-1.9v-8.5l3.8,10.3H23 M34.9,831c-0.5,0-0.9-0.2-1.3-0.6
					L23,819.7v-3.9l3.3-3.3h4L41,823.2c0.8,0.8,0.8,1.9,0,2.6l-4.7,4.6C35.9,830.8,35.4,831,34.9,831 M42.8,811.5H20.2v22.6h22.6
					L42.8,811.5"/>
			</g>
			<g class="st4">
				<path class="st5" d="M23.3,823.3l3.6,8.6c0,0.1,0,0.1,0,0.1c0.3,0.7,1,1.1,1.7,1.1c0.3,0,0.5,0,0.7-0.1l2.5-1L23.3,823.3
					 M21.1,822.8v8.5c0,1,0.8,1.9,1.9,1.9h1.9L21.1,822.8 M27.7,818.5c-0.4,0-0.7-0.1-1-0.4c-0.6-0.6-0.6-1.4,0-2
					c0.3-0.3,0.6-0.4,1-0.4s0.7,0.1,1,0.4c0.6,0.6,0.6,1.4,0,2C28.4,818.4,28,818.5,27.7,818.5 M30.3,812.5h-4l-3.3,3.3v3.9
					l10.6,10.7c0.4,0.4,0.8,0.6,1.3,0.6s0.9-0.2,1.3-0.6l4.7-4.6c0.8-0.8,0.8-1.9,0-2.6L30.3,812.5"/>
			</g>
		</g>
		<g class="st4">
			<path class="st5" d="M82,769l0.2-1.2l7.5-8.6h-5.5l0.3-1.3h7.3l-0.2,1.2l-7.5,8.6h5.8l-0.3,1.3H82z"/>
			<path class="st5" d="M96.9,769l0.1-1.5c-0.4,0.5-0.9,1-1.5,1.3s-1.1,0.5-1.6,0.5c-0.6,0-1.1-0.2-1.4-0.5
				c-0.3-0.4-0.5-0.9-0.5-1.6c0-0.5,0.1-1.2,0.3-2l0.8-4.2h1.5l-0.8,4.2c-0.2,0.8-0.2,1.4-0.2,1.9c0,0.4,0.1,0.6,0.2,0.8
				c0.2,0.2,0.4,0.2,0.7,0.2c0.4,0,0.8-0.2,1.3-0.5s1-0.7,1.4-1.3l1-5.3h1.5l-1.6,8.1h-1.2V769z"/>
			<path class="st5" d="M110.9,769l0.8-4.2c0.2-0.8,0.3-1.5,0.3-1.8c0-0.7-0.3-1.1-1-1.1c-0.4,0-0.8,0.1-1.3,0.4
				c-0.5,0.3-0.9,0.7-1.4,1.2l-0.2,1.3l-0.8,4.2h-1.5l0.8-4.2c0.2-0.8,0.3-1.5,0.3-1.8c0-0.7-0.3-1.1-1-1.1c-0.4,0-0.8,0.2-1.2,0.5
				s-0.9,0.7-1.4,1.3l-1.1,5.4h-1.5l1.6-8.1h1.3l-0.1,1.5c0.5-0.6,0.9-1,1.5-1.3c0.5-0.3,1-0.4,1.5-0.4c0.6,0,1.1,0.2,1.4,0.5
				s0.5,0.7,0.6,1.3c0.5-0.6,1-1,1.5-1.3s1.1-0.5,1.7-0.5s1.1,0.2,1.5,0.5c0.3,0.4,0.5,0.9,0.5,1.6c0,0.2,0,0.5-0.1,0.7
				c0,0.3-0.1,0.7-0.2,1.3l-0.8,4.2h-1.7V769z"/>
			<path class="st5" d="M125.9,769l-0.4-3h-4.4l-1.6,3h-1.7l6.1-11.1h1.7l1.8,11.1H125.9z M121.7,764.8h3.6l-0.8-5.4L121.7,764.8z"
				/>
			<path class="st5" d="M134.1,769l0.8-4.2c0.2-0.8,0.3-1.5,0.3-1.8c0-0.7-0.4-1.1-1.1-1.1c-0.4,0-0.8,0.2-1.3,0.5s-1,0.7-1.4,1.3
				l-1.1,5.3h-1.5l1.6-8.1h1.3l-0.1,1.5c0.5-0.6,1-1,1.5-1.3s1.1-0.5,1.6-0.5c0.7,0,1.2,0.2,1.5,0.5c0.4,0.4,0.5,0.9,0.5,1.6
				c0,0.2,0,0.5-0.1,0.7c0,0.3-0.1,0.7-0.2,1.3l-0.8,4.2L134.1,769L134.1,769z"/>
			<path class="st5" d="M140.2,765.2c-0.5-0.3-0.9-0.6-1.1-0.9c-0.2-0.3-0.4-0.7-0.4-1.1c0-0.5,0.1-0.9,0.4-1.3
				c0.3-0.4,0.6-0.7,1.1-0.9s1-0.3,1.6-0.3c0.9,0,1.6,0.2,2.3,0.5l-0.2,1.1c-0.3-0.1-0.6-0.2-1-0.3s-0.7-0.1-1-0.1
				c-0.5,0-0.9,0.1-1.2,0.3s-0.4,0.5-0.4,0.9s0.3,0.8,0.9,1.1l1,0.5c0.5,0.3,0.9,0.6,1.1,0.9s0.3,0.7,0.3,1.1c0,0.8-0.3,1.4-0.9,1.9
				s-1.3,0.7-2.3,0.7c-0.5,0-1-0.1-1.5-0.2s-0.9-0.3-1.2-0.4l0.2-1.1c0.4,0.2,0.8,0.3,1.2,0.4c0.5,0.1,0.9,0.1,1.3,0.1
				c0.5,0,0.9-0.1,1.2-0.3s0.4-0.5,0.4-0.9c0-0.2-0.1-0.4-0.2-0.6c-0.1-0.2-0.4-0.3-0.7-0.5L140.2,765.2z"/>
			<path class="st5" d="M147.9,769.2c-0.9,0-1.6-0.3-2.1-0.8s-0.8-1.3-0.8-2.2c0-1,0.2-1.9,0.6-2.7c0.4-0.9,1-1.6,1.7-2.1
				s1.6-0.8,2.4-0.8c0.3,0,0.7,0,1,0.1s0.6,0.2,0.9,0.3l-0.2,1.2c-0.5-0.2-1-0.3-1.5-0.3c-0.6,0-1.2,0.2-1.7,0.5s-0.9,0.8-1.2,1.5
				c-0.3,0.6-0.4,1.4-0.4,2.2c0,0.7,0.1,1.1,0.4,1.4s0.7,0.4,1.2,0.4c0.6,0,1.4-0.2,2.3-0.8l0.4,1c-0.4,0.3-0.9,0.6-1.4,0.8
				C148.9,769.1,148.4,769.2,147.9,769.2z"/>
			<path class="st5" d="M154.9,762.3c0.5-0.6,1-1,1.5-1.3s1.1-0.4,1.6-0.4c0.7,0,1.2,0.2,1.5,0.5c0.4,0.4,0.5,0.9,0.5,1.6
				c0,0.2,0,0.5-0.1,0.7c0,0.3-0.1,0.7-0.2,1.3L159,769h-1.5l0.8-4.2c0.2-0.8,0.3-1.5,0.3-1.8c0-0.7-0.4-1.1-1.1-1.1
				c-0.4,0-0.8,0.2-1.3,0.5s-1,0.8-1.5,1.3l-1,5.3H152l2.3-11.8h1.5L154.9,762.3z"/>
			<path class="st5" d="M166.4,769l0.1-1.5c-0.4,0.5-0.9,1-1.4,1.3s-1,0.4-1.6,0.4c-0.7,0-1.2-0.2-1.6-0.7c-0.4-0.5-0.5-1.1-0.5-2
				c0-1,0.2-1.9,0.6-2.8c0.4-0.9,1-1.6,1.8-2.2s1.6-0.9,2.5-0.9c0.4,0,0.9,0.1,1.4,0.2c0.5,0.1,1,0.3,1.4,0.5l-1.5,7.7H166.4z
				 M164.1,768c0.8,0,1.7-0.6,2.6-1.7l0.8-4.2c-0.5-0.1-0.9-0.2-1.2-0.2c-0.6,0-1.1,0.2-1.6,0.6c-0.5,0.4-0.9,0.9-1.3,1.6
				c-0.3,0.7-0.5,1.4-0.5,2.3c0,0.5,0.1,1,0.3,1.2C163.4,767.8,163.7,768,164.1,768z"/>
			<path class="st5" d="M175.4,769l0.1-1.5c-0.4,0.5-0.9,1-1.5,1.3s-1.1,0.5-1.6,0.5c-0.6,0-1.1-0.2-1.4-0.5
				c-0.3-0.4-0.5-0.9-0.5-1.6c0-0.5,0.1-1.2,0.3-2l0.8-4.2h1.5l-0.8,4.2c-0.2,0.8-0.2,1.4-0.2,1.9c0,0.4,0.1,0.6,0.2,0.8
				c0.2,0.2,0.4,0.2,0.7,0.2c0.4,0,0.8-0.2,1.3-0.5s1-0.7,1.4-1.3l1-5.3h1.5l-1.6,8.1h-1.2V769z"/>
			<path class="st5" d="M185.3,768.2c-1,0.7-2.2,1.1-3.4,1.1c-0.9,0-1.5-0.3-2-0.8s-0.7-1.2-0.7-2.2c0-0.7,0.1-1.4,0.3-2.1
				c0.2-0.7,0.6-1.3,1-1.8s0.9-1,1.6-1.3c0.6-0.3,1.3-0.5,2-0.5s1.2,0.2,1.5,0.5c0.4,0.3,0.6,0.8,0.6,1.3c0,0.8-0.4,1.6-1.2,2.2
				c-0.8,0.6-1.9,1-3.3,1.3l-1,0.2c0,0.7,0.1,1.2,0.4,1.5c0.2,0.3,0.7,0.5,1.2,0.5c0.8,0,1.6-0.3,2.6-0.8L185.3,768.2z M183.8,761.8
				c-0.5,0-0.9,0.1-1.3,0.4c-0.4,0.3-0.8,0.7-1.1,1.2s-0.5,1.1-0.6,1.7l1-0.2c0.9-0.2,1.7-0.5,2.2-0.9s0.8-0.8,0.8-1.3
				c0-0.2-0.1-0.4-0.2-0.6C184.3,761.9,184.1,761.8,183.8,761.8z"/>
			<path class="st5" d="M192.2,769l0.8-4.2c0.2-0.8,0.3-1.5,0.3-1.8c0-0.7-0.4-1.1-1.1-1.1c-0.4,0-0.8,0.2-1.3,0.5s-1,0.7-1.4,1.3
				l-1.1,5.3h-1.5l1.6-8.1h1.3l-0.1,1.5c0.5-0.6,1-1,1.5-1.3s1.1-0.5,1.6-0.5c0.7,0,1.2,0.2,1.5,0.5c0.4,0.4,0.5,0.9,0.5,1.6
				c0,0.2,0,0.5-0.1,0.7c0,0.3-0.1,0.7-0.2,1.3l-0.8,4.2L192.2,769L192.2,769z"/>
			<path class="st5" d="M202.1,769l-1.5-8.1h1.6l1,6.7c0.7-1.1,1.3-2.3,1.9-3.5c0.6-1.2,1.1-2.3,1.5-3.2h1.6c-0.5,1.2-1.1,2.5-2,4
				s-1.7,2.9-2.6,4.1H202.1z"/>
			<path class="st5" d="M211.3,769.2c-0.9,0-1.7-0.3-2.2-0.9c-0.5-0.6-0.8-1.4-0.8-2.4s0.2-1.9,0.6-2.7c0.4-0.8,0.9-1.5,1.6-2
				c0.7-0.5,1.5-0.7,2.3-0.7c0.9,0,1.7,0.3,2.2,0.9c0.5,0.6,0.8,1.4,0.8,2.4s-0.2,1.9-0.6,2.7c-0.4,0.8-0.9,1.5-1.6,2
				S212.1,769.2,211.3,769.2z M211.4,768c0.5,0,1-0.2,1.4-0.5s0.8-0.8,1-1.4c0.2-0.6,0.4-1.3,0.4-2.1c0-0.7-0.1-1.2-0.4-1.5
				c-0.3-0.4-0.7-0.5-1.2-0.5s-1,0.2-1.4,0.5s-0.8,0.8-1,1.4c-0.2,0.6-0.4,1.3-0.4,2.1c0,0.7,0.1,1.2,0.4,1.5
				C210.5,767.8,210.9,768,211.4,768z"/>
			<path class="st5" d="M222.1,769l0.8-4.2c0.2-0.8,0.3-1.5,0.3-1.8c0-0.7-0.4-1.1-1.1-1.1c-0.4,0-0.8,0.2-1.3,0.5s-1,0.7-1.4,1.3
				l-1.1,5.3h-1.5l1.6-8.1h1.3l-0.1,1.5c0.5-0.6,1-1,1.5-1.3s1.1-0.5,1.6-0.5c0.7,0,1.2,0.2,1.5,0.5c0.4,0.4,0.5,0.9,0.5,1.6
				c0,0.2,0,0.5-0.1,0.7c0,0.3-0.1,0.7-0.2,1.3l-0.8,4.2L222.1,769L222.1,769z"/>
			<path class="st5" d="M237.1,769l-0.4-3h-4.4l-1.6,3H229l6.1-11.1h1.7l1.8,11.1H237.1z M232.9,764.8h3.6l-0.8-5.4L232.9,764.8z"/>
			<path class="st5" d="M245.4,769l0.8-4.2c0.2-0.8,0.3-1.5,0.3-1.8c0-0.7-0.4-1.1-1.1-1.1c-0.4,0-0.8,0.2-1.3,0.5s-1,0.7-1.4,1.3
				l-1.1,5.3H240l1.6-8.1h1.3l-0.1,1.5c0.5-0.6,1-1,1.5-1.3s1.1-0.5,1.6-0.5c0.7,0,1.2,0.2,1.5,0.5c0.4,0.4,0.5,0.9,0.5,1.6
				c0,0.2,0,0.5-0.1,0.7c0,0.3-0.1,0.7-0.2,1.3l-0.8,4.2L245.4,769L245.4,769z"/>
			<path class="st5" d="M254.4,767.2c-0.4,0.5-0.9,0.9-1.4,1.2s-1,0.4-1.5,0.4c-0.7,0-1.2-0.2-1.6-0.7s-0.6-1.1-0.6-1.9
				c0-0.9,0.2-1.8,0.6-2.7s1-1.6,1.8-2.1c0.8-0.6,1.6-0.8,2.5-0.8c0.4,0,0.9,0.1,1.4,0.2c0.5,0.1,1,0.3,1.4,0.5l-1.3,6.7
				c-0.3,1.5-0.8,2.6-1.6,3.3s-1.9,1.1-3.1,1.1c-0.9,0-1.6-0.2-2.4-0.6l0.2-1.2c0.7,0.3,1.4,0.5,2.1,0.5c0.9,0,1.6-0.3,2.2-0.8
				c0.5-0.5,0.9-1.4,1.1-2.6L254.4,767.2z M252,767.6c0.4,0,0.8-0.2,1.3-0.5s0.9-0.8,1.4-1.4l0.7-3.7c-0.5-0.1-0.9-0.2-1.2-0.2
				c-0.6,0-1.1,0.2-1.6,0.6c-0.5,0.4-0.9,0.9-1.2,1.5c-0.3,0.7-0.5,1.4-0.5,2.1C250.9,767.1,251.3,767.6,252,767.6z"/>
			<path class="st5" d="M264.2,768.2c-1,0.7-2.2,1.1-3.4,1.1c-0.9,0-1.5-0.3-2-0.8s-0.7-1.2-0.7-2.2c0-0.7,0.1-1.4,0.3-2.1
				c0.2-0.7,0.6-1.3,1-1.8s0.9-1,1.6-1.3c0.6-0.3,1.3-0.5,2-0.5s1.2,0.2,1.5,0.5c0.4,0.3,0.6,0.8,0.6,1.3c0,0.8-0.4,1.6-1.2,2.2
				c-0.8,0.6-1.9,1-3.3,1.3l-1,0.2c0,0.7,0.1,1.2,0.4,1.5c0.2,0.3,0.7,0.5,1.2,0.5c0.8,0,1.6-0.3,2.6-0.8L264.2,768.2z M262.6,761.8
				c-0.5,0-0.9,0.1-1.3,0.4c-0.4,0.3-0.8,0.7-1.1,1.2c-0.3,0.5-0.5,1.1-0.6,1.7l1-0.2c0.9-0.2,1.7-0.5,2.2-0.9s0.8-0.8,0.8-1.3
				c0-0.2-0.1-0.4-0.2-0.6C263.2,761.9,262.9,761.8,262.6,761.8z"/>
			<path class="st5" d="M268.5,762.3c0.4-0.5,0.9-0.9,1.4-1.2s1-0.4,1.5-0.4c0.7,0,1.2,0.2,1.5,0.7c0.4,0.5,0.5,1.2,0.5,2.1
				c0,1-0.2,2-0.6,2.8c-0.4,0.9-1,1.6-1.7,2.1s-1.6,0.8-2.5,0.8c-0.4,0-0.9-0.1-1.4-0.2s-1-0.3-1.4-0.5l2.2-11.4h1.5L268.5,762.3z
				 M270.8,761.9c-0.8,0-1.6,0.6-2.6,1.8l-0.8,4.1c0.5,0.1,0.9,0.2,1.2,0.2c0.6,0,1.1-0.2,1.6-0.5c0.5-0.4,0.9-0.9,1.2-1.5
				c0.3-0.7,0.4-1.4,0.4-2.2C271.9,762.5,271.6,761.9,270.8,761.9z"/>
			<path class="st5" d="M277.6,769.2c-0.9,0-1.7-0.3-2.2-0.9c-0.5-0.6-0.8-1.4-0.8-2.4s0.2-1.9,0.6-2.7s0.9-1.5,1.6-2
				s1.5-0.7,2.3-0.7c0.9,0,1.7,0.3,2.2,0.9c0.5,0.6,0.8,1.4,0.8,2.4s-0.2,1.9-0.6,2.7s-0.9,1.5-1.6,2
				C279.3,769,278.5,769.2,277.6,769.2z M277.8,768c0.5,0,1-0.2,1.4-0.5s0.8-0.8,1-1.4c0.2-0.6,0.4-1.3,0.4-2.1
				c0-0.7-0.1-1.2-0.4-1.5c-0.3-0.4-0.7-0.5-1.2-0.5s-1,0.2-1.4,0.5s-0.8,0.8-1,1.4c-0.2,0.6-0.4,1.3-0.4,2.1c0,0.7,0.1,1.2,0.4,1.5
				C276.8,767.8,277.2,768,277.8,768z"/>
			<path class="st5" d="M288.1,768.4c-0.3,0.2-0.6,0.4-1,0.5s-0.8,0.2-1.2,0.2c-1.4,0-2-0.6-2-1.7c0-0.3,0.1-0.8,0.2-1.6l0.7-3.6
				h-1.5l0.2-1l1.6-0.2l0.7-2.3h1.2l-0.4,2.3h2.4l-0.2,1.2h-2.4l-0.7,3.5c-0.1,0.8-0.2,1.3-0.2,1.5c0,0.3,0.1,0.5,0.2,0.6
				s0.4,0.2,0.7,0.2c0.4,0,0.9-0.1,1.4-0.3L288.1,768.4z"/>
			<path class="st5" d="M295.5,768.2c-1,0.7-2.2,1.1-3.4,1.1c-0.9,0-1.5-0.3-2-0.8s-0.7-1.2-0.7-2.2c0-0.7,0.1-1.4,0.3-2.1
				c0.2-0.7,0.6-1.3,1-1.8s0.9-1,1.6-1.3c0.6-0.3,1.3-0.5,2-0.5s1.2,0.2,1.5,0.5c0.4,0.3,0.6,0.8,0.6,1.3c0,0.8-0.4,1.6-1.2,2.2
				c-0.8,0.6-1.9,1-3.3,1.3l-1,0.2c0,0.7,0.1,1.2,0.4,1.5c0.2,0.3,0.7,0.5,1.2,0.5c0.8,0,1.6-0.3,2.6-0.8L295.5,768.2z M293.9,761.8
				c-0.5,0-0.9,0.1-1.3,0.4c-0.4,0.3-0.8,0.7-1.1,1.2c-0.3,0.5-0.5,1.1-0.6,1.7l1-0.2c0.9-0.2,1.7-0.5,2.2-0.9s0.8-0.8,0.8-1.3
				c0-0.2-0.1-0.4-0.2-0.6C294.4,761.9,294.2,761.8,293.9,761.8z"/>
			<path class="st5" d="M302.4,769l0.8-4.2c0.2-0.8,0.3-1.5,0.3-1.8c0-0.7-0.4-1.1-1.1-1.1c-0.4,0-0.8,0.2-1.3,0.5s-1,0.7-1.4,1.3
				l-1.1,5.3H297l1.6-8.1h1.3l-0.1,1.5c0.5-0.6,1-1,1.5-1.3s1.1-0.5,1.6-0.5c0.7,0,1.2,0.2,1.5,0.5c0.4,0.4,0.5,0.9,0.5,1.6
				c0,0.2,0,0.5-0.1,0.7c0,0.3-0.1,0.7-0.2,1.3l-0.8,4.2L302.4,769L302.4,769z"/>
			<path class="st5" d="M315.8,769l0.8-4.2c0.2-0.8,0.3-1.5,0.3-1.8c0-0.7-0.4-1.1-1.1-1.1c-0.4,0-0.8,0.2-1.3,0.5s-1,0.7-1.4,1.3
				L312,769h-1.5l1.6-8.1h1.3l-0.1,1.5c0.5-0.6,1-1,1.5-1.3s1.1-0.5,1.6-0.5c0.7,0,1.2,0.2,1.5,0.5c0.4,0.4,0.5,0.9,0.5,1.6
				c0,0.2,0,0.5-0.1,0.7c0,0.3-0.1,0.7-0.2,1.3l-0.8,4.2L315.8,769L315.8,769z"/>
			<path class="st5" d="M324.8,769l0.1-1.5c-0.4,0.5-0.9,1-1.4,1.3s-1,0.4-1.6,0.4c-0.7,0-1.2-0.2-1.6-0.7s-0.5-1.1-0.5-2
				c0-1,0.2-1.9,0.6-2.8c0.4-0.9,1-1.6,1.8-2.2s1.6-0.9,2.5-0.9c0.4,0,0.9,0.1,1.4,0.2c0.5,0.1,1,0.3,1.4,0.5L326,769H324.8z
				 M322.5,768c0.8,0,1.7-0.6,2.6-1.7l0.8-4.2c-0.5-0.1-0.9-0.2-1.2-0.2c-0.6,0-1.1,0.2-1.6,0.6c-0.5,0.4-0.9,0.9-1.3,1.6
				c-0.3,0.7-0.5,1.4-0.5,2.3c0,0.5,0.1,1,0.3,1.2C321.8,767.8,322.1,768,322.5,768z"/>
			<path class="st5" d="M331.4,769.2c-0.9,0-1.6-0.3-2.1-0.8s-0.8-1.3-0.8-2.2c0-1,0.2-1.9,0.6-2.7c0.4-0.9,1-1.6,1.7-2.1
				s1.6-0.8,2.4-0.8c0.3,0,0.7,0,1,0.1s0.6,0.2,0.9,0.3l-0.2,1.2c-0.5-0.2-1-0.3-1.5-0.3c-0.6,0-1.2,0.2-1.7,0.5s-0.9,0.8-1.2,1.5
				c-0.3,0.6-0.4,1.4-0.4,2.2c0,0.7,0.1,1.1,0.4,1.4s0.7,0.4,1.2,0.4c0.6,0,1.4-0.2,2.3-0.8l0.4,1c-0.4,0.3-0.9,0.6-1.4,0.8
				C332.5,769.1,332,769.2,331.4,769.2z"/>
			<path class="st5" d="M338.4,762.3c0.5-0.6,1-1,1.5-1.3s1.1-0.4,1.6-0.4c0.7,0,1.2,0.2,1.5,0.5c0.4,0.4,0.5,0.9,0.5,1.6
				c0,0.2,0,0.5-0.1,0.7c0,0.3-0.1,0.7-0.2,1.3l-0.8,4.2H341l0.8-4.2c0.2-0.8,0.3-1.5,0.3-1.8c0-0.7-0.4-1.1-1.1-1.1
				c-0.4,0-0.8,0.2-1.3,0.5s-1,0.8-1.5,1.3l-1,5.3h-1.5l2.3-11.8h1.5L338.4,762.3z"/>
			<path class="st5" d="M349.1,769l1.6-8.1h1.3l-0.1,1.6c0.8-1.1,1.6-1.6,2.6-1.6c0.2,0,0.5,0,0.7,0.1l-0.3,1.4
				c-0.3,0-0.6-0.1-0.7-0.1c-0.9,0-1.7,0.5-2.4,1.4l-1.1,5.4h-1.6V769z"/>
			<path class="st5" d="M361.2,768.2c-1,0.7-2.2,1.1-3.4,1.1c-0.9,0-1.5-0.3-2-0.8s-0.7-1.2-0.7-2.2c0-0.7,0.1-1.4,0.3-2.1
				c0.2-0.7,0.6-1.3,1-1.8s0.9-1,1.6-1.3c0.6-0.3,1.3-0.5,2-0.5s1.2,0.2,1.5,0.5c0.4,0.3,0.6,0.8,0.6,1.3c0,0.8-0.4,1.6-1.2,2.2
				c-0.8,0.6-1.9,1-3.3,1.3l-1,0.2c0,0.7,0.1,1.2,0.4,1.5c0.2,0.3,0.7,0.5,1.2,0.5c0.8,0,1.6-0.3,2.6-0.8L361.2,768.2z M359.6,761.8
				c-0.5,0-0.9,0.1-1.3,0.4c-0.4,0.3-0.8,0.7-1.1,1.2c-0.3,0.5-0.5,1.1-0.6,1.7l1-0.2c0.9-0.2,1.7-0.5,2.2-0.9s0.8-0.8,0.8-1.3
				c0-0.2-0.1-0.4-0.2-0.6C360.2,761.9,359.9,761.8,359.6,761.8z"/>
			<path class="st5" d="M365.7,769.2c-0.9,0-1.6-0.3-2.1-0.8s-0.8-1.3-0.8-2.2c0-1,0.2-1.9,0.6-2.7c0.4-0.9,1-1.6,1.7-2.1
				s1.6-0.8,2.4-0.8c0.3,0,0.7,0,1,0.1s0.6,0.2,0.9,0.3l-0.2,1.2c-0.5-0.2-1-0.3-1.5-0.3c-0.6,0-1.2,0.2-1.7,0.5s-0.9,0.8-1.2,1.5
				c-0.3,0.6-0.4,1.4-0.4,2.2c0,0.7,0.1,1.1,0.4,1.4s0.7,0.4,1.2,0.4c0.6,0,1.4-0.2,2.3-0.8l0.4,1c-0.4,0.3-0.9,0.6-1.4,0.8
				C366.7,769.1,366.2,769.2,365.7,769.2z"/>
			<path class="st5" d="M372.7,762.3c0.5-0.6,1-1,1.5-1.3s1.1-0.4,1.6-0.4c0.7,0,1.2,0.2,1.5,0.5c0.4,0.4,0.5,0.9,0.5,1.6
				c0,0.2,0,0.5-0.1,0.7c0,0.3-0.1,0.7-0.2,1.3l-0.8,4.2h-1.5l0.8-4.2c0.2-0.8,0.3-1.5,0.3-1.8c0-0.7-0.4-1.1-1.1-1.1
				c-0.4,0-0.8,0.2-1.3,0.5s-1,0.8-1.5,1.3l-1,5.3h-1.5l2.3-11.8h1.5L372.7,762.3z"/>
			<path class="st5" d="M384.1,768.4c-0.3,0.2-0.6,0.4-1,0.5s-0.8,0.2-1.2,0.2c-1.4,0-2-0.6-2-1.7c0-0.3,0.1-0.8,0.2-1.6l0.7-3.6
				h-1.5l0.2-1l1.6-0.2l0.7-2.3h1.2l-0.4,2.3h2.4l-0.2,1.2h-2.4l-0.7,3.5c-0.1,0.8-0.2,1.3-0.2,1.5c0,0.3,0.1,0.5,0.2,0.6
				s0.4,0.2,0.7,0.2c0.4,0,0.9-0.1,1.4-0.3L384.1,768.4z"/>
			<path class="st5" d="M387.5,765.2c-0.5-0.3-0.9-0.6-1.1-0.9c-0.2-0.3-0.4-0.7-0.4-1.1c0-0.5,0.1-0.9,0.4-1.3
				c0.3-0.4,0.6-0.7,1.1-0.9s1-0.3,1.6-0.3c0.9,0,1.6,0.2,2.3,0.5l-0.2,1.1c-0.3-0.1-0.6-0.2-1-0.3s-0.7-0.1-1-0.1
				c-0.5,0-0.9,0.1-1.2,0.3s-0.4,0.5-0.4,0.9s0.3,0.8,0.9,1.1l1,0.5c0.5,0.3,0.9,0.6,1.1,0.9s0.3,0.7,0.3,1.1c0,0.8-0.3,1.4-0.9,1.9
				s-1.3,0.7-2.3,0.7c-0.5,0-1-0.1-1.5-0.2s-0.9-0.3-1.2-0.4l0.2-1.1c0.4,0.2,0.8,0.3,1.2,0.4c0.5,0.1,0.9,0.1,1.3,0.1
				c0.5,0,0.9-0.1,1.2-0.3s0.4-0.5,0.4-0.9c0-0.2-0.1-0.4-0.2-0.6c-0.1-0.2-0.4-0.3-0.7-0.5L387.5,765.2z"/>
			<path class="st5" d="M402.7,769l-0.5-6.3l-2.8,6.3h-1.5l-1.1-8.1h1.6l0.6,6.5l2.8-6.5h1.5l0.5,6.7c1.2-2.3,2.1-4.5,2.8-6.7h1.6
				c-0.4,1.2-1,2.5-1.7,4.1s-1.5,2.9-2.2,4H402.7z"/>
			<path class="st5" d="M408.3,769l1.6-8.1h1.5l-1.6,8.1H408.3z M410.9,759.4c-0.3,0-0.5-0.1-0.6-0.2c-0.2-0.1-0.2-0.3-0.2-0.6
				s0.1-0.6,0.3-0.8c0.2-0.2,0.5-0.3,0.8-0.3s0.5,0.1,0.6,0.2c0.2,0.1,0.2,0.3,0.2,0.6s-0.1,0.6-0.3,0.8
				C411.5,759.3,411.3,759.4,410.9,759.4z"/>
			<path class="st5" d="M414.5,765.2c-0.5-0.3-0.9-0.6-1.1-0.9c-0.2-0.3-0.4-0.7-0.4-1.1c0-0.5,0.1-0.9,0.4-1.3
				c0.3-0.4,0.6-0.7,1.1-0.9s1-0.3,1.6-0.3c0.9,0,1.6,0.2,2.3,0.5l-0.2,1.1c-0.3-0.1-0.6-0.2-1-0.3s-0.7-0.1-1-0.1
				c-0.5,0-0.9,0.1-1.2,0.3s-0.4,0.5-0.4,0.9s0.3,0.8,0.9,1.1l1,0.5c0.5,0.3,0.9,0.6,1.1,0.9s0.3,0.7,0.3,1.1c0,0.8-0.3,1.4-0.9,1.9
				s-1.3,0.7-2.3,0.7c-0.5,0-1-0.1-1.5-0.2s-0.9-0.3-1.2-0.4l0.2-1.1c0.4,0.2,0.8,0.3,1.2,0.4c0.5,0.1,0.9,0.1,1.3,0.1
				c0.5,0,0.9-0.1,1.2-0.3s0.4-0.5,0.4-0.9c0-0.2-0.1-0.4-0.2-0.6c-0.1-0.2-0.4-0.3-0.7-0.5L414.5,765.2z"/>
			<path class="st5" d="M422.1,769.2c-0.9,0-1.6-0.3-2.1-0.8s-0.8-1.3-0.8-2.2c0-1,0.2-1.9,0.6-2.7c0.4-0.9,1-1.6,1.7-2.1
				s1.6-0.8,2.4-0.8c0.3,0,0.7,0,1,0.1s0.6,0.2,0.9,0.3l-0.2,1.2c-0.5-0.2-1-0.3-1.5-0.3c-0.6,0-1.2,0.2-1.7,0.5s-0.9,0.8-1.2,1.5
				c-0.3,0.6-0.4,1.4-0.4,2.2c0,0.7,0.1,1.1,0.4,1.4s0.7,0.4,1.2,0.4c0.6,0,1.4-0.2,2.3-0.8l0.4,1c-0.4,0.3-0.9,0.6-1.4,0.8
				C423.2,769.1,422.6,769.2,422.1,769.2z"/>
			<path class="st5" d="M429.1,762.3c0.5-0.6,1-1,1.5-1.3s1.1-0.4,1.6-0.4c0.7,0,1.2,0.2,1.5,0.5c0.4,0.4,0.5,0.9,0.5,1.6
				c0,0.2,0,0.5-0.1,0.7c0,0.3-0.1,0.7-0.2,1.3l-0.8,4.2h-1.5l0.8-4.2c0.2-0.8,0.3-1.5,0.3-1.8c0-0.7-0.4-1.1-1.1-1.1
				c-0.4,0-0.8,0.2-1.3,0.5s-1,0.8-1.5,1.3l-1,5.3h-1.5l2.3-11.8h1.5L429.1,762.3z"/>
			<path class="st5" d="M441.7,768.2c-1,0.7-2.2,1.1-3.4,1.1c-0.9,0-1.5-0.3-2-0.8s-0.7-1.2-0.7-2.2c0-0.7,0.1-1.4,0.3-2.1
				c0.2-0.7,0.6-1.3,1-1.8s0.9-1,1.6-1.3c0.6-0.3,1.3-0.5,2-0.5s1.2,0.2,1.5,0.5c0.4,0.3,0.6,0.8,0.6,1.3c0,0.8-0.4,1.6-1.2,2.2
				c-0.8,0.6-1.9,1-3.3,1.3l-1,0.2c0,0.7,0.1,1.2,0.4,1.5c0.2,0.3,0.7,0.5,1.2,0.5c0.8,0,1.6-0.3,2.6-0.8L441.7,768.2z M440.2,761.8
				c-0.5,0-0.9,0.1-1.3,0.4c-0.4,0.3-0.8,0.7-1.1,1.2c-0.3,0.5-0.5,1.1-0.6,1.7l1-0.2c0.9-0.2,1.7-0.5,2.2-0.9s0.8-0.8,0.8-1.3
				c0-0.2-0.1-0.4-0.2-0.6C440.7,761.9,440.5,761.8,440.2,761.8z"/>
			<path class="st5" d="M448.6,769l0.8-4.2c0.2-0.8,0.3-1.5,0.3-1.8c0-0.7-0.4-1.1-1.1-1.1c-0.4,0-0.8,0.2-1.3,0.5s-1,0.7-1.4,1.3
				l-1.1,5.3h-1.5l1.6-8.1h1.3l-0.1,1.5c0.5-0.6,1-1,1.5-1.3s1.1-0.5,1.6-0.5c0.7,0,1.2,0.2,1.5,0.5c0.4,0.4,0.5,0.9,0.5,1.6
				c0,0.2,0,0.5-0.1,0.7c0,0.3-0.1,0.7-0.2,1.3l-0.8,4.2L448.6,769L448.6,769z"/>
		</g>
	</g>
</g>
</svg>
