<?xml version="1.0" encoding="utf-8"?>
<!-- Generator: Adobe Illustrator 21.0.2, SVG Export Plug-In . SVG Version: 6.00 Build 0)  -->
<svg version="1.1" id="OBJECTS" xmlns="http://www.w3.org/2000/svg" xmlns:xlink="http://www.w3.org/1999/xlink" x="0px" y="0px"
	 viewBox="0 0 853.3 533.3" style="enable-background:new 0 0 853.3 533.3;" xml:space="preserve">
<style type="text/css">
	.st0{clip-path:url(#SVGID_2_);}
	.st1{fill:none;}
	.st2{opacity:0.6;}
	.st3{fill:#FFFFFF;}
	.st4{font-family:'AmazonEmber-Regular';}
	.st5{font-size:13.8165px;}
	.st6{opacity:0.6;fill:#FFFFFF;enable-background:new    ;}
	.st7{opacity:0.9;}
	.st8{font-family:'AmazonEmber-Thin';}
	.st9{font-size:51.8596px;}
	.st10{font-size:14px;}
	.st11{opacity:0.15;}
	.st12{font-family:'AmazonEmber-Bold';}
	.st13{font-size:12px;}
	.st14{fill:#00A5E2;}
	.st15{opacity:0.3;fill:#FFFFFF;enable-background:new    ;}
	.st16{opacity:0.9;fill:#FFFFFF;enable-background:new    ;}
	.st17{font-size:13.1511px;}
</style>
<symbol  id="twitter_icon" viewBox="-7 -12 14 24">
	<g>
		<g>
			<g>
				<g>
					<defs>
						<rect id="SVGID_1_" x="-7" y="-7" width="14" height="14"/>
					</defs>
					<clipPath id="SVGID_2_">
						<use xlink:href="#SVGID_1_"  style="overflow:visible;"/>
					</clipPath>
					<path class="st0" d="M6.7,4.1c-0.5-0.2-1-0.4-1.6-0.4c0.6,0.3,1,0.9,1.2,1.5C5.8,4.9,5.2,4.7,4.6,4.6c-0.5,0.5-1.2,0.9-2,0.9
						c-1.5,0-2.8-1.2-2.8-2.7c0-0.2,0-0.4,0.1-0.6c-2.3,0.1-4.3,1.2-5.7,2.9C-6,4.5-6.1,4-6.1,3.5c0-0.9,0.5-1.8,1.2-2.3
						c-0.5,0-0.9,0.1-1.2,0.3l0,0c0-1.3,0.9-2.4,2.2-2.7c-0.2-0.1-0.5-0.1-0.7-0.1s-0.4,0-0.5,0C-4.8-2.2-3.8-3-2.6-3.1
						c-1-0.7-2.2-1.1-3.4-1.1c-0.2,0-0.4,0-0.7,0C-5.5-5-4-5.4-2.5-5.4c5.1,0,7.8,4.2,7.8,7.8c0,0.1,0,0.2,0,0.4
						C5.9,3.1,6.3,3.6,6.7,4.1"/>
				</g>
			</g>
		</g>
	</g>
	<g>
		<rect x="-7" y="-12" class="st1" width="14" height="24"/>
	</g>
</symbol>
<g class="st2">
	<text transform="matrix(1 0 0 1 20 129.6953)" class="st3 st4 st5">Mon, Dec 8</text>
</g>
<g>
	<g>
		<g>
			<text transform="matrix(1 0 0 1 129.6348 130.0898)" class="st6 st4 st5">Tue 9:00 AM</text>
		</g>
	</g>
	<g>
		<path class="st3" d="M122.1,125.9c0-2.8-2.2-5.2-5.1-5.3v-0.9h0.6l0.3-0.3v-1.2l-0.3-0.3h-0.9h-0.9l-0.3,0.3v1.2l0.3,0.3h0.3v0.9
			c-2.6,0.3-4.7,2.6-4.7,5.3c0,1.4,0.6,2.7,1.5,3.6l-1.3,1.3l0.8,0.8l1.4-1.3c0.9,0.6,1.9,0.9,3,0.9c1,0,2-0.3,2.8-0.8l1.2,1.2
			l0.8-0.8l-1.2-1.1C121.5,128.7,122.1,127.4,122.1,125.9z M112.7,125.9c0-2.3,1.9-4.2,4.2-4.2s4.2,1.9,4.2,4.2
			c0,2.3-1.9,4.2-4.2,4.2S112.7,128.2,112.7,125.9z"/>
		<polygon class="st3" points="117.3,123.5 116.1,123.5 116.1,126.3 118.5,127.1 118.9,126 117.3,125.5 		"/>
		<path class="st3" d="M113.3,118.7L113.3,118.7l-0.1-0.1h0c-0.5-0.4-1.4-0.3-2.3,0.3c-0.8,0.6-1.2,1.5-1,2.1l0.8,1.1l3.3-2.4
			L113.3,118.7z"/>
		<path class="st3" d="M122.4,118.9c-0.8-0.6-1.8-0.7-2.3-0.3v0l-0.1,0.1l-0.7,1l3.3,2.4l0.8-1.1
			C123.7,120.5,123.3,119.6,122.4,118.9z"/>
	</g>
</g>
<g class="st7">
	<text transform="matrix(1 0 0 1 21.0097 102.8985)" class="st3 st8 st9">12:28</text>
	<text transform="matrix(1 0 0 1 21.0097 102.8985)" class="st3 st8 st9">12:28</text>
</g>
<g>
	<text transform="matrix(1 0 0 1 20 40.5)" class="st3 st4 st10">Jeff&apos;s 7th Fire</text>
	<g>
		<g>
			<path class="st3" d="M202.9,31.4c-0.5,0.2-1,0.4-1.6,0.4c0.6-0.3,1-0.9,1.2-1.5c-0.5,0.3-1.1,0.5-1.7,0.6c-0.5-0.5-1.2-0.9-2-0.9
				c-1.5,0-2.8,1.2-2.8,2.7c0,0.2,0,0.4,0.1,0.6c-2.3-0.1-4.3-1.2-5.7-2.9c-0.2,0.6-0.3,1.1-0.3,1.6c0,0.9,0.5,1.8,1.2,2.3
				c-0.5,0-0.9-0.1-1.2-0.3c0,1.3,0.9,2.4,2.2,2.7c-0.2,0.1-0.5,0.1-0.7,0.1c-0.2,0-0.4,0-0.5,0c0.3,0.9,1.3,1.7,2.5,1.8
				c-1,0.7-2.2,1.1-3.4,1.1c-0.2,0-0.4,0-0.7,0c1.2,0.8,2.7,1.2,4.2,1.2c5.1,0,7.8-4.2,7.8-7.8c0-0.1,0-0.2,0-0.4
				C202.1,32.4,202.5,31.9,202.9,31.4"/>
		</g>
		<g>
			<path class="st3" d="M224.9,31.4c-0.5,0.2-1,0.4-1.6,0.4c0.6-0.3,1-0.9,1.2-1.5c-0.5,0.3-1.1,0.5-1.7,0.6c-0.5-0.5-1.2-0.9-2-0.9
				c-1.5,0-2.8,1.2-2.8,2.7c0,0.2,0,0.4,0.1,0.6c-2.3-0.1-4.3-1.2-5.7-2.9c-0.2,0.6-0.3,1.1-0.3,1.6c0,0.9,0.5,1.8,1.2,2.3
				c-0.5,0-0.9-0.1-1.2-0.3c0,1.3,0.9,2.4,2.2,2.7c-0.2,0.1-0.5,0.1-0.7,0.1c-0.2,0-0.4,0-0.5,0c0.3,0.9,1.3,1.7,2.5,1.8
				c-1,0.7-2.2,1.1-3.4,1.1c-0.2,0-0.4,0-0.7,0c1.2,0.8,2.7,1.2,4.2,1.2c5.1,0,7.8-4.2,7.8-7.8c0-0.1,0-0.2,0-0.4
				C224.1,32.4,224.5,31.9,224.9,31.4"/>
		</g>
	</g>
	<g>
		<g>
			<polygon class="st3" points="233.2,30.5 233.2,32.3 240.2,36 247.2,32.3 247.2,30.5 			"/>
			<polygon class="st3" points="240.2,37.3 233.2,33.7 233.2,40.5 247.2,40.5 247.2,33.7 			"/>
		</g>
	</g>
	<g>
		<g>
			<g>
				<g class="st11">
					<circle class="st3" cx="129" cy="37" r="8"/>
				</g>
				<g>
					<circle class="st3" cx="129" cy="35.5" r="8"/>
				</g>
			</g>
			<text transform="matrix(1.0165 0 0 1 125.4253 39.5002)" class="st12 st13">2</text>
		</g>
	</g>
	<g>
		<g>
			<g>
				<g>
					<g>
						<path class="st3" d="M158.4,30h-2.3v-1.2c0-0.2-0.1-0.3-0.3-0.3h-1.2c-0.2,0-0.3,0.1-0.3,0.3V30h-4.7v-1.2
							c0.1-0.2-0.1-0.3-0.2-0.3h-1.2c-0.2,0-0.3,0.1-0.3,0.3V30h-2.3c-0.3,0-0.6,0.2-0.6,0.5v11.4c0,0.3,0.3,0.6,0.6,0.6h12.8
							c0.3,0,0.6-0.3,0.6-0.6V30.5C159,30.2,158.7,30,158.4,30 M157.8,41.3h-11.6V31.1h1.7v1.8c0,0.2,0.1,0.3,0.3,0.3h1.2
							c0.2,0,0.3-0.1,0.3-0.3v-1.7h4.7v1.7c0,0.2,0.1,0.3,0.3,0.3h1.2c0.2,0,0.3-0.1,0.3-0.3v-1.7h1.8v10.1
							C158,41.3,157.8,41.3,157.8,41.3z"/>
					</g>
				</g>
			</g>
			<g>
				<g>
					<g>
						<rect x="150.3" y="34.3" class="st3" width="1.2" height="1.2"/>
					</g>
				</g>
			</g>
			<g>
				<g>
					<g>
						<rect x="152.6" y="34.3" class="st3" width="1.2" height="1.2"/>
					</g>
				</g>
			</g>
			<g>
				<g>
					<g>
						<rect x="154.9" y="34.3" class="st3" width="1.2" height="1.2"/>
					</g>
				</g>
			</g>
			<g>
				<g>
					<g>
						<rect x="147.9" y="36.6" class="st3" width="1.2" height="1.2"/>
					</g>
				</g>
			</g>
			<g>
				<g>
					<g>
						<rect x="150.3" y="36.6" class="st3" width="1.2" height="1.2"/>
					</g>
				</g>
			</g>
			<g>
				<g>
					<g>
						<rect x="152.6" y="36.6" class="st3" width="1.2" height="1.2"/>
					</g>
				</g>
			</g>
			<g>
				<g>
					<g>
						<rect x="154.9" y="36.6" class="st3" width="1.2" height="1.2"/>
					</g>
				</g>
			</g>
			<g>
				<g>
					<g>
						<rect x="147.9" y="39" class="st3" width="1.2" height="1.2"/>
					</g>
				</g>
			</g>
			<g>
				<g>
					<g>
						<rect x="150.3" y="39" class="st3" width="1.2" height="1.2"/>
					</g>
				</g>
			</g>
			<g>
				<g>
					<g>
						<rect x="152.6" y="39" class="st3" width="1.2" height="1.2"/>
					</g>
				</g>
			</g>
			<g>
				<g>
					<g>
						<rect x="154.9" y="39" class="st3" width="1.2" height="1.2"/>
					</g>
				</g>
			</g>
		</g>
	</g>
	<g>
		<g>
			<g>
				<g>
					<g>
						<path class="st3" d="M179.9,28.8H168c-0.4,0-0.7,0.4-0.7,0.8v11.9c0,0.4,0.3,0.7,0.7,0.7h6.6V37h-2v-2h2v-1.5
							c0-1.7,1-2.7,2.6-2.7c0.7,0,1.5,0.1,1.5,0.1v2h-1.2c-0.8,0-0.9,0.3-0.9,0.9v1.1h1.9l-0.3,2h-1.6v5.2h3.3
							c0.4,0,0.8-0.3,0.8-0.7V29.6C180.7,29.2,180.3,28.8,179.9,28.8"/>
					</g>
				</g>
			</g>
		</g>
	</g>
</g>
<g>
	<circle class="st14" cx="812.2" cy="38.8" r="18.8"/>
	<g>
		<path class="st3" d="M818.1,28.6c-0.8-2.4-3.2-4-5.9-4s-5.1,1.6-5.9,4c-0.5,1.3-0.6,2.5-0.5,4.3c0.4,5.4,2.9,9.1,6.4,9.2
			c3.5,0,6.1-3.8,6.4-9.2C818.8,31.1,818.6,30,818.1,28.6z M814.9,37.8c-0.5,1-1.3,2.1-2.8,2.1s-2.3-1.1-2.8-2.1
			c-0.1-0.1,0.1-0.3,0.2-0.3c0.9,0.3,1.7,0.4,2.6,0.4c0.8,0,1.7-0.2,2.6-0.4C814.9,37.5,815,37.7,814.9,37.8z"/>
	</g>
	<g>
		<path class="st3" d="M812.2,55c5.1,0,9.6-2.3,12.6-6c0.5-0.6,0.5-1.5,0.1-2.1c-0.8-1.1-1.4-1.6-1.4-1.6l0,0
			c-0.2-0.2-0.5-0.4-0.7-0.6c0,0-0.1,0-0.1-0.1h-0.1c-1.6-0.6-3.8-1-5.7-1.3c-0.3,0-0.6,0-0.9,0.2l0,0c-1.1,0.8-2.3,1.2-3.7,1.2
			s-2.5-0.4-3.7-1.2l0,0c-0.3-0.2-0.6-0.2-0.9-0.2c-1.9,0.2-4.2,0.6-5.7,1.3h-0.1c0,0-0.1,0-0.1,0.1c-0.2,0.1-0.5,0.3-0.7,0.6l0,0
			c0,0-0.6,0.5-1.4,1.6c-0.5,0.6-0.4,1.5,0.1,2.1C802.6,52.6,807.1,55,812.2,55z"/>
	</g>
</g>
<g>
	<g class="st7">
		<g>
			<path class="st15" d="M707.9,33.3c-3.7,0-7,1.5-9.4,4l1.2,1.1c2.1-2.2,5-3.5,8.2-3.5s6.1,1.3,8.2,3.5l1.2-1.1
				C714.9,34.8,711.6,33.3,707.9,33.3z"/>
			<path class="st3" d="M707.9,36.1c-2.9,0-5.5,1.2-7.3,3.1l1.2,1.1c1.6-1.6,3.7-2.6,6.1-2.6s4.6,1,6.1,2.6l1.2-1.1
				C713.4,37.3,710.8,36.1,707.9,36.1z"/>
			<path class="st3" d="M707.9,39c-2.1,0-3.9,0.9-5.3,2.3l1.2,1.1c1-1.1,2.5-1.8,4.1-1.8s3.1,0.7,4.1,1.8l1.2-1.1
				C711.9,39.8,710,39,707.9,39z"/>
			<path class="st3" d="M707.9,41.8c-1.3,0-2.4,0.5-3.2,1.4l1.2,1.1c0.5-0.5,1.2-0.9,2-0.9s1.5,0.3,2,0.9l1.2-1.1
				C710.3,42.3,709.2,41.8,707.9,41.8z"/>
		</g>
	</g>
	<g class="st7">
		<path class="st3" d="M668,41.6l-2.8-2.7l2.8-2.5l-4.1-4.1v5.4l-2.1-2l-0.7,0.8l2.5,2.4l-2.5,2.3l0.7,0.8l2.1-1.9v5.2L668,41.6z
			 M664.8,34.9l1.4,1.4l-1.4,1.3V34.9z M664.8,40.2l1.4,1.3l-1.4,1.3V40.2z"/>
	</g>
	<text transform="matrix(1 0 0 1 724.3174 43.4844)" class="st16 st4 st17">99%</text>
	<g class="st7">
		<g>
			<path class="st3" d="M760.5,36.1c-0.4,0-0.7,0.3-0.7,0.7v4c0,0.4,0.3,0.7,0.7,0.7h9.9v-5.3h-9.9V36.1z"/>
		</g>
		<g>
			<g>
				<path class="st3" d="M777.3,36.6h-0.9v-2.2c0-0.5-0.4-0.9-0.9-0.9h-18.1c-0.5,0-0.9,0.4-0.9,0.9v8.8c0,0.5,0.4,0.9,0.9,0.9h18.1
					c0.5,0,0.9-0.4,0.9-0.9V41h0.9c0.2,0,0.4-0.2,0.4-0.4V37C777.7,36.8,777.5,36.6,777.3,36.6z M775.1,42.8h-17.2v-8h17.2V37v3.5
					V42.8z"/>
			</g>
		</g>
	</g>
	<g>
		<g>
			<path class="st3" d="M689.4,39.8c0-2.8-2.2-5-4.9-5.2v-0.7h0.5l0.4-0.4v-0.9l-0.4-0.4h-1h-0.9l-0.4,0.4v0.9l0.4,0.4h0.5v0.8
				c-2.6,0.3-4.6,2.5-4.6,5.1c0,1.4,0.5,2.6,1.4,3.5l-1.2,1.2l0.8,0.8l1.3-1.3c0.8,0.6,1.8,0.9,2.9,0.9c1,0,2-0.3,2.8-0.8l1.2,1.2
				l0.8-0.8l-1.1-1.1C688.8,42.6,689.4,41.3,689.4,39.8z M680.1,39.8c0-2.2,1.8-4.1,4.1-4.1c2.2,0,4.1,1.8,4.1,4.1
				c0,2.2-1.8,4.1-4.1,4.1C681.9,43.9,680.1,42.1,680.1,39.8z"/>
			<polygon class="st3" points="684.5,37.5 683.4,37.5 683.4,40.1 685.7,40.8 686,39.8 684.5,39.3 			"/>
			<path class="st3" d="M680.8,32.8L680.8,32.8L680.8,32.8L680.8,32.8L680.8,32.8c-0.5-0.5-1.5-0.4-2.3,0.2c-0.8,0.6-1.2,1.5-0.9,2
				l0,0l0.8,1.1l3.2-2.4L680.8,32.8z"/>
			<path class="st3" d="M689.6,33.1c-0.8-0.6-1.8-0.7-2.2-0.3l0,0l-0.1,0.1l0,0l0,0l-0.7,1l3.2,2.4l0.8-1.1l0,0
				C690.9,34.6,690.5,33.7,689.6,33.1z"/>
		</g>
	</g>
</g>
</svg>
