<svg xmlns="http://www.w3.org/2000/svg" xmlns:xlink="http://www.w3.org/1999/xlink" viewBox="0 0 853.33 533.33"><defs><style>.cls-1{fill:none;}.cls-2{font-size:14px;}.cls-17,.cls-18,.cls-2,.cls-24{font-family:AmazonEmber-Regular, Amazon Ember;}.cls-3{letter-spacing:0.03em;}.cls-4{letter-spacing:-0.04em;}.cls-5{letter-spacing:-0.01em;}.cls-6{letter-spacing:0em;}.cls-7{opacity:0.15;}.cls-12,.cls-8,.cls-9{fill:#fff;}.cls-9{font-size:12px;font-family:AmazonEmber-Bold, Amazon Ember;font-weight:700;}.cls-10{clip-path:url(#clip-path);}.cls-11{clip-path:url(#clip-path-2);}.cls-12,.cls-15{opacity:0;}.cls-13,.cls-24{opacity:0.9;}.cls-14{clip-path:url(#clip-path-3);}.cls-15{fill:#1a1a1a;}.cls-16,.cls-18,.cls-21{opacity:0.6;}.cls-17,.cls-18{font-size:13.82px;}.cls-19{letter-spacing:-0.05em;}.cls-20{font-size:51.86px;stroke:#000;stroke-miterlimit:10;stroke-width:0.5px;font-family:AmazonEmber-Thin, Amazon Ember;}.cls-21{font-size:16px;font-family:AmazonEmber-Italic, Amazon Ember;font-style:italic;letter-spacing:-0.02em;}.cls-22{letter-spacing:0em;}.cls-23{opacity:0.3;}.cls-24{font-size:13.15px;}</style><clipPath id="clip-path"><rect class="cls-1" x="141" y="5" width="14" height="14"/></clipPath><clipPath id="clip-path-2"><rect class="cls-1" x="163" y="5" width="14" height="14"/></clipPath><clipPath id="clip-path-3"><rect class="cls-1" y="5" width="14" height="14"/></clipPath><symbol id="ic_alarm_clock" data-name="ic_alarm_clock" viewBox="0 0 48 48"><rect class="cls-1" width="48" height="48"/><path d="M42.75,27.5A18.53,18.53,0,0,0,25,9.05V6h2l1-1V1L27,0H21L20,1V5l1,1h1V9.11a18.39,18.39,0,0,0-11.1,31L6.52,44.58l2.86,2.83L14,42.76a18.41,18.41,0,0,0,20.27.39l4.26,4.26,2.83-2.83-4.05-3.93A18.33,18.33,0,0,0,42.75,27.5ZM10,27.5A14.5,14.5,0,1,1,24.5,42,14.52,14.52,0,0,1,10,27.5Z"/><polygon points="26 19 22 19 22 28.99 30.34 31.48 31.49 27.65 26 26.01 26 19"/><path d="M12.31,2.4h0L12,2l-.06,0c-1.6-1.46-5-1-7.89,1.18S-.27,8.57.69,10.51l0,0L3.5,14.32,14.86,5.8Z"/><path d="M43.94,3.25C41,1.06,37.64.6,36,2.06L36,2l-.28.38h0L33.14,5.8,44.5,14.32l2.84-3.79,0,0C48.27,8.57,46.86,5.44,43.94,3.25Z"/></symbol><symbol id="twitter_icon" data-name="twitter icon" viewBox="0 0 14 24"><g class="cls-14"><path d="M13.71,7.87a5.58,5.58,0,0,1-1.58.43,2.74,2.74,0,0,0,1.21-1.51,5.5,5.5,0,0,1-1.75.66A2.75,2.75,0,0,0,6.9,9.94,7.83,7.83,0,0,1,1.23,7.08,2.72,2.72,0,0,0,.85,8.46,2.75,2.75,0,0,0,2.1,10.73a2.43,2.43,0,0,1-1.22-.34v0a2.72,2.72,0,0,0,2.19,2.68,2.86,2.86,0,0,1-1.26,0,2.75,2.75,0,0,0,2.57,1.9A5.54,5.54,0,0,1,1,16.23a5.69,5.69,0,0,1-.66,0,7.83,7.83,0,0,0,4.22,1.23,7.75,7.75,0,0,0,7.83-7.78c0-.12,0-.24,0-.35a5.58,5.58,0,0,0,1.37-1.42"/></g><rect class="cls-1" width="14" height="24"/></symbol><symbol id="Left_status_bar_icons" data-name="Left status bar icons" viewBox="0 0 302 24"><text class="cls-2" transform="translate(16 17)">Je<tspan class="cls-3" x="13.52" y="0">ff</tspan><tspan class="cls-4" x="23.81" y="0">&apos;</tspan><tspan x="26.28" y="0">s 7th Fi</tspan><tspan class="cls-5" x="72.37" y="0">r</tspan><tspan class="cls-6" x="77.45" y="0">e</tspan></text><rect class="cls-1" x="141" width="14" height="24"/><rect class="cls-1" x="163" width="14" height="24"/><use id="twitter_icon-3" data-name="twitter icon" width="14" height="24" transform="translate(185.18 0)" xlink:href="#twitter_icon"/><use width="14" height="24" transform="translate(207.18 0)" xlink:href="#twitter_icon"/><polygon points="229.18 7 229.18 8.84 236.18 12.51 243.18 8.84 243.18 7 229.18 7"/><polygon points="236.18 13.84 229.18 10.17 229.18 17 243.18 17 243.18 10.17 236.18 13.84"/><rect class="cls-1" x="229.18" width="14" height="24"/><g class="cls-7"><circle class="cls-8" cx="125" cy="13.5" r="8"/></g><circle cx="125" cy="12" r="8"/><text class="cls-9" transform="translate(121.43 16) scale(1.02 1)">2</text><rect class="cls-1" x="117" width="16" height="24"/><rect class="cls-1" width="302" height="24"/><g class="cls-10"><path d="M154.42,6.46h-2.33V5.29a.29.29,0,0,0-.29-.29h-1.17a.29.29,0,0,0-.29.29V6.46h-4.67V5.29a.29.29,0,0,0-.29-.29h-1.17a.29.29,0,0,0-.29.29V6.46h-2.33A.59.59,0,0,0,141,7V18.42a.59.59,0,0,0,.58.58h12.83a.59.59,0,0,0,.58-.58V7a.59.59,0,0,0-.58-.58m-.58,11.37H142.17V7.62h1.75V9.37a.3.3,0,0,0,.29.3h1.17a.3.3,0,0,0,.29-.3V7.62h4.67V9.37a.3.3,0,0,0,.29.3h1.17a.3.3,0,0,0,.29-.3V7.62h1.75Z"/><rect x="146.25" y="10.83" width="1.17" height="1.17"/><rect x="148.58" y="10.83" width="1.17" height="1.17"/><rect x="150.92" y="10.83" width="1.17" height="1.17"/><rect x="143.92" y="13.17" width="1.17" height="1.17"/><rect x="146.25" y="13.17" width="1.17" height="1.17"/><rect x="148.58" y="13.17" width="1.17" height="1.17"/><rect x="150.92" y="13.17" width="1.17" height="1.17"/><rect x="143.92" y="15.5" width="1.17" height="1.17"/><rect x="146.25" y="15.5" width="1.17" height="1.17"/><rect x="148.58" y="15.5" width="1.17" height="1.17"/><rect x="150.92" y="15.5" width="1.17" height="1.17"/></g><rect class="cls-1" x="141" width="14" height="24"/><g class="cls-11"><path d="M175.92,5.29H164a.79.79,0,0,0-.74.79V18a.74.74,0,0,0,.74.74h6.55V13.46h-2v-2h2V10a2.41,2.41,0,0,1,2.56-2.67,10.59,10.59,0,0,1,1.52.08V9.37h-1.16c-.84,0-.89.27-.89.86v1.19h1.88l-.26,2h-1.62v5.25h3.29a.79.79,0,0,0,.79-.74V6.08a.84.84,0,0,0-.79-.79"/></g><rect class="cls-1" x="163" width="14" height="24"/></symbol><symbol id="CAMERA" data-name="CAMERA" viewBox="0 0 48 48"><rect class="cls-1" width="48" height="48"/><path d="M23.93,17a10,10,0,1,0,10,10A10,10,0,0,0,23.93,17Z"/><path d="M35.93,10a3.11,3.11,0,0,1-2.7-1.87L31.63,3.87A3.11,3.11,0,0,0,28.93,2h-10a3.11,3.11,0,0,0-2.7,1.87L14.63,8.13A3.11,3.11,0,0,1,11.93,10h-10A1.94,1.94,0,0,0,0,12V44a1.94,1.94,0,0,0,1.93,2h44A2.07,2.07,0,0,0,48,44V12a2.07,2.07,0,0,0-2.07-2Zm-30,7a2,2,0,1,1,2-2A2,2,0,0,1,5.93,17Zm18,24a14,14,0,1,1,14-14A14,14,0,0,1,23.93,41Z"/></symbol><symbol id="LOCK" data-name="LOCK" viewBox="0 0 48 48"><rect class="cls-1" width="48" height="48"/><path d="M36,20V12a12,12,0,0,0-24,0v8H5V48H43V20ZM16,12a8,8,0,0,1,16,0v8H16Z"/></symbol><symbol id="f_ic_ad_browsing" data-name="f_ic_ad_browsing" viewBox="0 0 24 24"><rect class="cls-12" width="24" height="24"/><path class="cls-13" d="M6.54,1,3,4.54V8.78L14.31,20.09a2,2,0,0,0,2.83,0l4.95-4.95a2,2,0,0,0,0-2.83L10.78,1ZM9,7A1.5,1.5,0,1,1,9,4.89,1.5,1.5,0,0,1,9,7ZM5,23H3a2,2,0,0,1-2-2V12Zm7.39-1.28L9.66,22.85A2,2,0,0,1,7,21.77L3.24,12.57Z"/></symbol></defs><title>Gen7UI</title><g id="OBJECTS"><rect class="cls-15" x="160" y="-160" width="534" height="854" transform="translate(160 694) rotate(-90)"/><g class="cls-16"><text class="cls-17" transform="translate(20 129.7)">Mon, Dec 8</text></g><text class="cls-18" transform="translate(130.39 130.09)"><tspan class="cls-19">T</tspan><tspan x="7.17" y="0">ue 9:00 AM</tspan></text><use id="ic_alarm_clock-3" data-name="ic_alarm_clock" width="48" height="48" transform="translate(109.81 118) scale(0.29)" xlink:href="#ic_alarm_clock"/><g class="cls-13"><text class="cls-20" transform="translate(21.01 102.9)">12:28</text></g><use id="Left_status_bar_icons-3" data-name="Left status bar icons" width="302" height="24" transform="translate(5 26)" xlink:href="#Left_status_bar_icons"/><use id="CAMERA-3" data-name="CAMERA" width="48" height="48" transform="translate(808 490) scale(0.5)" xlink:href="#CAMERA"/><use id="LOCK-3" data-name="LOCK" width="48" height="48" transform="translate(414 490) scale(0.5)" xlink:href="#LOCK"/><text class="cls-21" transform="translate(327.8 457.54)">S<tspan class="cls-22" x="8.34" y="0">wipe right to browse offers</tspan></text><g class="cls-13"><path class="cls-23" d="M707.94,33.26a13,13,0,0,0-9.36,4l1.17,1.13a11.33,11.33,0,0,1,16.38,0l1.17-1.13A13,13,0,0,0,707.94,33.26Z"/><path d="M707.94,36.11a10.12,10.12,0,0,0-7.31,3.13l1.17,1.13a8.49,8.49,0,0,1,12.28,0l1.17-1.13A10.11,10.11,0,0,0,707.94,36.11Z"/><path d="M707.94,39a7.28,7.28,0,0,0-5.26,2.25l1.17,1.13a5.66,5.66,0,0,1,8.19,0l1.17-1.13A7.28,7.28,0,0,0,707.94,39Z"/><path d="M707.94,41.81a4.45,4.45,0,0,0-3.22,1.38l1.17,1.13a2.83,2.83,0,0,1,4.1,0l1.17-1.13A4.45,4.45,0,0,0,707.94,41.81Z"/><rect class="cls-1" x="698.55" y="27.51" width="18.79" height="22.54"/></g><g class="cls-13"><rect class="cls-1" x="660.04" y="27.51" width="9.39" height="22.54"/><path d="M668,41.55l-2.79-2.68,2.77-2.54-4.13-4.1v5.4l-2.05-2-.74.8,2.54,2.41-2.52,2.28.7.82L663.82,40v5.21Zm-3.22-6.66,1.4,1.4-1.4,1.27Zm0,5.31,1.39,1.32-1.39,1.25Z"/></g><text class="cls-24" transform="translate(724.32 43.48)">99%</text><g class="cls-13"><path d="M760.49,36.14a.66.66,0,0,0-.66.66v4a.66.66,0,0,0,.66.66h9.95v-5.3Z"/><path d="M777.29,36.58h-.88V34.37a.89.89,0,0,0-.88-.88H757.4a.89.89,0,0,0-.88.88v8.84a.89.89,0,0,0,.88.88h18.12a.89.89,0,0,0,.88-.88V41h.88a.44.44,0,0,0,.44-.44V37A.44.44,0,0,0,777.29,36.58Zm-2.21,6.19H757.84v-8h17.24v8Z"/><rect class="cls-1" x="755.85" y="27.52" width="22.54" height="22.54"/></g><path d="M689.38,39.85a5.19,5.19,0,0,0-4.91-5.16l0-.74h.45l.45-.45V32.6l-.45-.45h-1.8l-.45.45v.89l.45.45h.45l0,.76a5.16,5.16,0,0,0-3.22,8.68l-1.25,1.24.8.79,1.31-1.3a5.18,5.18,0,0,0,5.69.11l1.2,1.19.8-.79-1.1-1.1A5.14,5.14,0,0,0,689.38,39.85Zm-9.27,0a4.07,4.07,0,1,1,4.07,4.05A4.07,4.07,0,0,1,680.11,39.85Z"/><polygon points="684.5 37.46 683.38 37.46 683.38 40.11 685.71 40.78 686.03 39.76 684.5 39.32 684.5 37.46"/><path d="M680.76,32.83h0l-.08-.1h0c-.45-.41-1.4-.28-2.22.33s-1.22,1.49-.95,2h0l.8,1.06,3.19-2.38Z"/><path d="M689.64,33.06c-.82-.61-1.77-.74-2.22-.33h0l-.08.1h0l-.72,1,3.19,2.38.8-1.06h0C690.86,34.55,690.47,33.68,689.64,33.06Z"/><rect class="cls-1" x="676.94" y="27.51" width="14.09" height="22.54"/><use id="f_ic_ad_browsing-3" data-name="f_ic_ad_browsing" width="24" height="24" transform="translate(20 490)" xlink:href="#f_ic_ad_browsing"/></g></svg>