<?xml version="1.0" encoding="utf-8"?>
<!-- Generator: Adobe Illustrator 22.1.0, SVG Export Plug-In . SVG Version: 6.00 Build 0)  -->
<svg version="1.1" id="Layer_1" xmlns="http://www.w3.org/2000/svg" xmlns:xlink="http://www.w3.org/1999/xlink" x="0px" y="0px"
	 viewBox="0 0 533.3 853.3" style="enable-background:new 0 0 533.3 853.3;" xml:space="preserve">
<style type="text/css">
	.st0{fill:none;}
	.st1{fill:#FFFFFF;fill-opacity:0;}
	.st2{opacity:0.9;enable-background:new    ;}
	.st3{opacity:0.6;}
</style>
<symbol  id="CAMERA" viewBox="-24 -24 48.1 48">
	<rect x="-24" y="-24" class="st0" width="48" height="48"/>
	<path d="M-0.2-7c-5.5,0-10,4.5-10,10s4.5,10,10,10s10-4.5,10-10S5.4-7-0.2-7z"/>
	<path d="M11.8-14c-1.2-0.1-2.2-0.8-2.7-1.9l-1.6-4.3C7-21.3,6-22,4.8-22.1h-10c-1.2,0.1-2.2,0.8-2.7,1.9l-1.6,4.3
		c-0.5,1.1-1.5,1.8-2.7,1.9h-10c-1.1,0-1.9,0.9-1.9,1.9c0,0,0,0,0,0.1v32c0,1.1,0.8,2,1.9,2c0,0,0,0,0.1,0h44c1.1,0,2-0.9,2.1-2v-32
		c0-1.1-1-2-2.1-2H11.8z M-18.2-7c-1.1,0-2-0.9-2-2s0.9-2,2-2c1.1,0,2,0.9,2,2S-17-7-18.2-7L-18.2-7z M-0.2,17c-7.7,0-14-6.3-14-14
		s6.3-14,14-14s14,6.3,14,14S7.6,17-0.2,17L-0.2,17z"/>
</symbol>
<symbol  id="LOCK" viewBox="-24 -24 48 48">
	<rect x="-24" y="-24" class="st0" width="48" height="48"/>
	<path d="M12-4v-8c0-6.6-5.4-12-12-12s-12,5.4-12,12v8h-7v28h38V-4H12z M-8-12c0-4.4,3.6-8,8-8s8,3.6,8,8v8H-8V-12z"/>
</symbol>
<symbol  id="f_ic_ad_browsing" viewBox="-12 -12 24 24">
	<rect x="-12" y="-12" class="st1" width="24" height="24"/>
	<path class="st2" d="M-5.5-11L-9-7.5v4.2L2.3,8.1c0.8,0.8,2,0.8,2.8,0l0,0l5-4.9c0.8-0.8,0.8-2,0-2.8l0,0L-1.2-11H-5.5z M-3-5
		c-0.6,0.6-1.5,0.6-2.1,0s-0.6-1.5,0-2.1s1.5-0.6,2.1,0l0,0C-2.4-6.5-2.4-5.6-3-5z M-7,11h-2c-1.1,0-2-0.9-2-2V0L-7,11z M0.4,9.7
		l-2.7,1.1c-1,0.4-2.2,0-2.6-1c0,0,0,0,0-0.1l-3.8-9.2L0.4,9.7z"/>
</symbol>
<title>Gen7UI</title>
<g id="OBJECTS">
	
		<use xlink:href="#LOCK"  width="48" height="48" id="LOCK-3" x="-24" y="-24" transform="matrix(0.46 0 0 0.46 267.04 821.04)" style="overflow:visible;"/>
	
		<use xlink:href="#CAMERA"  width="48.1" height="48" id="CAMERA-3" x="-24" y="-24" transform="matrix(0.4391 0 0 0.4391 502.2838 821.24)" style="overflow:visible;"/>
	<rect x="368.2" y="27.1" class="st0" width="13.2" height="21.2"/>
	
		<use xlink:href="#f_ic_ad_browsing"  width="24" height="24" id="f_ic_ad_browsing-3" x="-12" y="-12" transform="matrix(0.94 0 0 0.94 31.47 822.79)" style="overflow:visible;"/>
	<g class="st3">
		<path d="M71.7,769l0.2-1.2l7.5-8.6H74l0.3-1.3h7.3l-0.2,1.2l-7.5,8.6h5.8l-0.3,1.3H71.7z"/>
		<path d="M86.6,769l0.1-1.5c-0.4,0.5-0.9,1-1.5,1.3s-1.1,0.5-1.6,0.5c-0.6,0-1.1-0.2-1.4-0.5c-0.3-0.4-0.5-0.9-0.5-1.6
			c0-0.5,0.1-1.2,0.3-2l0.8-4.2h1.5l-0.8,4.2c-0.2,0.8-0.2,1.4-0.2,1.9c0,0.4,0.1,0.6,0.2,0.8c0.2,0.2,0.4,0.2,0.7,0.2
			c0.4,0,0.8-0.2,1.3-0.5c0.5-0.3,1-0.7,1.4-1.3l1-5.3h1.5l-1.6,8.1H86.6z"/>
		<path d="M100.6,769l0.8-4.2c0.2-0.8,0.3-1.5,0.3-1.8c0-0.7-0.3-1.1-1-1.1c-0.4,0-0.8,0.1-1.3,0.4c-0.5,0.3-0.9,0.7-1.4,1.2
			l-0.2,1.3L97,769h-1.5l0.8-4.2c0.2-0.8,0.3-1.5,0.3-1.8c0-0.7-0.3-1.1-1-1.1c-0.4,0-0.8,0.2-1.2,0.5s-0.9,0.7-1.4,1.3l-1.1,5.4
			h-1.5l1.6-8.1h1.3l-0.1,1.5c0.5-0.6,0.9-1,1.5-1.3c0.5-0.3,1-0.4,1.5-0.4c0.6,0,1.1,0.2,1.4,0.5c0.3,0.3,0.5,0.7,0.6,1.3
			c0.5-0.6,1-1,1.5-1.3c0.5-0.3,1.1-0.5,1.7-0.5c0.6,0,1.1,0.2,1.5,0.5c0.3,0.4,0.5,0.9,0.5,1.6c0,0.2,0,0.5-0.1,0.7
			c0,0.3-0.1,0.7-0.2,1.3l-0.8,4.2H100.6z"/>
		<path d="M115.6,769l-0.4-3h-4.4l-1.6,3h-1.7l6.1-11.1h1.7l1.8,11.1H115.6z M111.4,764.8h3.6l-0.8-5.4L111.4,764.8z"/>
		<path d="M123.8,769l0.8-4.2c0.2-0.8,0.3-1.5,0.3-1.8c0-0.7-0.4-1.1-1.1-1.1c-0.4,0-0.8,0.2-1.3,0.5s-1,0.7-1.4,1.3L120,769h-1.5
			l1.6-8.1h1.3l-0.1,1.5c0.5-0.6,1-1,1.5-1.3c0.5-0.3,1.1-0.5,1.6-0.5c0.7,0,1.2,0.2,1.5,0.5c0.4,0.4,0.5,0.9,0.5,1.6
			c0,0.2,0,0.5-0.1,0.7c0,0.3-0.1,0.7-0.2,1.3l-0.8,4.2H123.8z"/>
		<path d="M129.9,765.2c-0.5-0.3-0.9-0.6-1.1-0.9c-0.2-0.3-0.4-0.7-0.4-1.1c0-0.5,0.1-0.9,0.4-1.3c0.3-0.4,0.6-0.7,1.1-0.9
			c0.5-0.2,1-0.3,1.6-0.3c0.9,0,1.6,0.2,2.3,0.5l-0.2,1.1c-0.3-0.1-0.6-0.2-1-0.3c-0.4-0.1-0.7-0.1-1-0.1c-0.5,0-0.9,0.1-1.2,0.3
			s-0.4,0.5-0.4,0.9c0,0.4,0.3,0.8,0.9,1.1l1,0.5c0.5,0.3,0.9,0.6,1.1,0.9s0.3,0.7,0.3,1.1c0,0.8-0.3,1.4-0.9,1.9s-1.3,0.7-2.3,0.7
			c-0.5,0-1-0.1-1.5-0.2s-0.9-0.3-1.2-0.4l0.2-1.1c0.4,0.2,0.8,0.3,1.2,0.4c0.5,0.1,0.9,0.1,1.3,0.1c0.5,0,0.9-0.1,1.2-0.3
			s0.4-0.5,0.4-0.9c0-0.2-0.1-0.4-0.2-0.6c-0.1-0.2-0.4-0.3-0.7-0.5L129.9,765.2z"/>
		<path d="M137.6,769.2c-0.9,0-1.6-0.3-2.1-0.8c-0.5-0.5-0.8-1.3-0.8-2.2c0-1,0.2-1.9,0.6-2.7c0.4-0.9,1-1.6,1.7-2.1
			s1.6-0.8,2.4-0.8c0.3,0,0.7,0,1,0.1c0.3,0.1,0.6,0.2,0.9,0.3l-0.2,1.2c-0.5-0.2-1-0.3-1.5-0.3c-0.6,0-1.2,0.2-1.7,0.5
			c-0.5,0.3-0.9,0.8-1.2,1.5c-0.3,0.6-0.4,1.4-0.4,2.2c0,0.7,0.1,1.1,0.4,1.4s0.7,0.4,1.2,0.4c0.6,0,1.4-0.2,2.3-0.8l0.4,1
			c-0.4,0.3-0.9,0.6-1.4,0.8C138.6,769.1,138.1,769.2,137.6,769.2z"/>
		<path d="M144.6,762.3c0.5-0.6,1-1,1.5-1.3s1.1-0.4,1.6-0.4c0.7,0,1.2,0.2,1.5,0.5c0.4,0.4,0.5,0.9,0.5,1.6c0,0.2,0,0.5-0.1,0.7
			c0,0.3-0.1,0.7-0.2,1.3l-0.8,4.2h-1.5l0.8-4.2c0.2-0.8,0.3-1.5,0.3-1.8c0-0.7-0.4-1.1-1.1-1.1c-0.4,0-0.8,0.2-1.3,0.5
			s-1,0.8-1.5,1.3l-1,5.3h-1.5l2.3-11.8h1.5L144.6,762.3z"/>
		<path d="M156.1,769l0.1-1.5c-0.4,0.5-0.9,1-1.4,1.3c-0.5,0.3-1,0.4-1.6,0.4c-0.7,0-1.2-0.2-1.6-0.7c-0.4-0.5-0.5-1.1-0.5-2
			c0-1,0.2-1.9,0.6-2.8c0.4-0.9,1-1.6,1.8-2.2s1.6-0.9,2.5-0.9c0.4,0,0.9,0.1,1.4,0.2c0.5,0.1,1,0.3,1.4,0.5l-1.5,7.7H156.1z
			 M153.8,768c0.8,0,1.7-0.6,2.6-1.7l0.8-4.2c-0.5-0.1-0.9-0.2-1.2-0.2c-0.6,0-1.1,0.2-1.6,0.6c-0.5,0.4-0.9,0.9-1.3,1.6
			c-0.3,0.7-0.5,1.4-0.5,2.3c0,0.5,0.1,1,0.3,1.2C153.1,767.8,153.4,768,153.8,768z"/>
		<path d="M165.1,769l0.1-1.5c-0.4,0.5-0.9,1-1.5,1.3s-1.1,0.5-1.6,0.5c-0.6,0-1.1-0.2-1.4-0.5c-0.3-0.4-0.5-0.9-0.5-1.6
			c0-0.5,0.1-1.2,0.3-2l0.8-4.2h1.5l-0.8,4.2c-0.2,0.8-0.2,1.4-0.2,1.9c0,0.4,0.1,0.6,0.2,0.8c0.2,0.2,0.4,0.2,0.7,0.2
			c0.4,0,0.8-0.2,1.3-0.5c0.5-0.3,1-0.7,1.4-1.3l1-5.3h1.5l-1.6,8.1H165.1z"/>
		<path d="M175,768.2c-1,0.7-2.2,1.1-3.4,1.1c-0.9,0-1.5-0.3-2-0.8c-0.5-0.5-0.7-1.2-0.7-2.2c0-0.7,0.1-1.4,0.3-2.1
			c0.2-0.7,0.6-1.3,1-1.8c0.4-0.5,0.9-1,1.6-1.3c0.6-0.3,1.3-0.5,2-0.5c0.7,0,1.2,0.2,1.5,0.5c0.4,0.3,0.6,0.8,0.6,1.3
			c0,0.8-0.4,1.6-1.2,2.2c-0.8,0.6-1.9,1-3.3,1.3l-1,0.2c0,0.7,0.1,1.2,0.4,1.5c0.2,0.3,0.7,0.5,1.2,0.5c0.8,0,1.6-0.3,2.6-0.8
			L175,768.2z M173.5,761.8c-0.5,0-0.9,0.1-1.3,0.4c-0.4,0.3-0.8,0.7-1.1,1.2c-0.3,0.5-0.5,1.1-0.6,1.7l1-0.2
			c0.9-0.2,1.7-0.5,2.2-0.9s0.8-0.8,0.8-1.3c0-0.2-0.1-0.4-0.2-0.6C174,761.9,173.8,761.8,173.5,761.8z"/>
		<path d="M181.9,769l0.8-4.2c0.2-0.8,0.3-1.5,0.3-1.8c0-0.7-0.4-1.1-1.1-1.1c-0.4,0-0.8,0.2-1.3,0.5s-1,0.7-1.4,1.3L178,769h-1.5
			l1.6-8.1h1.3l-0.1,1.5c0.5-0.6,1-1,1.5-1.3c0.5-0.3,1.1-0.5,1.6-0.5c0.7,0,1.2,0.2,1.5,0.5c0.4,0.4,0.5,0.9,0.5,1.6
			c0,0.2,0,0.5-0.1,0.7c0,0.3-0.1,0.7-0.2,1.3l-0.8,4.2H181.9z"/>
		<path d="M191.8,769l-1.5-8.1h1.6l1,6.7c0.7-1.1,1.3-2.3,1.9-3.5c0.6-1.2,1.1-2.3,1.5-3.2h1.6c-0.5,1.2-1.1,2.5-2,4
			c-0.9,1.5-1.7,2.9-2.6,4.1H191.8z"/>
		<path d="M201,769.2c-0.9,0-1.7-0.3-2.2-0.9c-0.5-0.6-0.8-1.4-0.8-2.4c0-1,0.2-1.9,0.6-2.7c0.4-0.8,0.9-1.5,1.6-2
			c0.7-0.5,1.5-0.7,2.3-0.7c0.9,0,1.7,0.3,2.2,0.9c0.5,0.6,0.8,1.4,0.8,2.4c0,1-0.2,1.9-0.6,2.7c-0.4,0.8-0.9,1.5-1.6,2
			C202.6,769,201.8,769.2,201,769.2z M201.1,768c0.5,0,1-0.2,1.4-0.5c0.4-0.3,0.8-0.8,1-1.4c0.2-0.6,0.4-1.3,0.4-2.1
			c0-0.7-0.1-1.2-0.4-1.5c-0.3-0.4-0.7-0.5-1.2-0.5c-0.5,0-1,0.2-1.4,0.5c-0.4,0.3-0.8,0.8-1,1.4c-0.2,0.6-0.4,1.3-0.4,2.1
			c0,0.7,0.1,1.2,0.4,1.5C200.2,767.8,200.6,768,201.1,768z"/>
		<path d="M211.8,769l0.8-4.2c0.2-0.8,0.3-1.5,0.3-1.8c0-0.7-0.4-1.1-1.1-1.1c-0.4,0-0.8,0.2-1.3,0.5s-1,0.7-1.4,1.3L208,769h-1.5
			l1.6-8.1h1.3l-0.1,1.5c0.5-0.6,1-1,1.5-1.3c0.5-0.3,1.1-0.5,1.6-0.5c0.7,0,1.2,0.2,1.5,0.5c0.4,0.4,0.5,0.9,0.5,1.6
			c0,0.2,0,0.5-0.1,0.7c0,0.3-0.1,0.7-0.2,1.3l-0.8,4.2H211.8z"/>
		<path d="M226.8,769l-0.4-3H222l-1.6,3h-1.7l6.1-11.1h1.7l1.8,11.1H226.8z M222.6,764.8h3.6l-0.8-5.4L222.6,764.8z"/>
		<path d="M235.1,769l0.8-4.2c0.2-0.8,0.3-1.5,0.3-1.8c0-0.7-0.4-1.1-1.1-1.1c-0.4,0-0.8,0.2-1.3,0.5s-1,0.7-1.4,1.3l-1.1,5.3h-1.5
			l1.6-8.1h1.3l-0.1,1.5c0.5-0.6,1-1,1.5-1.3c0.5-0.3,1.1-0.5,1.6-0.5c0.7,0,1.2,0.2,1.5,0.5c0.4,0.4,0.5,0.9,0.5,1.6
			c0,0.2,0,0.5-0.1,0.7c0,0.3-0.1,0.7-0.2,1.3l-0.8,4.2H235.1z"/>
		<path d="M244.1,767.2c-0.4,0.5-0.9,0.9-1.4,1.2c-0.5,0.3-1,0.4-1.5,0.4c-0.7,0-1.2-0.2-1.6-0.7s-0.6-1.1-0.6-1.9
			c0-0.9,0.2-1.8,0.6-2.7s1-1.6,1.8-2.1c0.8-0.6,1.6-0.8,2.5-0.8c0.4,0,0.9,0.1,1.4,0.2s1,0.3,1.4,0.5l-1.3,6.7
			c-0.3,1.5-0.8,2.6-1.6,3.3s-1.9,1.1-3.1,1.1c-0.9,0-1.6-0.2-2.4-0.6l0.2-1.2c0.7,0.3,1.4,0.5,2.1,0.5c0.9,0,1.6-0.3,2.2-0.8
			c0.5-0.5,0.9-1.4,1.1-2.6L244.1,767.2z M241.7,767.6c0.4,0,0.8-0.2,1.3-0.5s0.9-0.8,1.4-1.4l0.7-3.7c-0.5-0.1-0.9-0.2-1.2-0.2
			c-0.6,0-1.1,0.2-1.6,0.6c-0.5,0.4-0.9,0.9-1.2,1.5c-0.3,0.7-0.5,1.4-0.5,2.1C240.6,767.1,241,767.6,241.7,767.6z"/>
		<path d="M253.9,768.2c-1,0.7-2.2,1.1-3.4,1.1c-0.9,0-1.5-0.3-2-0.8c-0.5-0.5-0.7-1.2-0.7-2.2c0-0.7,0.1-1.4,0.3-2.1
			c0.2-0.7,0.6-1.3,1-1.8c0.4-0.5,0.9-1,1.6-1.3c0.6-0.3,1.3-0.5,2-0.5c0.7,0,1.2,0.2,1.5,0.5c0.4,0.3,0.6,0.8,0.6,1.3
			c0,0.8-0.4,1.6-1.2,2.2c-0.8,0.6-1.9,1-3.3,1.3l-1,0.2c0,0.7,0.1,1.2,0.4,1.5c0.2,0.3,0.7,0.5,1.2,0.5c0.8,0,1.6-0.3,2.6-0.8
			L253.9,768.2z M252.3,761.8c-0.5,0-0.9,0.1-1.3,0.4c-0.4,0.3-0.8,0.7-1.1,1.2c-0.3,0.5-0.5,1.1-0.6,1.7l1-0.2
			c0.9-0.2,1.7-0.5,2.2-0.9s0.8-0.8,0.8-1.3c0-0.2-0.1-0.4-0.2-0.6C252.9,761.9,252.6,761.8,252.3,761.8z"/>
		<path d="M258.2,762.3c0.4-0.5,0.9-0.9,1.4-1.2c0.5-0.3,1-0.4,1.5-0.4c0.7,0,1.2,0.2,1.5,0.7c0.4,0.5,0.5,1.2,0.5,2.1
			c0,1-0.2,2-0.6,2.8c-0.4,0.9-1,1.6-1.7,2.1s-1.6,0.8-2.5,0.8c-0.4,0-0.9-0.1-1.4-0.2s-1-0.3-1.4-0.5l2.2-11.4h1.5L258.2,762.3z
			 M260.5,761.9c-0.8,0-1.6,0.6-2.6,1.8l-0.8,4.1c0.5,0.1,0.9,0.2,1.2,0.2c0.6,0,1.1-0.2,1.6-0.5c0.5-0.4,0.9-0.9,1.2-1.5
			c0.3-0.7,0.4-1.4,0.4-2.2C261.6,762.5,261.3,761.9,260.5,761.9z"/>
		<path d="M267.3,769.2c-0.9,0-1.7-0.3-2.2-0.9c-0.5-0.6-0.8-1.4-0.8-2.4c0-1,0.2-1.9,0.6-2.7c0.4-0.8,0.9-1.5,1.6-2
			c0.7-0.5,1.5-0.7,2.3-0.7c0.9,0,1.7,0.3,2.2,0.9c0.5,0.6,0.8,1.4,0.8,2.4c0,1-0.2,1.9-0.6,2.7c-0.4,0.8-0.9,1.5-1.6,2
			C269,769,268.2,769.2,267.3,769.2z M267.5,768c0.5,0,1-0.2,1.4-0.5c0.4-0.3,0.8-0.8,1-1.4c0.2-0.6,0.4-1.3,0.4-2.1
			c0-0.7-0.1-1.2-0.4-1.5c-0.3-0.4-0.7-0.5-1.2-0.5c-0.5,0-1,0.2-1.4,0.5c-0.4,0.3-0.8,0.8-1,1.4c-0.2,0.6-0.4,1.3-0.4,2.1
			c0,0.7,0.1,1.2,0.4,1.5C266.5,767.8,266.9,768,267.5,768z"/>
		<path d="M277.8,768.4c-0.3,0.2-0.6,0.4-1,0.5c-0.4,0.1-0.8,0.2-1.2,0.2c-1.4,0-2-0.6-2-1.7c0-0.3,0.1-0.8,0.2-1.6l0.7-3.6h-1.5
			l0.2-1l1.6-0.2l0.7-2.3h1.2l-0.4,2.3h2.4l-0.2,1.2h-2.4l-0.7,3.5c-0.1,0.8-0.2,1.3-0.2,1.5c0,0.3,0.1,0.5,0.2,0.6
			c0.1,0.1,0.4,0.2,0.7,0.2c0.4,0,0.9-0.1,1.4-0.3L277.8,768.4z"/>
		<path d="M285.2,768.2c-1,0.7-2.2,1.1-3.4,1.1c-0.9,0-1.5-0.3-2-0.8c-0.5-0.5-0.7-1.2-0.7-2.2c0-0.7,0.1-1.4,0.3-2.1
			c0.2-0.7,0.6-1.3,1-1.8c0.4-0.5,0.9-1,1.6-1.3c0.6-0.3,1.3-0.5,2-0.5c0.7,0,1.2,0.2,1.5,0.5c0.4,0.3,0.6,0.8,0.6,1.3
			c0,0.8-0.4,1.6-1.2,2.2c-0.8,0.6-1.9,1-3.3,1.3l-1,0.2c0,0.7,0.1,1.2,0.4,1.5c0.2,0.3,0.7,0.5,1.2,0.5c0.8,0,1.6-0.3,2.6-0.8
			L285.2,768.2z M283.6,761.8c-0.5,0-0.9,0.1-1.3,0.4c-0.4,0.3-0.8,0.7-1.1,1.2c-0.3,0.5-0.5,1.1-0.6,1.7l1-0.2
			c0.9-0.2,1.7-0.5,2.2-0.9s0.8-0.8,0.8-1.3c0-0.2-0.1-0.4-0.2-0.6C284.1,761.9,283.9,761.8,283.6,761.8z"/>
		<path d="M292.1,769l0.8-4.2c0.2-0.8,0.3-1.5,0.3-1.8c0-0.7-0.4-1.1-1.1-1.1c-0.4,0-0.8,0.2-1.3,0.5s-1,0.7-1.4,1.3l-1.1,5.3h-1.5
			l1.6-8.1h1.3l-0.1,1.5c0.5-0.6,1-1,1.5-1.3c0.5-0.3,1.1-0.5,1.6-0.5c0.7,0,1.2,0.2,1.5,0.5c0.4,0.4,0.5,0.9,0.5,1.6
			c0,0.2,0,0.5-0.1,0.7c0,0.3-0.1,0.7-0.2,1.3l-0.8,4.2H292.1z"/>
		<path d="M305.5,769l0.8-4.2c0.2-0.8,0.3-1.5,0.3-1.8c0-0.7-0.4-1.1-1.1-1.1c-0.4,0-0.8,0.2-1.3,0.5s-1,0.7-1.4,1.3l-1.1,5.3h-1.5
			l1.6-8.1h1.3l-0.1,1.5c0.5-0.6,1-1,1.5-1.3c0.5-0.3,1.1-0.5,1.6-0.5c0.7,0,1.2,0.2,1.5,0.5c0.4,0.4,0.5,0.9,0.5,1.6
			c0,0.2,0,0.5-0.1,0.7c0,0.3-0.1,0.7-0.2,1.3l-0.8,4.2H305.5z"/>
		<path d="M314.5,769l0.1-1.5c-0.4,0.5-0.9,1-1.4,1.3c-0.5,0.3-1,0.4-1.6,0.4c-0.7,0-1.2-0.2-1.6-0.7c-0.4-0.5-0.5-1.1-0.5-2
			c0-1,0.2-1.9,0.6-2.8c0.4-0.9,1-1.6,1.8-2.2s1.6-0.9,2.5-0.9c0.4,0,0.9,0.1,1.4,0.2c0.5,0.1,1,0.3,1.4,0.5l-1.5,7.7H314.5z
			 M312.2,768c0.8,0,1.7-0.6,2.6-1.7l0.8-4.2c-0.5-0.1-0.9-0.2-1.2-0.2c-0.6,0-1.1,0.2-1.6,0.6c-0.5,0.4-0.9,0.9-1.3,1.6
			c-0.3,0.7-0.5,1.4-0.5,2.3c0,0.5,0.1,1,0.3,1.2C311.5,767.8,311.8,768,312.2,768z"/>
		<path d="M321.1,769.2c-0.9,0-1.6-0.3-2.1-0.8c-0.5-0.5-0.8-1.3-0.8-2.2c0-1,0.2-1.9,0.6-2.7c0.4-0.9,1-1.6,1.7-2.1
			s1.6-0.8,2.4-0.8c0.3,0,0.7,0,1,0.1c0.3,0.1,0.6,0.2,0.9,0.3l-0.2,1.2c-0.5-0.2-1-0.3-1.5-0.3c-0.6,0-1.2,0.2-1.7,0.5
			c-0.5,0.3-0.9,0.8-1.2,1.5c-0.3,0.6-0.4,1.4-0.4,2.2c0,0.7,0.1,1.1,0.4,1.4s0.7,0.4,1.2,0.4c0.6,0,1.4-0.2,2.3-0.8l0.4,1
			c-0.4,0.3-0.9,0.6-1.4,0.8C322.2,769.1,321.7,769.2,321.1,769.2z"/>
		<path d="M328.1,762.3c0.5-0.6,1-1,1.5-1.3s1.1-0.4,1.6-0.4c0.7,0,1.2,0.2,1.5,0.5c0.4,0.4,0.5,0.9,0.5,1.6c0,0.2,0,0.5-0.1,0.7
			c0,0.3-0.1,0.7-0.2,1.3l-0.8,4.2h-1.5l0.8-4.2c0.2-0.8,0.3-1.5,0.3-1.8c0-0.7-0.4-1.1-1.1-1.1c-0.4,0-0.8,0.2-1.3,0.5
			s-1,0.8-1.5,1.3l-1,5.3h-1.5l2.3-11.8h1.5L328.1,762.3z"/>
		<path d="M338.8,769l1.6-8.1h1.3l-0.1,1.6c0.8-1.1,1.6-1.6,2.6-1.6c0.2,0,0.5,0,0.7,0.1l-0.3,1.4c-0.3,0-0.6-0.1-0.7-0.1
			c-0.9,0-1.7,0.5-2.4,1.4l-1.1,5.4H338.8z"/>
		<path d="M350.9,768.2c-1,0.7-2.2,1.1-3.4,1.1c-0.9,0-1.5-0.3-2-0.8c-0.5-0.5-0.7-1.2-0.7-2.2c0-0.7,0.1-1.4,0.3-2.1
			c0.2-0.7,0.6-1.3,1-1.8c0.4-0.5,0.9-1,1.6-1.3c0.6-0.3,1.3-0.5,2-0.5c0.7,0,1.2,0.2,1.5,0.5c0.4,0.3,0.6,0.8,0.6,1.3
			c0,0.8-0.4,1.6-1.2,2.2c-0.8,0.6-1.9,1-3.3,1.3l-1,0.2c0,0.7,0.1,1.2,0.4,1.5c0.2,0.3,0.7,0.5,1.2,0.5c0.8,0,1.6-0.3,2.6-0.8
			L350.9,768.2z M349.3,761.8c-0.5,0-0.9,0.1-1.3,0.4c-0.4,0.3-0.8,0.7-1.1,1.2c-0.3,0.5-0.5,1.1-0.6,1.7l1-0.2
			c0.9-0.2,1.7-0.5,2.2-0.9s0.8-0.8,0.8-1.3c0-0.2-0.1-0.4-0.2-0.6C349.9,761.9,349.6,761.8,349.3,761.8z"/>
		<path d="M355.4,769.2c-0.9,0-1.6-0.3-2.1-0.8c-0.5-0.5-0.8-1.3-0.8-2.2c0-1,0.2-1.9,0.6-2.7c0.4-0.9,1-1.6,1.7-2.1
			s1.6-0.8,2.4-0.8c0.3,0,0.7,0,1,0.1c0.3,0.1,0.6,0.2,0.9,0.3l-0.2,1.2c-0.5-0.2-1-0.3-1.5-0.3c-0.6,0-1.2,0.2-1.7,0.5
			c-0.5,0.3-0.9,0.8-1.2,1.5c-0.3,0.6-0.4,1.4-0.4,2.2c0,0.7,0.1,1.1,0.4,1.4s0.7,0.4,1.2,0.4c0.6,0,1.4-0.2,2.3-0.8l0.4,1
			c-0.4,0.3-0.9,0.6-1.4,0.8C356.4,769.1,355.9,769.2,355.4,769.2z"/>
		<path d="M362.4,762.3c0.5-0.6,1-1,1.5-1.3s1.1-0.4,1.6-0.4c0.7,0,1.2,0.2,1.5,0.5c0.4,0.4,0.5,0.9,0.5,1.6c0,0.2,0,0.5-0.1,0.7
			c0,0.3-0.1,0.7-0.2,1.3l-0.8,4.2h-1.5l0.8-4.2c0.2-0.8,0.3-1.5,0.3-1.8c0-0.7-0.4-1.1-1.1-1.1c-0.4,0-0.8,0.2-1.3,0.5
			s-1,0.8-1.5,1.3l-1,5.3h-1.5l2.3-11.8h1.5L362.4,762.3z"/>
		<path d="M373.8,768.4c-0.3,0.2-0.6,0.4-1,0.5c-0.4,0.1-0.8,0.2-1.2,0.2c-1.4,0-2-0.6-2-1.7c0-0.3,0.1-0.8,0.2-1.6l0.7-3.6h-1.5
			l0.2-1l1.6-0.2l0.7-2.3h1.2l-0.4,2.3h2.4l-0.2,1.2h-2.4l-0.7,3.5c-0.1,0.8-0.2,1.3-0.2,1.5c0,0.3,0.1,0.5,0.2,0.6
			c0.1,0.1,0.4,0.2,0.7,0.2c0.4,0,0.9-0.1,1.4-0.3L373.8,768.4z"/>
		<path d="M377.2,765.2c-0.5-0.3-0.9-0.6-1.1-0.9c-0.2-0.3-0.4-0.7-0.4-1.1c0-0.5,0.1-0.9,0.4-1.3c0.3-0.4,0.6-0.7,1.1-0.9
			c0.5-0.2,1-0.3,1.6-0.3c0.9,0,1.6,0.2,2.3,0.5l-0.2,1.1c-0.3-0.1-0.6-0.2-1-0.3c-0.4-0.1-0.7-0.1-1-0.1c-0.5,0-0.9,0.1-1.2,0.3
			s-0.4,0.5-0.4,0.9c0,0.4,0.3,0.8,0.9,1.1l1,0.5c0.5,0.3,0.9,0.6,1.1,0.9s0.3,0.7,0.3,1.1c0,0.8-0.3,1.4-0.9,1.9s-1.3,0.7-2.3,0.7
			c-0.5,0-1-0.1-1.5-0.2s-0.9-0.3-1.2-0.4l0.2-1.1c0.4,0.2,0.8,0.3,1.2,0.4c0.5,0.1,0.9,0.1,1.3,0.1c0.5,0,0.9-0.1,1.2-0.3
			s0.4-0.5,0.4-0.9c0-0.2-0.1-0.4-0.2-0.6c-0.1-0.2-0.4-0.3-0.7-0.5L377.2,765.2z"/>
		<path d="M392.4,769l-0.5-6.3l-2.8,6.3h-1.5l-1.1-8.1h1.6l0.6,6.5l2.8-6.5h1.5l0.5,6.7c1.2-2.3,2.1-4.5,2.8-6.7h1.6
			c-0.4,1.2-1,2.5-1.7,4.1s-1.5,2.9-2.2,4H392.4z"/>
		<path d="M398,769l1.6-8.1h1.5l-1.6,8.1H398z M400.6,759.4c-0.3,0-0.5-0.1-0.6-0.2c-0.2-0.1-0.2-0.3-0.2-0.6c0-0.3,0.1-0.6,0.3-0.8
			c0.2-0.2,0.5-0.3,0.8-0.3c0.3,0,0.5,0.1,0.6,0.2c0.2,0.1,0.2,0.3,0.2,0.6c0,0.3-0.1,0.6-0.3,0.8
			C401.2,759.3,401,759.4,400.6,759.4z"/>
		<path d="M404.2,765.2c-0.5-0.3-0.9-0.6-1.1-0.9c-0.2-0.3-0.4-0.7-0.4-1.1c0-0.5,0.1-0.9,0.4-1.3c0.3-0.4,0.6-0.7,1.1-0.9
			c0.5-0.2,1-0.3,1.6-0.3c0.9,0,1.6,0.2,2.3,0.5l-0.2,1.1c-0.3-0.1-0.6-0.2-1-0.3c-0.4-0.1-0.7-0.1-1-0.1c-0.5,0-0.9,0.1-1.2,0.3
			s-0.4,0.5-0.4,0.9c0,0.4,0.3,0.8,0.9,1.1l1,0.5c0.5,0.3,0.9,0.6,1.1,0.9s0.3,0.7,0.3,1.1c0,0.8-0.3,1.4-0.9,1.9s-1.3,0.7-2.3,0.7
			c-0.5,0-1-0.1-1.5-0.2s-0.9-0.3-1.2-0.4l0.2-1.1c0.4,0.2,0.8,0.3,1.2,0.4c0.5,0.1,0.9,0.1,1.3,0.1c0.5,0,0.9-0.1,1.2-0.3
			s0.4-0.5,0.4-0.9c0-0.2-0.1-0.4-0.2-0.6c-0.1-0.2-0.4-0.3-0.7-0.5L404.2,765.2z"/>
		<path d="M411.8,769.2c-0.9,0-1.6-0.3-2.1-0.8c-0.5-0.5-0.8-1.3-0.8-2.2c0-1,0.2-1.9,0.6-2.7c0.4-0.9,1-1.6,1.7-2.1
			s1.6-0.8,2.4-0.8c0.3,0,0.7,0,1,0.1c0.3,0.1,0.6,0.2,0.9,0.3l-0.2,1.2c-0.5-0.2-1-0.3-1.5-0.3c-0.6,0-1.2,0.2-1.7,0.5
			c-0.5,0.3-0.9,0.8-1.2,1.5c-0.3,0.6-0.4,1.4-0.4,2.2c0,0.7,0.1,1.1,0.4,1.4s0.7,0.4,1.2,0.4c0.6,0,1.4-0.2,2.3-0.8l0.4,1
			c-0.4,0.3-0.9,0.6-1.4,0.8C412.9,769.1,412.3,769.2,411.8,769.2z"/>
		<path d="M418.8,762.3c0.5-0.6,1-1,1.5-1.3s1.1-0.4,1.6-0.4c0.7,0,1.2,0.2,1.5,0.5c0.4,0.4,0.5,0.9,0.5,1.6c0,0.2,0,0.5-0.1,0.7
			c0,0.3-0.1,0.7-0.2,1.3l-0.8,4.2h-1.5l0.8-4.2c0.2-0.8,0.3-1.5,0.3-1.8c0-0.7-0.4-1.1-1.1-1.1c-0.4,0-0.8,0.2-1.3,0.5
			s-1,0.8-1.5,1.3l-1,5.3H416l2.3-11.8h1.5L418.8,762.3z"/>
		<path d="M431.4,768.2c-1,0.7-2.2,1.1-3.4,1.1c-0.9,0-1.5-0.3-2-0.8c-0.5-0.5-0.7-1.2-0.7-2.2c0-0.7,0.1-1.4,0.3-2.1
			c0.2-0.7,0.6-1.3,1-1.8c0.4-0.5,0.9-1,1.6-1.3c0.6-0.3,1.3-0.5,2-0.5c0.7,0,1.2,0.2,1.5,0.5c0.4,0.3,0.6,0.8,0.6,1.3
			c0,0.8-0.4,1.6-1.2,2.2c-0.8,0.6-1.9,1-3.3,1.3l-1,0.2c0,0.7,0.1,1.2,0.4,1.5c0.2,0.3,0.7,0.5,1.2,0.5c0.8,0,1.6-0.3,2.6-0.8
			L431.4,768.2z M429.9,761.8c-0.5,0-0.9,0.1-1.3,0.4c-0.4,0.3-0.8,0.7-1.1,1.2c-0.3,0.5-0.5,1.1-0.6,1.7l1-0.2
			c0.9-0.2,1.7-0.5,2.2-0.9s0.8-0.8,0.8-1.3c0-0.2-0.1-0.4-0.2-0.6C430.4,761.9,430.2,761.8,429.9,761.8z"/>
		<path d="M438.3,769l0.8-4.2c0.2-0.8,0.3-1.5,0.3-1.8c0-0.7-0.4-1.1-1.1-1.1c-0.4,0-0.8,0.2-1.3,0.5s-1,0.7-1.4,1.3l-1.1,5.3H433
			l1.6-8.1h1.3l-0.1,1.5c0.5-0.6,1-1,1.5-1.3c0.5-0.3,1.1-0.5,1.6-0.5c0.7,0,1.2,0.2,1.5,0.5c0.4,0.4,0.5,0.9,0.5,1.6
			c0,0.2,0,0.5-0.1,0.7c0,0.3-0.1,0.7-0.2,1.3l-0.8,4.2H438.3z"/>
	</g>
</g>
</svg>
