<?xml version="1.0" encoding="utf-8"?>
<!-- Generator: Adobe Illustrator 21.0.2, SVG Export Plug-In . SVG Version: 6.00 Build 0)  -->
<svg version="1.1" id="Layer_1" xmlns="http://www.w3.org/2000/svg" xmlns:xlink="http://www.w3.org/1999/xlink" x="0px" y="0px"
	 viewBox="0 0 533.3 853.3" style="enable-background:new 0 0 533.3 853.3;" xml:space="preserve">
<style type="text/css">
	.st0{fill:none;}
	.st1{clip-path:url(#SVGID_2_);}
	.st2{fill:#1A1A1A;fill-opacity:0;}
	.st3{opacity:0.6;}
	.st4{font-family:'AmazonEmber-Regular';}
	.st5{font-size:13.4px;}
	.st6{opacity:0.9;}
	.st7{font-family:'AmazonEmber-Thin';}
	.st8{font-size:51.56px;}
	.st9{fill:none;stroke:#000000;stroke-width:0.5;stroke-miterlimit:10;}
	.st10{font-size:14px;}
	.st11{opacity:0.15;}
	.st12{fill:#FFFFFF;}
	.st13{font-family:'AmazonEmber-Bold';}
	.st14{font-size:12px;}
	.st15{clip-path:url(#SVGID_4_);}
	.st16{clip-path:url(#SVGID_6_);}
	.st17{opacity:0.3;enable-background:new    ;}
	.st18{opacity:0.9;enable-background:new    ;}
	.st19{font-size:12.36px;}
</style>
<symbol  id="ic_alarm_clock" viewBox="-24 -24 48 48">
	<rect x="-24" y="-24" class="st0" width="48" height="48"/>
	<path d="M18.8,3.5c0-9.9-7.9-18-17.8-18.5V-18h2l1-1v-4l-1-1h-6l-1,1v4l1,1h1v3.1C-12.1-13.7-19.3-4.5-18.1,5.5
		c0.5,4,2.2,7.7,5,10.6l-4.4,4.5l2.9,2.8l4.6-4.7c6.1,4.2,14,4.3,20.3,0.4l4.3,4.3l2.8-2.8l-4-3.9C16.8,13.2,18.8,8.4,18.8,3.5z
		 M-14,3.5C-14-4.5-7.5-11,0.5-11S15-4.5,15,3.5S8.5,18,0.5,18C-7.5,18-14,11.5-14,3.5z"/>
	<polygon points="2,-5 -2,-5 -2,5 6.3,7.5 7.5,3.6 2,2 	"/>
	<path d="M-11.7-21.6L-11.7-21.6L-12-22h-0.1c-1.6-1.5-5-1-7.9,1.2s-4.3,5.4-3.4,7.3l0,0l2.8,3.8l11.4-8.5L-11.7-21.6z"/>
	<path d="M19.9-20.8c-2.9-2.2-6.3-2.6-7.9-1.2V-22l-0.3,0.4l0,0l-2.6,3.4l11.4,8.5l2.8-3.8l0,0C24.3-15.4,22.9-18.6,19.9-20.8z"/>
</symbol>
<symbol  id="twitter_icon" viewBox="-7 -12 14 24">
	<g>
		<defs>
			<rect id="SVGID_1_" x="-7" y="-7" width="14" height="14"/>
		</defs>
		<clipPath id="SVGID_2_">
			<use xlink:href="#SVGID_1_"  style="overflow:visible;"/>
		</clipPath>
		<g class="st1">
			<path d="M6.7-4.1c-0.5,0.2-1,0.4-1.6,0.4c0.6-0.3,1-0.9,1.2-1.5C5.8-4.9,5.2-4.7,4.6-4.6c-1-1.1-2.8-1.2-3.9-0.1
				C0-4-0.3-3-0.1-2.1c-2.2-0.1-4.3-1.1-5.7-2.9C-6-4.5-6.1-4-6.2-3.5c0,0.9,0.5,1.8,1.2,2.3c-0.4,0-0.9-0.1-1.2-0.3l0,0
				c0,1.3,0.9,2.4,2.2,2.7c-0.4,0.1-0.8,0.1-1.3,0C-4.8,2.2-3.8,3-2.6,3c-1,0.8-2.1,1.2-3.4,1.3c-0.2,0-0.4,0-0.7,0
				C-5.4,5-3.9,5.5-2.4,5.5c4.3,0,7.8-3.4,7.8-7.7c0,0,0-0.1,0-0.1c0-0.1,0-0.2,0-0.4C5.9-3.1,6.4-3.5,6.7-4.1"/>
		</g>
	</g>
	<rect x="-7" y="-12" class="st0" width="14" height="24"/>
</symbol>
<title>Gen7UI</title>
<g id="BACKGROUND">
	<rect class="st2" width="534" height="854"/>
</g>
<g id="OBJECTS">
	<g class="st3">
		<text transform="matrix(1 0 0 1 21 129.34)" class="st4 st5">Mon, Dec 8</text>
	</g>
	<text transform="matrix(1 0 0 1 128.06 129.73)" class="st4 st5">T</text>
	<text transform="matrix(1 0 0 1 135.01 129.73)" class="st4 st5">ue 9:00 AM</text>
	
		<use xlink:href="#ic_alarm_clock"  width="48" height="48" id="ic_alarm_clock-3" x="-24" y="-24" transform="matrix(0.28 0 0 0.28 114.82 124.72)" style="overflow:visible;"/>
	<g class="st6">
		<text transform="matrix(1 0 0 1 21.01 101.65)" class="st7 st8">12:28</text>
		<text transform="matrix(1 0 0 1 21.01 101.65)" class="st9 st7 st8">12:28</text>
	</g>
	<g>
		<text transform="matrix(1 0 0 1 21 42)" class="st4 st10">Je</text>
		<text transform="matrix(1 0 0 1 34.52 42)" class="st4 st10">ff</text>
		<text transform="matrix(1 0 0 1 44.81 42)" class="st4 st10">&apos;</text>
		<text transform="matrix(1 0 0 1 47.28 42)" class="st4 st10">s 7th Fi</text>
		<text transform="matrix(1 0 0 1 93.37 42)" class="st4 st10">r</text>
		<text transform="matrix(1 0 0 1 98.45 42)" class="st4 st10">e</text>
		<rect x="146" y="25" class="st0" width="14" height="24"/>
		<rect x="168" y="25" class="st0" width="14" height="24"/>
		
			<use xlink:href="#twitter_icon"  width="14" height="24" id="twitter_icon-3" x="-7" y="-12" transform="matrix(1 0 0 1 197.18 37)" style="overflow:visible;"/>
		
			<use xlink:href="#twitter_icon"  width="14" height="24" x="-7" y="-12" transform="matrix(1 0 0 1 219.18 37)" style="overflow:visible;"/>
		<polygon points="248.2,32 248.2,33.8 241.2,37.5 234.2,33.8 234.2,32 		"/>
		<polygon points="248.2,35.2 248.2,42 234.2,42 234.2,35.2 241.2,38.8 		"/>
		<rect x="234.2" y="25" class="st0" width="14" height="24"/>
		<g class="st11">
			<circle class="st12" cx="130" cy="38.5" r="8"/>
		</g>
		<circle cx="130" cy="37" r="8"/>
		<text transform="matrix(1.02 0 0 1 126.4297 41)" class="st12 st13 st14">2</text>
		<rect x="122" y="25" class="st0" width="16" height="24"/>
		<rect x="5" y="25" class="st0" width="302" height="24"/>
		<g>
			<defs>
				<rect id="SVGID_3_" x="146" y="30" width="14" height="14"/>
			</defs>
			<clipPath id="SVGID_4_">
				<use xlink:href="#SVGID_3_"  style="overflow:visible;"/>
			</clipPath>
			<g class="st15">
				<path d="M159.4,31.4c0.3,0,0.6,0.3,0.6,0.6v11.4c0,0.3-0.3,0.6-0.6,0.6h-12.8c-0.3,0-0.6-0.3-0.6-0.6V32c0-0.3,0.3-0.5,0.6-0.5
					h2.3v-1.2c0-0.2,0.1-0.3,0.3-0.3h1.2c0.2,0,0.3,0.1,0.3,0.3v1.2h4.7v-1.2c0-0.2,0.1-0.3,0.3-0.3h1.2c0.2,0,0.3,0.1,0.3,0.3v1.2
					L159.4,31.4 M158.8,32.6h-1.8v1.8c0,0.2-0.1,0.3-0.3,0.3h-1.2c-0.2,0-0.3-0.1-0.3-0.3v-1.8h-4.7v1.8c0,0.2-0.1,0.3-0.3,0.3h-1.2
					c-0.2,0-0.3-0.1-0.3-0.3v-1.8h-1.8v10.2h11.7L158.8,32.6z"/>
				<rect x="151.2" y="35.8" width="1.2" height="1.2"/>
				<rect x="153.6" y="35.8" width="1.2" height="1.2"/>
				<rect x="155.9" y="35.8" width="1.2" height="1.2"/>
				<rect x="148.9" y="38.2" width="1.2" height="1.2"/>
				<rect x="151.2" y="38.2" width="1.2" height="1.2"/>
				<rect x="153.6" y="38.2" width="1.2" height="1.2"/>
				<rect x="155.9" y="38.2" width="1.2" height="1.2"/>
				<rect x="148.9" y="40.5" width="1.2" height="1.2"/>
				<rect x="151.2" y="40.5" width="1.2" height="1.2"/>
				<rect x="153.6" y="40.5" width="1.2" height="1.2"/>
				<rect x="155.9" y="40.5" width="1.2" height="1.2"/>
			</g>
		</g>
		<rect x="146" y="25" class="st0" width="14" height="24"/>
		<g>
			<defs>
				<rect id="SVGID_5_" x="168" y="30" width="14" height="14"/>
			</defs>
			<clipPath id="SVGID_6_">
				<use xlink:href="#SVGID_5_"  style="overflow:visible;"/>
			</clipPath>
			<g class="st16">
				<path d="M180.9,30.3c0.4,0,0.8,0.4,0.8,0.8v11.9c0,0.4-0.4,0.7-0.8,0.7h-3.3v-5.2h1.6l0.3-2h-1.9v-1.2c0-0.6,0.1-0.9,0.9-0.9
					h1.2v-2c-0.5-0.1-1-0.1-1.5-0.1c-0.1,0-0.3,0-0.4,0c-1.3,0.1-2.3,1.3-2.1,2.7v1.5h-2v2h2v5.3H169l0,0c-0.4,0-0.7-0.3-0.7-0.7
					V31.1c0-0.4,0.3-0.8,0.7-0.8H180.9"/>
			</g>
		</g>
		<rect x="168" y="25" class="st0" width="14" height="24"/>
	</g>
	<g class="st6">
		<path class="st17" d="M397.3,32.5c-3.3,0-6.5,1.4-8.8,3.8l1.1,1.1c4.1-4.3,10.8-4.4,15.1-0.3c0.1,0.1,0.2,0.2,0.3,0.3l1.1-1.1
			C403.8,33.8,400.6,32.5,397.3,32.5z"/>
		<path d="M397.3,35.2c-2.6,0-5.1,1.1-6.9,2.9l1.1,1.1c3.1-3.2,8.1-3.3,11.3-0.2c0.1,0.1,0.2,0.2,0.2,0.2l1.1-1.1
			C402.4,36.2,399.9,35.2,397.3,35.2z"/>
		<path d="M397.3,37.8c-1.9,0-3.7,0.8-5,2.1l1.1,1.1c2-2.1,5.4-2.2,7.5-0.2c0.1,0.1,0.1,0.1,0.2,0.2l1.1-1.1
			C401,38.6,399.2,37.8,397.3,37.8z"/>
		<path d="M397.3,40.5c-1.1,0-2.2,0.5-3,1.3l1.1,1.1c1-1.1,2.7-1.1,3.8-0.1c0,0,0.1,0.1,0.1,0.1l1.1-1.1
			C399.6,41,398.5,40.5,397.3,40.5z"/>
		<rect x="388" y="27" class="st0" width="18" height="21"/>
	</g>
	<g class="st6">
		<rect x="352" y="27" class="st0" width="9" height="21"/>
		<path d="M359.7,40.3l-2.6-2.5l2.6-2.4l-3.9-3.9v5.1l-1.9-1.9l-0.7,0.8l2.4,2.3l-2.4,2.2l0.7,0.8l1.9-1.8v4.9L359.7,40.3z
			 M356.7,34l1.3,1.3l-1.3,1.2L356.7,34z M356.7,39l1.3,1.2l-1.3,1.2L356.7,39z"/>
	</g>
	<text transform="matrix(1 0 0 1 412.71 42.08)" class="st18 st4 st19">99%</text>
	<g class="st6">
		<path d="M446.7,35.2c-0.3,0-0.6,0.3-0.6,0.6v3.7c0,0.3,0.3,0.6,0.6,0.6h9.4v-5L446.7,35.2z"/>
		<path d="M462.5,35.6h-0.8v-2.1c0-0.5-0.4-0.8-0.8-0.8h-17c-0.5,0-0.8,0.4-0.8,0.8v8.3c0,0.5,0.4,0.8,0.8,0.8h17
			c0.5,0,0.8-0.4,0.8-0.8v-2.1h0.8c0.2,0,0.4-0.2,0.4-0.4c0,0,0,0,0,0V36C462.9,35.8,462.7,35.6,462.5,35.6L462.5,35.6z M460.4,41.4
			h-16.2v-7.5h16.2L460.4,41.4L460.4,41.4z"/>
		<rect x="442.4" y="27.1" class="st0" width="21.2" height="21.2"/>
	</g>
	<path d="M379.9,38.7c0-2.6-2-4.7-4.6-4.8v-0.7h0.4l0.4-0.4v-0.8l-0.4-0.4H374l-0.4,0.4v0.8l0.4,0.4h0.4v0.7
		c-2.7,0.3-4.6,2.7-4.3,5.3c0.1,1.1,0.6,2,1.3,2.8l-1.2,1.2l0.8,0.7l1.2-1.2c1.6,1.1,3.7,1.1,5.4,0.1l1.1,1.1l0.8-0.7l-1-1
		C379.4,41.2,379.9,40,379.9,38.7z M371.2,38.7c0-2.1,1.7-3.8,3.8-3.8c2.1,0,3.8,1.7,3.8,3.8c0,2.1-1.7,3.8-3.8,3.8c0,0,0,0,0,0
		C372.9,42.5,371.2,40.8,371.2,38.7C371.1,38.7,371.1,38.7,371.2,38.7L371.2,38.7z"/>
	<polygon points="375.3,36.4 374.2,36.4 374.2,38.9 376.4,39.5 376.7,38.6 375.3,38.2 	"/>
	<path d="M371.8,32.1L371.8,32.1l-0.1-0.1l0,0c-0.4-0.4-1.3-0.3-2.1,0.3s-1.1,1.4-0.9,1.9l0,0l0.8,1l3-2.2L371.8,32.1z"/>
	<path d="M380.1,32.3c-0.8-0.6-1.7-0.7-2.1-0.3l0,0l-0.1,0.1l0,0l-0.7,0.9l3,2.2l0.8-1l0,0C381.3,33.7,380.9,32.9,380.1,32.3z"/>
	<rect x="368.2" y="27.1" class="st0" width="13.2" height="21.2"/>
</g>
</svg>
