<?xml version="1.0" encoding="utf-8"?>
<!-- Generator: Adobe Illustrator 21.0.2, SVG Export Plug-In . SVG Version: 6.00 Build 0)  -->
<svg version="1.1" id="Layer_1" xmlns="http://www.w3.org/2000/svg" xmlns:xlink="http://www.w3.org/1999/xlink" x="0px" y="0px"
	 viewBox="0 0 533.3 853.3" style="enable-background:new 0 0 533.3 853.3;" xml:space="preserve">
<style type="text/css">
	.st0{opacity:0.6;}
	.st1{fill:#FFFFFF;}
	.st2{font-family:'AmazonEmber-Regular';}
	.st3{font-size:13.4px;}
	.st4{opacity:0.9;}
	.st5{font-family:'AmazonEmber-Thin';}
	.st6{font-size:51.56px;}
	.st7{font-size:14px;}
	.st8{opacity:0.15;}
	.st9{font-family:'AmazonEmber-Bold';}
	.st10{font-size:12px;}
	.st11{opacity:0.3;fill:#FFFFFF;enable-background:new    ;}
	.st12{opacity:0.9;fill:#FFFFFF;enable-background:new    ;}
	.st13{font-size:12.36px;}
</style>
<title>Gen7UI</title>
<g id="OBJECTS">
	<g class="st0">
		<text transform="matrix(1 0 0 1 21 129.34)" class="st1 st2 st3">Mon, Dec 8</text>
	</g>
	<text transform="matrix(1 0 0 1 128.06 129.73)" class="st1 st2 st3">T</text>
	<text transform="matrix(1 0 0 1 135.01 129.73)" class="st1 st2 st3">ue 9:00 AM</text>
	<g>
		<path class="st1" d="M120.1,125.7c0-2.8-2.2-5-5-5.2v-0.8h0.6l0.3-0.3v-1.1l-0.3-0.3H114l-0.3,0.3v1.1l0.3,0.3h0.3v0.9
			c-2.8,0.3-4.8,2.9-4.5,5.7c0.1,1.1,0.6,2.2,1.4,3l-1.2,1.3l0.8,0.8l1.3-1.3c1.7,1.2,3.9,1.2,5.7,0.1l1.2,1.2l0.8-0.8l-1.1-1.1
			C119.5,128.4,120.1,127.1,120.1,125.7z M110.9,125.7c0-2.2,1.8-4.1,4.1-4.1s4.1,1.8,4.1,4.1s-1.8,4.1-4.1,4.1
			S110.9,127.9,110.9,125.7z"/>
		<polygon class="st1" points="115.4,123.3 114.3,123.3 114.3,126.1 116.6,126.8 116.9,125.7 115.4,125.3 		"/>
		<path class="st1" d="M111.5,118.7L111.5,118.7l-0.1-0.1h0c-0.4-0.4-1.4-0.3-2.2,0.3c-0.8,0.6-1.2,1.5-1,2l0.8,1.1l3.2-2.4
			L111.5,118.7z"/>
		<path class="st1" d="M120.4,118.9c-0.8-0.6-1.8-0.7-2.2-0.3l-0.1,0.1l-0.7,1l3.2,2.4l0.8-1.1C121.6,120.4,121.2,119.5,120.4,118.9
			z"/>
	</g>
	<g class="st4">
		<text transform="matrix(1 0 0 1 21.01 101.65)" class="st1 st5 st6">12:28</text>
		<text transform="matrix(1 0 0 1 21.01 101.65)" class="st1 st5 st6">12:28</text>
	</g>
	<g>
		<text transform="matrix(1 0 0 1 21 42)" class="st1 st2 st7">Je</text>
		<text transform="matrix(1 0 0 1 34.52 42)" class="st1 st2 st7">ff</text>
		<text transform="matrix(1 0 0 1 44.81 42)" class="st1 st2 st7">&apos;</text>
		<text transform="matrix(1 0 0 1 47.28 42)" class="st1 st2 st7">s 7th Fi</text>
		<text transform="matrix(1 0 0 1 93.37 42)" class="st1 st2 st7">r</text>
		<text transform="matrix(1 0 0 1 98.45 42)" class="st1 st2 st7">e</text>
		<g>
			<g>
				<path class="st1" d="M203.9,32.9c-0.5,0.2-1,0.4-1.6,0.4c0.6-0.3,1-0.9,1.2-1.5c-0.5,0.3-1.1,0.5-1.7,0.6
					c-1-1.1-2.8-1.2-3.9-0.1c-0.7,0.7-1,1.7-0.8,2.6c-2.2-0.1-4.3-1.1-5.7-2.9c-0.2,0.5-0.3,1-0.4,1.5c0,0.9,0.5,1.8,1.2,2.3
					c-0.4,0-0.9-0.1-1.2-0.3c0,1.3,0.9,2.4,2.2,2.7c-0.4,0.1-0.8,0.1-1.3,0c0.5,1,1.5,1.8,2.7,1.8c-1,0.8-2.1,1.2-3.4,1.3
					c-0.2,0-0.4,0-0.7,0c1.3,0.7,2.8,1.2,4.3,1.2c4.3,0,7.8-3.4,7.8-7.7v-0.1c0-0.1,0-0.2,0-0.4C203.1,33.9,203.6,33.5,203.9,32.9"
					/>
			</g>
			<g>
				<path class="st1" d="M225.9,32.9c-0.5,0.2-1,0.4-1.6,0.4c0.6-0.3,1-0.9,1.2-1.5c-0.5,0.3-1.1,0.5-1.7,0.6
					c-1-1.1-2.8-1.2-3.9-0.1c-0.7,0.7-1,1.7-0.8,2.6c-2.2-0.1-4.3-1.1-5.7-2.9c-0.2,0.5-0.3,1-0.4,1.5c0,0.9,0.5,1.8,1.2,2.3
					c-0.4,0-0.9-0.1-1.2-0.3c0,1.3,0.9,2.4,2.2,2.7c-0.4,0.1-0.8,0.1-1.3,0c0.5,1,1.5,1.8,2.7,1.8c-1,0.8-2.1,1.2-3.4,1.3
					c-0.2,0-0.4,0-0.7,0c1.3,0.7,2.8,1.2,4.3,1.2c4.3,0,7.8-3.4,7.8-7.7v-0.1c0-0.1,0-0.2,0-0.4C225.1,33.9,225.6,33.5,225.9,32.9"
					/>
			</g>
		</g>
		<polygon class="st1" points="248.2,32 248.2,33.8 241.2,37.5 234.2,33.8 234.2,32 		"/>
		<polygon class="st1" points="248.2,35.2 248.2,42 234.2,42 234.2,35.2 241.2,38.8 		"/>
		<g class="st8">
			<circle class="st1" cx="130" cy="38.5" r="8"/>
		</g>
		<circle class="st1" cx="130" cy="37" r="8"/>
		<text transform="matrix(1.02 0 0 1 126.4297 41.0002)" class="st9 st10">2</text>
		<g>
			<g>
				<g>
					<path class="st1" d="M159.4,31.4c0.3,0,0.6,0.3,0.6,0.6v11.4c0,0.3-0.3,0.6-0.6,0.6h-12.8c-0.3,0-0.6-0.3-0.6-0.6V32
						c0-0.3,0.3-0.5,0.6-0.5h2.3v-1.2c0-0.2,0.1-0.3,0.3-0.3h1.2c0.2,0,0.3,0.1,0.3,0.3v1.2h4.7v-1.2c0-0.2,0.1-0.3,0.3-0.3h1.2
						c0.2,0,0.3,0.1,0.3,0.3v1.2L159.4,31.4 M158.8,32.6H157v1.8c0,0.2-0.1,0.3-0.3,0.3h-1.2c-0.2,0-0.3-0.1-0.3-0.3v-1.8h-4.7v1.8
						c0,0.2-0.1,0.3-0.3,0.3H149c-0.2,0-0.3-0.1-0.3-0.3v-1.8h-1.8v10.2h11.7L158.8,32.6z"/>
					<rect x="151.2" y="35.8" class="st1" width="1.2" height="1.2"/>
					<rect x="153.6" y="35.8" class="st1" width="1.2" height="1.2"/>
					<rect x="155.9" y="35.8" class="st1" width="1.2" height="1.2"/>
					<rect x="148.9" y="38.2" class="st1" width="1.2" height="1.2"/>
					<rect x="151.2" y="38.2" class="st1" width="1.2" height="1.2"/>
					<rect x="153.6" y="38.2" class="st1" width="1.2" height="1.2"/>
					<rect x="155.9" y="38.2" class="st1" width="1.2" height="1.2"/>
					<rect x="148.9" y="40.5" class="st1" width="1.2" height="1.2"/>
					<rect x="151.2" y="40.5" class="st1" width="1.2" height="1.2"/>
					<rect x="153.6" y="40.5" class="st1" width="1.2" height="1.2"/>
					<rect x="155.9" y="40.5" class="st1" width="1.2" height="1.2"/>
				</g>
			</g>
		</g>
		<g>
			<g>
				<g>
					<path class="st1" d="M180.9,30.3c0.4,0,0.8,0.4,0.8,0.8V43c0,0.4-0.4,0.7-0.8,0.7h-3.3v-5.2h1.6l0.3-2h-1.9v-1.2
						c0-0.6,0.1-0.9,0.9-0.9h1.2v-2c-0.5-0.1-1-0.1-1.5-0.1c-0.1,0-0.3,0-0.4,0c-1.3,0.1-2.3,1.3-2.1,2.7v1.5h-2v2h2v5.3H169l0,0
						c-0.4,0-0.7-0.3-0.7-0.7v-12c0-0.4,0.3-0.8,0.7-0.8L180.9,30.3"/>
				</g>
			</g>
		</g>
	</g>
	<g class="st4">
		<path class="st11" d="M397.3,32.5c-3.3,0-6.5,1.4-8.8,3.8l1.1,1.1c4.1-4.3,10.8-4.4,15.1-0.3c0.1,0.1,0.2,0.2,0.3,0.3l1.1-1.1
			C403.8,33.8,400.6,32.5,397.3,32.5z"/>
		<path class="st1" d="M397.3,35.2c-2.6,0-5.1,1.1-6.9,2.9l1.1,1.1c3.1-3.2,8.1-3.3,11.3-0.2c0.1,0.1,0.2,0.2,0.2,0.2l1.1-1.1
			C402.4,36.2,399.9,35.2,397.3,35.2z"/>
		<path class="st1" d="M397.3,37.8c-1.9,0-3.7,0.8-5,2.1l1.1,1.1c2-2.1,5.4-2.2,7.5-0.2c0.1,0.1,0.1,0.1,0.2,0.2l1.1-1.1
			C401,38.6,399.2,37.8,397.3,37.8z"/>
		<path class="st1" d="M397.3,40.5c-1.1,0-2.2,0.5-3,1.3l1.1,1.1c1-1.1,2.7-1.1,3.8-0.1l0.1,0.1l1.1-1.1
			C399.6,41,398.5,40.5,397.3,40.5z"/>
	</g>
	<g class="st4">
		<path class="st1" d="M359.7,40.3l-2.6-2.5l2.6-2.4l-3.9-3.9v5.1l-1.9-1.9l-0.7,0.8l2.4,2.3l-2.4,2.2l0.7,0.8l1.9-1.8v4.9
			L359.7,40.3z M356.7,34l1.3,1.3l-1.3,1.2V34z M356.7,39l1.3,1.2l-1.3,1.2V39z"/>
	</g>
	<text transform="matrix(1 0 0 1 412.71 42.08)" class="st12 st2 st13">99%</text>
	<g class="st4">
		<path class="st1" d="M446.7,35.2c-0.3,0-0.6,0.3-0.6,0.6v3.7c0,0.3,0.3,0.6,0.6,0.6h9.4v-5L446.7,35.2z"/>
		<path class="st1" d="M462.5,35.6h-0.8v-2.1c0-0.5-0.4-0.8-0.8-0.8h-17c-0.5,0-0.8,0.4-0.8,0.8v8.3c0,0.5,0.4,0.8,0.8,0.8h17
			c0.5,0,0.8-0.4,0.8-0.8v-2.1h0.8c0.2,0,0.4-0.2,0.4-0.4l0,0V36C462.9,35.8,462.7,35.6,462.5,35.6L462.5,35.6z M460.4,41.4h-16.2
			v-7.5h16.2V41.4L460.4,41.4z"/>
	</g>
	<path class="st1" d="M379.9,38.7c0-2.6-2-4.7-4.6-4.8v-0.7h0.4l0.4-0.4V32l-0.4-0.4H374l-0.4,0.4v0.8l0.4,0.4h0.4v0.7
		c-2.7,0.3-4.6,2.7-4.3,5.3c0.1,1.1,0.6,2,1.3,2.8l-1.2,1.2l0.8,0.7l1.2-1.2c1.6,1.1,3.7,1.1,5.4,0.1l1.1,1.1l0.8-0.7l-1-1
		C379.4,41.2,379.9,40,379.9,38.7z M371.2,38.7c0-2.1,1.7-3.8,3.8-3.8c2.1,0,3.8,1.7,3.8,3.8s-1.7,3.8-3.8,3.8l0,0
		C372.9,42.5,371.2,40.8,371.2,38.7C371.1,38.7,371.1,38.7,371.2,38.7L371.2,38.7z"/>
	<polygon class="st1" points="375.3,36.4 374.2,36.4 374.2,38.9 376.4,39.5 376.7,38.6 375.3,38.2 	"/>
	<path class="st1" d="M371.8,32.1L371.8,32.1l-0.1-0.1l0,0c-0.4-0.4-1.3-0.3-2.1,0.3c-0.8,0.6-1.1,1.4-0.9,1.9l0,0l0.8,1l3-2.2
		L371.8,32.1z"/>
	<path class="st1" d="M380.1,32.3c-0.8-0.6-1.7-0.7-2.1-0.3l0,0l-0.1,0.1l0,0l-0.7,0.9l3,2.2l0.8-1l0,0
		C381.3,33.7,380.9,32.9,380.1,32.3z"/>
</g>
</svg>
