<svg xmlns="http://www.w3.org/2000/svg" xmlns:xlink="http://www.w3.org/1999/xlink" viewBox="0 0 533.33 853.33"><defs><style>.cls-1{fill:none;}.cls-2{font-size:14px;}.cls-19,.cls-2,.cls-20,.cls-24{font-family:AmazonEmber-Regular, Amazon Ember;}.cls-3{letter-spacing:0.03em;}.cls-4{letter-spacing:-0.04em;}.cls-5{letter-spacing:-0.01em;}.cls-6{letter-spacing:0em;}.cls-7{opacity:0.15;}.cls-12,.cls-8,.cls-9{fill:#fff;}.cls-9{font-size:12px;font-family:AmazonEmber-Bold, Amazon Ember;font-weight:700;}.cls-10{clip-path:url(#clip-path);}.cls-11{clip-path:url(#clip-path-2);}.cls-12,.cls-15{opacity:0;}.cls-13,.cls-24{opacity:0.9;}.cls-14{clip-path:url(#clip-path-3);}.cls-15{fill:#1a1a1a;}.cls-16,.cls-18,.cls-20{opacity:0.6;}.cls-16{font-size:16px;font-family:AmazonEmber-Italic, Amazon Ember;font-style:italic;letter-spacing:-0.02em;}.cls-17{letter-spacing:0em;}.cls-19,.cls-20{font-size:13.4px;}.cls-21{letter-spacing:-0.06em;}.cls-22{font-size:51.56px;stroke:#000;stroke-miterlimit:10;stroke-width:0.5px;font-family:AmazonEmber-Thin, Amazon Ember;}.cls-23{opacity:0.3;}.cls-24{font-size:12.36px;}</style><clipPath id="clip-path"><rect class="cls-1" x="141" y="5" width="14" height="14"/></clipPath><clipPath id="clip-path-2"><rect class="cls-1" x="163" y="5" width="14" height="14"/></clipPath><clipPath id="clip-path-3"><rect class="cls-1" y="5" width="14" height="14"/></clipPath><symbol id="ic_alarm_clock" data-name="ic_alarm_clock" viewBox="0 0 48 48"><rect class="cls-1" width="48" height="48"/><path d="M42.75,27.5A18.53,18.53,0,0,0,25,9.05V6h2l1-1V1L27,0H21L20,1V5l1,1h1V9.11a18.39,18.39,0,0,0-11.1,31L6.52,44.58l2.86,2.83L14,42.76a18.41,18.41,0,0,0,20.27.39l4.26,4.26,2.83-2.83-4.05-3.93A18.33,18.33,0,0,0,42.75,27.5ZM10,27.5A14.5,14.5,0,1,1,24.5,42,14.52,14.52,0,0,1,10,27.5Z"/><polygon points="26 19 22 19 22 28.99 30.34 31.48 31.49 27.65 26 26.01 26 19"/><path d="M12.31,2.4h0L12,2l-.06,0c-1.6-1.46-5-1-7.89,1.18S-.27,8.57.69,10.51l0,0L3.5,14.32,14.86,5.8Z"/><path d="M43.94,3.25C41,1.06,37.64.6,36,2.06L36,2l-.28.38h0L33.14,5.8,44.5,14.32l2.84-3.79,0,0C48.27,8.57,46.86,5.44,43.94,3.25Z"/></symbol><symbol id="twitter_icon" data-name="twitter icon" viewBox="0 0 14 24"><g class="cls-14"><path d="M13.71,7.87a5.58,5.58,0,0,1-1.58.43,2.74,2.74,0,0,0,1.21-1.51,5.5,5.5,0,0,1-1.75.66A2.75,2.75,0,0,0,6.9,9.94,7.83,7.83,0,0,1,1.23,7.08,2.72,2.72,0,0,0,.85,8.46,2.75,2.75,0,0,0,2.1,10.73a2.43,2.43,0,0,1-1.22-.34v0a2.72,2.72,0,0,0,2.19,2.68,2.86,2.86,0,0,1-1.26,0,2.75,2.75,0,0,0,2.57,1.9A5.54,5.54,0,0,1,1,16.23a5.69,5.69,0,0,1-.66,0,7.83,7.83,0,0,0,4.22,1.23,7.75,7.75,0,0,0,7.83-7.78c0-.12,0-.24,0-.35a5.58,5.58,0,0,0,1.37-1.42"/></g><rect class="cls-1" width="14" height="24"/></symbol><symbol id="Left_status_bar_icons" data-name="Left status bar icons" viewBox="0 0 302 24"><text class="cls-2" transform="translate(16 17)">Je<tspan class="cls-3" x="13.52" y="0">ff</tspan><tspan class="cls-4" x="23.81" y="0">&apos;</tspan><tspan x="26.28" y="0">s 7th Fi</tspan><tspan class="cls-5" x="72.37" y="0">r</tspan><tspan class="cls-6" x="77.45" y="0">e</tspan></text><rect class="cls-1" x="141" width="14" height="24"/><rect class="cls-1" x="163" width="14" height="24"/><use id="twitter_icon-3" data-name="twitter icon" width="14" height="24" transform="translate(185.18 0)" xlink:href="#twitter_icon"/><use width="14" height="24" transform="translate(207.18 0)" xlink:href="#twitter_icon"/><polygon points="229.18 7 229.18 8.84 236.18 12.51 243.18 8.84 243.18 7 229.18 7"/><polygon points="236.18 13.84 229.18 10.17 229.18 17 243.18 17 243.18 10.17 236.18 13.84"/><rect class="cls-1" x="229.18" width="14" height="24"/><g class="cls-7"><circle class="cls-8" cx="125" cy="13.5" r="8"/></g><circle cx="125" cy="12" r="8"/><text class="cls-9" transform="translate(121.43 16) scale(1.02 1)">2</text><rect class="cls-1" x="117" width="16" height="24"/><rect class="cls-1" width="302" height="24"/><g class="cls-10"><path d="M154.42,6.46h-2.33V5.29a.29.29,0,0,0-.29-.29h-1.17a.29.29,0,0,0-.29.29V6.46h-4.67V5.29a.29.29,0,0,0-.29-.29h-1.17a.29.29,0,0,0-.29.29V6.46h-2.33A.59.59,0,0,0,141,7V18.42a.59.59,0,0,0,.58.58h12.83a.59.59,0,0,0,.58-.58V7a.59.59,0,0,0-.58-.58m-.58,11.37H142.17V7.62h1.75V9.37a.3.3,0,0,0,.29.3h1.17a.3.3,0,0,0,.29-.3V7.62h4.67V9.37a.3.3,0,0,0,.29.3h1.17a.3.3,0,0,0,.29-.3V7.62h1.75Z"/><rect x="146.25" y="10.83" width="1.17" height="1.17"/><rect x="148.58" y="10.83" width="1.17" height="1.17"/><rect x="150.92" y="10.83" width="1.17" height="1.17"/><rect x="143.92" y="13.17" width="1.17" height="1.17"/><rect x="146.25" y="13.17" width="1.17" height="1.17"/><rect x="148.58" y="13.17" width="1.17" height="1.17"/><rect x="150.92" y="13.17" width="1.17" height="1.17"/><rect x="143.92" y="15.5" width="1.17" height="1.17"/><rect x="146.25" y="15.5" width="1.17" height="1.17"/><rect x="148.58" y="15.5" width="1.17" height="1.17"/><rect x="150.92" y="15.5" width="1.17" height="1.17"/></g><rect class="cls-1" x="141" width="14" height="24"/><g class="cls-11"><path d="M175.92,5.29H164a.79.79,0,0,0-.74.79V18a.74.74,0,0,0,.74.74h6.55V13.46h-2v-2h2V10a2.41,2.41,0,0,1,2.56-2.67,10.59,10.59,0,0,1,1.52.08V9.37h-1.16c-.84,0-.89.27-.89.86v1.19h1.88l-.26,2h-1.62v5.25h3.29a.79.79,0,0,0,.79-.74V6.08a.84.84,0,0,0-.79-.79"/></g><rect class="cls-1" x="163" width="14" height="24"/></symbol><symbol id="LOCK" data-name="LOCK" viewBox="0 0 48 48"><rect class="cls-1" width="48" height="48"/><path d="M36,20V12a12,12,0,0,0-24,0v8H5V48H43V20ZM16,12a8,8,0,0,1,16,0v8H16Z"/></symbol><symbol id="CAMERA" data-name="CAMERA" viewBox="0 0 48 48"><rect class="cls-1" width="48" height="48"/><path d="M23.93,17a10,10,0,1,0,10,10A10,10,0,0,0,23.93,17Z"/><path d="M35.93,10a3.11,3.11,0,0,1-2.7-1.87L31.63,3.87A3.11,3.11,0,0,0,28.93,2h-10a3.11,3.11,0,0,0-2.7,1.87L14.63,8.13A3.11,3.11,0,0,1,11.93,10h-10A1.94,1.94,0,0,0,0,12V44a1.94,1.94,0,0,0,1.93,2h44A2.07,2.07,0,0,0,48,44V12a2.07,2.07,0,0,0-2.07-2Zm-30,7a2,2,0,1,1,2-2A2,2,0,0,1,5.93,17Zm18,24a14,14,0,1,1,14-14A14,14,0,0,1,23.93,41Z"/></symbol><symbol id="f_ic_ad_browsing" data-name="f_ic_ad_browsing" viewBox="0 0 24 24"><rect class="cls-12" width="24" height="24"/><path class="cls-13" d="M6.54,1,3,4.54V8.78L14.31,20.09a2,2,0,0,0,2.83,0l4.95-4.95a2,2,0,0,0,0-2.83L10.78,1ZM9,7A1.5,1.5,0,1,1,9,4.89,1.5,1.5,0,0,1,9,7ZM5,23H3a2,2,0,0,1-2-2V12Zm7.39-1.28L9.66,22.85A2,2,0,0,1,7,21.77L3.24,12.57Z"/></symbol></defs><title>Gen7UI</title><g id="BACKGROUND"><rect class="cls-15" width="534" height="854"/></g><g id="OBJECTS"><text class="cls-16" transform="translate(169.8 769.54)">S<tspan class="cls-17" x="8.34" y="0">wipe right to browse offers</tspan></text><g class="cls-18"><text class="cls-19" transform="translate(21 129.34)">Mon, Dec 8</text></g><text class="cls-20" transform="translate(128.06 129.73)"><tspan class="cls-21">T</tspan><tspan x="6.95" y="0">ue 9:00 AM</tspan></text><use id="ic_alarm_clock-3" data-name="ic_alarm_clock" width="48" height="48" transform="translate(108.1 118) scale(0.28)" xlink:href="#ic_alarm_clock"/><g class="cls-13"><text class="cls-22" transform="translate(21.01 101.65)">12:28</text></g><use id="Left_status_bar_icons-3" data-name="Left status bar icons" width="302" height="24" transform="translate(5 26)" xlink:href="#Left_status_bar_icons"/><use id="LOCK-3" data-name="LOCK" width="48" height="48" transform="translate(256 810) scale(0.46)" xlink:href="#LOCK"/><use id="CAMERA-3" data-name="CAMERA" width="48" height="48" transform="translate(491.68 810.68) scale(0.44)" xlink:href="#CAMERA"/><g class="cls-13"><path class="cls-23" d="M397.32,32.47a12.17,12.17,0,0,0-8.8,3.76l1.1,1.06a10.65,10.65,0,0,1,15.4,0l1.1-1.06A12.17,12.17,0,0,0,397.32,32.47Z"/><path d="M397.32,35.15a9.51,9.51,0,0,0-6.88,2.94l1.1,1.06a8,8,0,0,1,11.54,0l1.1-1.06A9.51,9.51,0,0,0,397.32,35.15Z"/><path d="M397.32,37.82a6.84,6.84,0,0,0-4.95,2.12l1.1,1.06a5.32,5.32,0,0,1,7.7,0l1.1-1.06A6.84,6.84,0,0,0,397.32,37.82Z"/><path d="M397.32,40.5a4.18,4.18,0,0,0-3,1.29l1.1,1.06a2.66,2.66,0,0,1,3.85,0l1.1-1.06A4.18,4.18,0,0,0,397.32,40.5Z"/><rect class="cls-1" x="388" y="27" width="18" height="21"/></g><g class="cls-13"><rect class="cls-1" x="352" y="27" width="9" height="21"/><path d="M359.74,40.26l-2.63-2.52,2.61-2.39-3.88-3.85v5.08L353.9,34.7l-.69.75,2.39,2.27-2.37,2.15.66.77,1.94-1.79v4.9Zm-3-6.26L358,35.32l-1.32,1.19Zm0,5L358,40.24l-1.31,1.18Z"/></g><text class="cls-24" transform="translate(412.71 42.08)">99%</text><g class="cls-13"><path d="M446.72,35.17a.62.62,0,0,0-.62.62v3.74a.62.62,0,0,0,.62.62h9.35v-5Z"/><path d="M462.51,35.58h-.83V33.51a.83.83,0,0,0-.83-.83h-17a.83.83,0,0,0-.83.83v8.31a.83.83,0,0,0,.83.83h17a.83.83,0,0,0,.83-.83V39.74h.83a.42.42,0,0,0,.42-.42V36A.42.42,0,0,0,462.51,35.58Zm-2.08,5.82H444.22V33.92h16.21V41.4Z"/><rect class="cls-1" x="442.35" y="27.06" width="21.19" height="21.19"/></g><path d="M379.87,38.66a4.88,4.88,0,0,0-4.62-4.85l0-.7h.42l.42-.42v-.84l-.42-.42H374l-.42.42v.84l.42.42h.42l0,.71a4.85,4.85,0,0,0-3,8.16l-1.17,1.17.75.74,1.23-1.22a4.87,4.87,0,0,0,5.35.1l1.12,1.12.75-.74-1-1A4.83,4.83,0,0,0,379.87,38.66Zm-8.71,0A3.83,3.83,0,1,1,375,42.47,3.83,3.83,0,0,1,371.15,38.66Z"/><polygon points="375.28 36.41 374.23 36.41 374.23 38.91 376.42 39.53 376.72 38.58 375.28 38.16 375.28 36.41"/><path d="M371.76,32.06h0l-.08-.1h0c-.42-.38-1.31-.26-2.08.31s-1.14,1.4-.89,1.91h0l.75,1,3-2.24Z"/><path d="M380.11,32.28c-.77-.57-1.66-.7-2.08-.31h0l-.07.1h0l-.67.89,3,2.24.75-1h0C381.26,33.68,380.88,32.86,380.11,32.28Z"/><rect class="cls-1" x="368.17" y="27.06" width="13.25" height="21.19"/><use id="f_ic_ad_browsing-3" data-name="f_ic_ad_browsing" width="24" height="24" transform="translate(20.19 811.51) scale(0.94)" xlink:href="#f_ic_ad_browsing"/></g></svg>