<?xml version="1.0" encoding="utf-8"?>
<!-- Generator: Adobe Illustrator 21.0.2, SVG Export Plug-In . SVG Version: 6.00 Build 0)  -->
<svg version="1.1" id="Layer_1" xmlns="http://www.w3.org/2000/svg" xmlns:xlink="http://www.w3.org/1999/xlink" x="0px" y="0px"
	 viewBox="0 0 533.3 853.3" style="enable-background:new 0 0 533.3 853.3;" xml:space="preserve">
<style type="text/css">
	.st0{fill:none;}
	.st1{fill:#FFFFFF;fill-opacity:0;}
	.st2{opacity:0.9;enable-background:new    ;}
	.st3{fill:#1A1A1A;fill-opacity:0;}
	.st4{opacity:0.6;enable-background:new    ;}
	.st5{font-family:'AmazonEmber-Italic';}
	.st6{font-size:16px;}
</style>
<symbol  id="CAMERA" viewBox="-24 -24 48.1 48">
	<rect x="-24" y="-24" class="st0" width="48" height="48"/>
	<path d="M-0.2-7c-5.5,0-10,4.5-10,10s4.5,10,10,10s10-4.5,10-10S5.4-7-0.2-7z"/>
	<path d="M11.8-14c-1.2-0.1-2.2-0.8-2.7-1.9l-1.6-4.3C7-21.3,6-22,4.8-22.1h-10c-1.2,0.1-2.2,0.8-2.7,1.9l-1.6,4.3
		c-0.5,1.1-1.5,1.8-2.7,1.9h-10c-1.1,0-1.9,0.9-1.9,1.9c0,0,0,0,0,0.1v32c0,1.1,0.8,2,1.9,2c0,0,0,0,0.1,0h44c1.1,0,2-0.9,2.1-2v-32
		c0-1.1-1-2-2.1-2H11.8z M-18.2-7c-1.1,0-2-0.9-2-2s0.9-2,2-2c1.1,0,2,0.9,2,2S-17-7-18.2-7L-18.2-7z M-0.2,17c-7.7,0-14-6.3-14-14
		s6.3-14,14-14s14,6.3,14,14S7.6,17-0.2,17L-0.2,17z"/>
</symbol>
<symbol  id="LOCK" viewBox="-24 -24 48 48">
	<rect x="-24" y="-24" class="st0" width="48" height="48"/>
	<path d="M12-4v-8c0-6.6-5.4-12-12-12s-12,5.4-12,12v8h-7v28h38V-4H12z M-8-12c0-4.4,3.6-8,8-8s8,3.6,8,8v8H-8V-12z"/>
</symbol>
<symbol  id="f_ic_ad_browsing" viewBox="-12 -12 24 24">
	<rect x="-12" y="-12" class="st1" width="24" height="24"/>
	<path class="st2" d="M-5.5-11L-9-7.5v4.2L2.3,8.1c0.8,0.8,2,0.8,2.8,0l0,0l5-4.9c0.8-0.8,0.8-2,0-2.8l0,0L-1.2-11H-5.5z M-3-5
		c-0.6,0.6-1.5,0.6-2.1,0s-0.6-1.5,0-2.1s1.5-0.6,2.1,0l0,0C-2.4-6.5-2.4-5.6-3-5z M-7,11h-2c-1.1,0-2-0.9-2-2V0L-7,11z M0.4,9.7
		l-2.7,1.1c-1,0.4-2.2,0-2.6-1c0,0,0,0,0-0.1l-3.8-9.2L0.4,9.7z"/>
</symbol>
<title>Gen7UI</title>
<g id="BACKGROUND">
	<rect class="st3" width="534" height="854"/>
</g>
<g id="OBJECTS">
	<text transform="matrix(1 0 0 1 169.8 769.54)" class="st4 st5 st6">S</text>
	<text transform="matrix(1 0 0 1 178.14 769.54)" class="st4 st5 st6">wipe right to browse offers</text>
	
		<use xlink:href="#LOCK"  width="48" height="48" id="LOCK-3" x="-24" y="-24" transform="matrix(0.46 0 0 0.46 267.04 821.04)" style="overflow:visible;opacity:0.6;"/>
	
		<use xlink:href="#CAMERA"  width="48.1" height="48" id="CAMERA-3" x="-24" y="-24" transform="matrix(0.4391 0 0 0.4391 502.24 821.24)" style="overflow:visible;opacity:0.6;"/>
	<rect x="368.2" y="27.1" class="st0" width="13.2" height="21.2"/>
	
		<use xlink:href="#f_ic_ad_browsing"  width="24" height="24" id="f_ic_ad_browsing-3" x="-12" y="-12" transform="matrix(0.94 0 0 0.94 31.47 822.79)" style="overflow:visible;opacity:0.6;"/>
</g>
</svg>
