<?xml version="1.0" encoding="utf-8"?>
<!-- Generator: Adobe Illustrator 22.1.0, SVG Export Plug-In . SVG Version: 6.00 Build 0)  -->
<svg version="1.1" id="Layer_1" xmlns="http://www.w3.org/2000/svg" xmlns:xlink="http://www.w3.org/1999/xlink" x="0px" y="0px"
	 viewBox="0 0 853.3 533.3" style="enable-background:new 0 0 853.3 533.3;" xml:space="preserve">
<style type="text/css">
	.st0{display:none;}
	.st1{display:inline;fill:#A54E4E;}
	.st2{opacity:0.6;fill:#FFFFFF;enable-background:new    ;}
	.st3{display:none;fill:#FFFFFF;}
	.st4{opacity:0.6;}
	.st5{fill:#FFFFFF;}
</style>
<g id="Layer_2_1_" class="st0">
	<rect x="-1" y="0" class="st1" width="854" height="534"/>
</g>
<g id="OBJECTS">
	<g>
		<path class="st2" d="M820,498.5c-2.8,0-5,2.2-5,5s2.2,5,5,5s5-2.2,5-5S822.7,498.5,820,498.5z"/>
		<path class="st2" d="M826,495c-0.5,0-1.2-0.4-1.4-1l-0.8-2.1c-0.2-0.5-0.8-0.9-1.3-0.9h-5c-0.5,0-1.2,0.4-1.4,0.9l-0.8,2.2
			c-0.2,0.5-0.8,0.9-1.3,0.9h-5c-0.5,0-1,0.5-1,1v16c0,0.5,0.4,1,1,1h22c0.5,0,1-0.5,1-1v-16c0-0.5-0.5-1-1-1H826L826,495z
			 M811,498.5c-0.5,0-1-0.5-1-1c0-0.6,0.5-1,1-1s1,0.4,1,1C812,498,811.5,498.5,811,498.5z M820,510.5c-3.9,0-7-3.1-7-7s3.1-7,7-7
			c3.8,0,7,3.1,7,7S823.8,510.5,820,510.5z"/>
		<path class="st2" d="M432,500v-4c0-3.3-2.7-6-6-6s-6,2.7-6,6v4h-3.5v14h19v-14H432z M422,496c0-2.2,1.8-4,4-4s4,1.8,4,4v4h-8V496z
			"/>
		<path class="st3" d="M27.9,494.5c-0.4,0-0.7,0.2-1,0.5c-0.6,0.6-0.6,1.5,0,2.1c0.3,0.3,0.7,0.5,1,0.5s0.8-0.2,1.1-0.5
			c0.6-0.6,0.6-1.5,0-2.1C28.7,494.6,28.3,494.5,27.9,494.5 M29,512.9c-0.8,0-1.6-0.5-1.9-1.2l-3.8-9.2l9.1,9.2l-2.7,1.1
			C29.5,512.9,29.2,512.9,29,512.9 M23,513c-1.1,0-2-0.9-2-2v-9l4,11H23 M35.7,510.6c-0.5,0-1-0.2-1.4-0.6L23,498.7v-4.2l3.5-3.5
			h4.3L42,502.3c0.8,0.7,0.8,2,0,2.8l-4.9,4.9C36.7,510.4,36.3,510.6,35.7,510.6 M44,490H20v24h24V490"/>
		<path class="st2" d="M23.3,502.5l3.8,9.2c0.3,0.8,1.1,1.2,1.9,1.2c0.2,0,0.5,0,0.7-0.1l2.7-1.1L23.3,502.5 M21,502v9
			c0,1.1,0.9,2,2,2h2L21,502 M27.9,497.5c-0.4,0-0.7-0.2-1-0.5c-0.6-0.6-0.6-1.5,0-2.1c0.3-0.3,0.7-0.5,1-0.5s0.8,0.2,1.1,0.5
			c0.6,0.6,0.6,1.5,0,2.1C28.7,497.3,28.3,497.5,27.9,497.5 M30.8,491h-4.3l-3.5,3.5v4.2L34.3,510c0.4,0.4,0.9,0.6,1.4,0.6
			s1-0.2,1.4-0.6l4.9-4.9c0.8-0.8,0.8-2.1,0-2.8L30.8,491"/>
	</g>
	<g class="st4">
		<path class="st5" d="M240.8,457.5l0.2-1.2l7.5-8.6H243l0.3-1.3h7.3l-0.2,1.2l-7.5,8.6h5.8l-0.3,1.3H240.8z"/>
		<path class="st5" d="M255.7,457.5l0.1-1.5c-0.4,0.5-0.9,1-1.5,1.3s-1.1,0.5-1.6,0.5c-0.6,0-1.1-0.2-1.4-0.5
			c-0.3-0.4-0.5-0.9-0.5-1.6c0-0.5,0.1-1.2,0.3-2l0.8-4.2h1.5l-0.8,4.2c-0.2,0.8-0.2,1.4-0.2,1.9c0,0.4,0.1,0.6,0.2,0.8
			c0.2,0.2,0.4,0.2,0.7,0.2c0.4,0,0.8-0.2,1.3-0.5s1-0.7,1.4-1.3l1-5.3h1.5l-1.6,8.1h-1.2V457.5z"/>
		<path class="st5" d="M269.7,457.5l0.8-4.2c0.2-0.8,0.3-1.5,0.3-1.8c0-0.7-0.3-1.1-1-1.1c-0.4,0-0.8,0.1-1.3,0.4s-0.9,0.7-1.4,1.2
			l-0.2,1.3l-0.8,4.2h-1.5l0.8-4.2c0.2-0.8,0.3-1.5,0.3-1.8c0-0.7-0.3-1.1-1-1.1c-0.4,0-0.8,0.2-1.2,0.5s-0.9,0.7-1.4,1.3l-1.1,5.4
			h-1.5l1.6-8.1h1.3l-0.1,1.5c0.5-0.6,0.9-1,1.5-1.3c0.5-0.3,1-0.4,1.5-0.4c0.6,0,1.1,0.2,1.4,0.5s0.5,0.7,0.6,1.3
			c0.5-0.6,1-1,1.5-1.3s1.1-0.5,1.7-0.5s1.1,0.2,1.5,0.5c0.3,0.4,0.5,0.9,0.5,1.6c0,0.2,0,0.5-0.1,0.7c0,0.3-0.1,0.7-0.2,1.3
			l-0.8,4.2h-1.7V457.5z"/>
		<path class="st5" d="M284.7,457.5l-0.4-3h-4.4l-1.6,3h-1.7l6.1-11.1h1.7l1.8,11.1H284.7z M280.5,453.4h3.6l-0.8-5.4L280.5,453.4z"
			/>
		<path class="st5" d="M292.9,457.5l0.8-4.2c0.2-0.8,0.3-1.5,0.3-1.8c0-0.7-0.4-1.1-1.1-1.1c-0.4,0-0.8,0.2-1.3,0.5s-1,0.7-1.4,1.3
			l-1.1,5.3h-1.5l1.6-8.1h1.3l-0.1,1.5c0.5-0.6,1-1,1.5-1.3s1.1-0.5,1.6-0.5c0.7,0,1.2,0.2,1.5,0.5c0.4,0.4,0.5,0.9,0.5,1.6
			c0,0.2,0,0.5-0.1,0.7c0,0.3-0.1,0.7-0.2,1.3l-0.8,4.2h-1.5V457.5z"/>
		<path class="st5" d="M299,453.8c-0.5-0.3-0.9-0.6-1.1-0.9s-0.4-0.7-0.4-1.1c0-0.5,0.1-0.9,0.4-1.3s0.6-0.7,1.1-0.9
			c0.5-0.2,1-0.3,1.6-0.3c0.9,0,1.6,0.2,2.3,0.5l-0.2,1.1c-0.3-0.1-0.6-0.2-1-0.3c-0.4-0.1-0.7-0.1-1-0.1c-0.5,0-0.9,0.1-1.2,0.3
			s-0.4,0.5-0.4,0.9s0.3,0.8,0.9,1.1l1,0.5c0.5,0.3,0.9,0.6,1.1,0.9s0.3,0.7,0.3,1.1c0,0.8-0.3,1.4-0.9,1.9s-1.3,0.7-2.3,0.7
			c-0.5,0-1-0.1-1.5-0.2s-0.9-0.3-1.2-0.4l0.2-1.1c0.4,0.2,0.8,0.3,1.2,0.4c0.5,0.1,0.9,0.1,1.3,0.1c0.5,0,0.9-0.1,1.2-0.3
			s0.4-0.5,0.4-0.9c0-0.2-0.1-0.4-0.2-0.6s-0.4-0.3-0.7-0.5L299,453.8z"/>
		<path class="st5" d="M306.7,457.8c-0.9,0-1.6-0.3-2.1-0.8s-0.8-1.3-0.8-2.2c0-1,0.2-1.9,0.6-2.7c0.4-0.9,1-1.6,1.7-2.1
			s1.6-0.8,2.4-0.8c0.3,0,0.7,0,1,0.1s0.6,0.2,0.9,0.3l-0.2,1.2c-0.5-0.2-1-0.3-1.5-0.3c-0.6,0-1.2,0.2-1.7,0.5s-0.9,0.8-1.2,1.5
			c-0.3,0.6-0.4,1.4-0.4,2.2c0,0.7,0.1,1.1,0.4,1.4s0.7,0.4,1.2,0.4c0.6,0,1.4-0.2,2.3-0.8l0.4,1c-0.4,0.3-0.9,0.6-1.4,0.8
			C307.7,457.7,307.2,457.8,306.7,457.8z"/>
		<path class="st5" d="M313.7,450.9c0.5-0.6,1-1,1.5-1.3s1.1-0.4,1.6-0.4c0.7,0,1.2,0.2,1.5,0.5c0.4,0.4,0.5,0.9,0.5,1.6
			c0,0.2,0,0.5-0.1,0.7c0,0.3-0.1,0.7-0.2,1.3l-0.8,4.2h-1.5l0.8-4.2c0.2-0.8,0.3-1.5,0.3-1.8c0-0.7-0.4-1.1-1.1-1.1
			c-0.4,0-0.8,0.2-1.3,0.5s-1,0.8-1.5,1.3l-1,5.3h-1.5l2.3-11.8h1.5L313.7,450.9z"/>
		<path class="st5" d="M325.2,457.5l0.1-1.5c-0.4,0.5-0.9,1-1.4,1.3s-1,0.4-1.6,0.4c-0.7,0-1.2-0.2-1.6-0.7s-0.5-1.1-0.5-2
			c0-1,0.2-1.9,0.6-2.8s1-1.6,1.8-2.2s1.6-0.9,2.5-0.9c0.4,0,0.9,0.1,1.4,0.2s1,0.3,1.4,0.5l-1.5,7.7H325.2z M322.9,456.5
			c0.8,0,1.7-0.6,2.6-1.7l0.8-4.2c-0.5-0.1-0.9-0.2-1.2-0.2c-0.6,0-1.1,0.2-1.6,0.6s-0.9,0.9-1.3,1.6c-0.3,0.7-0.5,1.4-0.5,2.3
			c0,0.5,0.1,1,0.3,1.2C322.2,456.4,322.5,456.5,322.9,456.5z"/>
		<path class="st5" d="M334.2,457.5l0.1-1.5c-0.4,0.5-0.9,1-1.5,1.3s-1.1,0.5-1.6,0.5c-0.6,0-1.1-0.2-1.4-0.5
			c-0.3-0.4-0.5-0.9-0.5-1.6c0-0.5,0.1-1.2,0.3-2l0.8-4.2h1.5l-0.8,4.2c-0.2,0.8-0.2,1.4-0.2,1.9c0,0.4,0.1,0.6,0.2,0.8
			c0.2,0.2,0.4,0.2,0.7,0.2c0.4,0,0.8-0.2,1.3-0.5s1-0.7,1.4-1.3l1-5.3h1.5l-1.6,8.1h-1.2V457.5z"/>
		<path class="st5" d="M344.1,456.8c-1,0.7-2.2,1.1-3.4,1.1c-0.9,0-1.5-0.3-2-0.8s-0.7-1.2-0.7-2.2c0-0.7,0.1-1.4,0.3-2.1
			c0.2-0.7,0.6-1.3,1-1.8s0.9-1,1.6-1.3c0.6-0.3,1.3-0.5,2-0.5s1.2,0.2,1.5,0.5c0.4,0.3,0.6,0.8,0.6,1.3c0,0.8-0.4,1.6-1.2,2.2
			c-0.8,0.6-1.9,1-3.3,1.3l-1,0.2c0,0.7,0.1,1.2,0.4,1.5c0.2,0.3,0.7,0.5,1.2,0.5c0.8,0,1.6-0.3,2.6-0.8L344.1,456.8z M342.5,450.3
			c-0.5,0-0.9,0.1-1.3,0.4s-0.8,0.7-1.1,1.2c-0.3,0.5-0.5,1.1-0.6,1.7l1-0.2c0.9-0.2,1.7-0.5,2.2-0.9s0.8-0.8,0.8-1.3
			c0-0.2-0.1-0.4-0.2-0.6C343.1,450.4,342.8,450.3,342.5,450.3z"/>
		<path class="st5" d="M351,457.5l0.8-4.2c0.2-0.8,0.3-1.5,0.3-1.8c0-0.7-0.4-1.1-1.1-1.1c-0.4,0-0.8,0.2-1.3,0.5s-1,0.7-1.4,1.3
			l-1.1,5.3h-1.5l1.6-8.1h1.3l-0.1,1.5c0.5-0.6,1-1,1.5-1.3s1.1-0.5,1.6-0.5c0.7,0,1.2,0.2,1.5,0.5c0.4,0.4,0.5,0.9,0.5,1.6
			c0,0.2,0,0.5-0.1,0.7c0,0.3-0.1,0.7-0.2,1.3l-0.8,4.2H351V457.5z"/>
		<path class="st5" d="M360.9,457.5l-1.5-8.1h1.6l1,6.7c0.7-1.1,1.3-2.3,1.9-3.5s1.1-2.3,1.5-3.2h1.6c-0.5,1.2-1.1,2.5-2,4
			s-1.7,2.9-2.6,4.1H360.9z"/>
		<path class="st5" d="M370.1,457.8c-0.9,0-1.7-0.3-2.2-0.9s-0.8-1.4-0.8-2.4s0.2-1.9,0.6-2.7c0.4-0.8,0.9-1.5,1.6-2
			s1.5-0.7,2.3-0.7c0.9,0,1.7,0.3,2.2,0.9s0.8,1.4,0.8,2.4s-0.2,1.9-0.6,2.7c-0.4,0.8-0.9,1.5-1.6,2
			C371.7,457.5,370.9,457.8,370.1,457.8z M370.2,456.5c0.5,0,1-0.2,1.4-0.5s0.8-0.8,1-1.4s0.4-1.3,0.4-2.1c0-0.7-0.1-1.2-0.4-1.5
			c-0.3-0.4-0.7-0.5-1.2-0.5s-1,0.2-1.4,0.5s-0.8,0.8-1,1.4s-0.4,1.3-0.4,2.1c0,0.7,0.1,1.2,0.4,1.5
			C369.3,456.4,369.7,456.5,370.2,456.5z"/>
		<path class="st5" d="M380.9,457.5l0.8-4.2c0.2-0.8,0.3-1.5,0.3-1.8c0-0.7-0.4-1.1-1.1-1.1c-0.4,0-0.8,0.2-1.3,0.5s-1,0.7-1.4,1.3
			l-1.1,5.3h-1.5l1.6-8.1h1.3l-0.1,1.5c0.5-0.6,1-1,1.5-1.3s1.1-0.5,1.6-0.5c0.7,0,1.2,0.2,1.5,0.5c0.4,0.4,0.5,0.9,0.5,1.6
			c0,0.2,0,0.5-0.1,0.7c0,0.3-0.1,0.7-0.2,1.3l-0.8,4.2h-1.5V457.5z"/>
		<path class="st5" d="M395.9,457.5l-0.4-3h-4.4l-1.6,3h-1.7l6.1-11.1h1.7l1.8,11.1H395.9z M391.7,453.4h3.6l-0.8-5.4L391.7,453.4z"
			/>
		<path class="st5" d="M404.2,457.5l0.8-4.2c0.2-0.8,0.3-1.5,0.3-1.8c0-0.7-0.4-1.1-1.1-1.1c-0.4,0-0.8,0.2-1.3,0.5s-1,0.7-1.4,1.3
			l-1.1,5.3h-1.5l1.6-8.1h1.3l-0.1,1.5c0.5-0.6,1-1,1.5-1.3s1.1-0.5,1.6-0.5c0.7,0,1.2,0.2,1.5,0.5c0.4,0.4,0.5,0.9,0.5,1.6
			c0,0.2,0,0.5-0.1,0.7c0,0.3-0.1,0.7-0.2,1.3l-0.8,4.2h-1.5V457.5z"/>
		<path class="st5" d="M413.2,455.8c-0.4,0.5-0.9,0.9-1.4,1.2c-0.5,0.3-1,0.4-1.5,0.4c-0.7,0-1.2-0.2-1.6-0.7s-0.6-1.1-0.6-1.9
			c0-0.9,0.2-1.8,0.6-2.7s1-1.6,1.8-2.1c0.8-0.6,1.6-0.8,2.5-0.8c0.4,0,0.9,0.1,1.4,0.2s1,0.3,1.4,0.5l-1.3,6.7
			c-0.3,1.5-0.8,2.6-1.6,3.3s-1.9,1.1-3.1,1.1c-0.9,0-1.6-0.2-2.4-0.6l0.2-1.2c0.7,0.3,1.4,0.5,2.1,0.5c0.9,0,1.6-0.3,2.2-0.8
			c0.5-0.5,0.9-1.4,1.1-2.6L413.2,455.8z M410.8,456.2c0.4,0,0.8-0.2,1.3-0.5s0.9-0.8,1.4-1.4l0.7-3.7c-0.5-0.1-0.9-0.2-1.2-0.2
			c-0.6,0-1.1,0.2-1.6,0.6s-0.9,0.9-1.2,1.5c-0.3,0.7-0.5,1.4-0.5,2.1C409.7,455.7,410.1,456.2,410.8,456.2z"/>
		<path class="st5" d="M423,456.8c-1,0.7-2.2,1.1-3.4,1.1c-0.9,0-1.5-0.3-2-0.8s-0.7-1.2-0.7-2.2c0-0.7,0.1-1.4,0.3-2.1
			c0.2-0.7,0.6-1.3,1-1.8s0.9-1,1.6-1.3c0.6-0.3,1.3-0.5,2-0.5s1.2,0.2,1.5,0.5c0.4,0.3,0.6,0.8,0.6,1.3c0,0.8-0.4,1.6-1.2,2.2
			c-0.8,0.6-1.9,1-3.3,1.3l-1,0.2c0,0.7,0.1,1.2,0.4,1.5c0.2,0.3,0.7,0.5,1.2,0.5c0.8,0,1.6-0.3,2.6-0.8L423,456.8z M421.4,450.3
			c-0.5,0-0.9,0.1-1.3,0.4s-0.8,0.7-1.1,1.2c-0.3,0.5-0.5,1.1-0.6,1.7l1-0.2c0.9-0.2,1.7-0.5,2.2-0.9s0.8-0.8,0.8-1.3
			c0-0.2-0.1-0.4-0.2-0.6C422,450.4,421.7,450.3,421.4,450.3z"/>
		<path class="st5" d="M427.3,450.8c0.4-0.5,0.9-0.9,1.4-1.2c0.5-0.3,1-0.4,1.5-0.4c0.7,0,1.2,0.2,1.5,0.7c0.4,0.5,0.5,1.2,0.5,2.1
			c0,1-0.2,2-0.6,2.8c-0.4,0.9-1,1.6-1.7,2.1s-1.6,0.8-2.5,0.8c-0.4,0-0.9-0.1-1.4-0.2s-1-0.3-1.4-0.5l2.2-11.4h1.5L427.3,450.8z
			 M429.6,450.5c-0.8,0-1.6,0.6-2.6,1.8l-0.8,4.1c0.5,0.1,0.9,0.2,1.2,0.2c0.6,0,1.1-0.2,1.6-0.5c0.5-0.4,0.9-0.9,1.2-1.5
			c0.3-0.7,0.4-1.4,0.4-2.2C430.7,451.1,430.4,450.5,429.6,450.5z"/>
		<path class="st5" d="M436.4,457.8c-0.9,0-1.7-0.3-2.2-0.9s-0.8-1.4-0.8-2.4s0.2-1.9,0.6-2.7c0.4-0.8,0.9-1.5,1.6-2
			s1.5-0.7,2.3-0.7c0.9,0,1.7,0.3,2.2,0.9s0.8,1.4,0.8,2.4s-0.2,1.9-0.6,2.7c-0.4,0.8-0.9,1.5-1.6,2
			C438.1,457.5,437.3,457.8,436.4,457.8z M436.5,456.5c0.5,0,1-0.2,1.4-0.5s0.8-0.8,1-1.4s0.4-1.3,0.4-2.1c0-0.7-0.1-1.2-0.4-1.5
			c-0.3-0.4-0.7-0.5-1.2-0.5s-1,0.2-1.4,0.5s-0.8,0.8-1,1.4s-0.4,1.3-0.4,2.1c0,0.7,0.1,1.2,0.4,1.5
			C435.6,456.4,436,456.5,436.5,456.5z"/>
		<path class="st5" d="M446.9,457c-0.3,0.2-0.6,0.4-1,0.5s-0.8,0.2-1.2,0.2c-1.4,0-2-0.6-2-1.7c0-0.3,0.1-0.8,0.2-1.6l0.7-3.6h-1.5
			l0.2-1l1.6-0.2l0.7-2.3h1.2l-0.4,2.3h2.4l-0.2,1.2h-2.4l-0.7,3.5c-0.1,0.8-0.2,1.3-0.2,1.5c0,0.3,0.1,0.5,0.2,0.6s0.4,0.2,0.7,0.2
			c0.4,0,0.9-0.1,1.4-0.3L446.9,457z"/>
		<path class="st5" d="M454.3,456.8c-1,0.7-2.2,1.1-3.4,1.1c-0.9,0-1.5-0.3-2-0.8s-0.7-1.2-0.7-2.2c0-0.7,0.1-1.4,0.3-2.1
			c0.2-0.7,0.6-1.3,1-1.8s0.9-1,1.6-1.3c0.6-0.3,1.3-0.5,2-0.5s1.2,0.2,1.5,0.5c0.4,0.3,0.6,0.8,0.6,1.3c0,0.8-0.4,1.6-1.2,2.2
			c-0.8,0.6-1.9,1-3.3,1.3l-1,0.2c0,0.7,0.1,1.2,0.4,1.5c0.2,0.3,0.7,0.5,1.2,0.5c0.8,0,1.6-0.3,2.6-0.8L454.3,456.8z M452.7,450.3
			c-0.5,0-0.9,0.1-1.3,0.4s-0.8,0.7-1.1,1.2c-0.3,0.5-0.5,1.1-0.6,1.7l1-0.2c0.9-0.2,1.7-0.5,2.2-0.9s0.8-0.8,0.8-1.3
			c0-0.2-0.1-0.4-0.2-0.6C453.2,450.4,453,450.3,452.7,450.3z"/>
		<path class="st5" d="M461.2,457.5l0.8-4.2c0.2-0.8,0.3-1.5,0.3-1.8c0-0.7-0.4-1.1-1.1-1.1c-0.4,0-0.8,0.2-1.3,0.5s-1,0.7-1.4,1.3
			l-1.1,5.3h-1.5l1.6-8.1h1.3l-0.1,1.5c0.5-0.6,1-1,1.5-1.3s1.1-0.5,1.6-0.5c0.7,0,1.2,0.2,1.5,0.5c0.4,0.4,0.5,0.9,0.5,1.6
			c0,0.2,0,0.5-0.1,0.7c0,0.3-0.1,0.7-0.2,1.3l-0.8,4.2h-1.5V457.5z"/>
		<path class="st5" d="M474.6,457.5l0.8-4.2c0.2-0.8,0.3-1.5,0.3-1.8c0-0.7-0.4-1.1-1.1-1.1c-0.4,0-0.8,0.2-1.3,0.5s-1,0.7-1.4,1.3
			l-1.1,5.3h-1.5l1.6-8.1h1.3L472,451c0.5-0.6,1-1,1.5-1.3s1.1-0.5,1.6-0.5c0.7,0,1.2,0.2,1.5,0.5c0.4,0.4,0.5,0.9,0.5,1.6
			c0,0.2,0,0.5-0.1,0.7c0,0.3-0.1,0.7-0.2,1.3l-0.8,4.2L474.6,457.5L474.6,457.5z"/>
		<path class="st5" d="M483.6,457.5l0.1-1.5c-0.4,0.5-0.9,1-1.4,1.3s-1,0.4-1.6,0.4c-0.7,0-1.2-0.2-1.6-0.7s-0.5-1.1-0.5-2
			c0-1,0.2-1.9,0.6-2.8s1-1.6,1.8-2.2s1.6-0.9,2.5-0.9c0.4,0,0.9,0.1,1.4,0.2s1,0.3,1.4,0.5l-1.5,7.7H483.6z M481.3,456.5
			c0.8,0,1.7-0.6,2.6-1.7l0.8-4.2c-0.5-0.1-0.9-0.2-1.2-0.2c-0.6,0-1.1,0.2-1.6,0.6s-0.9,0.9-1.3,1.6c-0.3,0.7-0.5,1.4-0.5,2.3
			c0,0.5,0.1,1,0.3,1.2C480.6,456.4,480.9,456.5,481.3,456.5z"/>
		<path class="st5" d="M490.2,457.8c-0.9,0-1.6-0.3-2.1-0.8s-0.8-1.3-0.8-2.2c0-1,0.2-1.9,0.6-2.7c0.4-0.9,1-1.6,1.7-2.1
			s1.6-0.8,2.4-0.8c0.3,0,0.7,0,1,0.1s0.6,0.2,0.9,0.3l-0.2,1.2c-0.5-0.2-1-0.3-1.5-0.3c-0.6,0-1.2,0.2-1.7,0.5s-0.9,0.8-1.2,1.5
			c-0.3,0.6-0.4,1.4-0.4,2.2c0,0.7,0.1,1.1,0.4,1.4s0.7,0.4,1.2,0.4c0.6,0,1.4-0.2,2.3-0.8l0.4,1c-0.4,0.3-0.9,0.6-1.4,0.8
			C491.3,457.7,490.8,457.8,490.2,457.8z"/>
		<path class="st5" d="M497.2,450.9c0.5-0.6,1-1,1.5-1.3s1.1-0.4,1.6-0.4c0.7,0,1.2,0.2,1.5,0.5c0.4,0.4,0.5,0.9,0.5,1.6
			c0,0.2,0,0.5-0.1,0.7c0,0.3-0.1,0.7-0.2,1.3l-0.8,4.2h-1.5l0.8-4.2c0.2-0.8,0.3-1.5,0.3-1.8c0-0.7-0.4-1.1-1.1-1.1
			c-0.4,0-0.8,0.2-1.3,0.5s-1,0.8-1.5,1.3l-1,5.3h-1.5l2.3-11.8h1.5L497.2,450.9z"/>
		<path class="st5" d="M507.9,457.5l1.6-8.1h1.3l-0.1,1.6c0.8-1.1,1.6-1.6,2.6-1.6c0.2,0,0.5,0,0.7,0.1l-0.3,1.4
			c-0.3,0-0.6-0.1-0.7-0.1c-0.9,0-1.7,0.5-2.4,1.4l-1.1,5.4L507.9,457.5L507.9,457.5z"/>
		<path class="st5" d="M520,456.8c-1,0.7-2.2,1.1-3.4,1.1c-0.9,0-1.5-0.3-2-0.8s-0.7-1.2-0.7-2.2c0-0.7,0.1-1.4,0.3-2.1
			s0.6-1.3,1-1.8s0.9-1,1.6-1.3c0.6-0.3,1.3-0.5,2-0.5s1.2,0.2,1.5,0.5c0.4,0.3,0.6,0.8,0.6,1.3c0,0.8-0.4,1.6-1.2,2.2
			s-1.9,1-3.3,1.3l-1,0.2c0,0.7,0.1,1.2,0.4,1.5c0.2,0.3,0.7,0.5,1.2,0.5c0.8,0,1.6-0.3,2.6-0.8L520,456.8z M518.4,450.3
			c-0.5,0-0.9,0.1-1.3,0.4c-0.4,0.3-0.8,0.7-1.1,1.2s-0.5,1.1-0.6,1.7l1-0.2c0.9-0.2,1.7-0.5,2.2-0.9s0.8-0.8,0.8-1.3
			c0-0.2-0.1-0.4-0.2-0.6C518.9,450.4,518.7,450.3,518.4,450.3z"/>
		<path class="st5" d="M524.5,457.8c-0.9,0-1.6-0.3-2.1-0.8s-0.8-1.3-0.8-2.2c0-1,0.2-1.9,0.6-2.7c0.4-0.9,1-1.6,1.7-2.1
			s1.6-0.8,2.4-0.8c0.3,0,0.7,0,1,0.1s0.6,0.2,0.9,0.3l-0.2,1.2c-0.5-0.2-1-0.3-1.5-0.3c-0.6,0-1.2,0.2-1.7,0.5s-0.9,0.8-1.2,1.5
			c-0.3,0.6-0.4,1.4-0.4,2.2c0,0.7,0.1,1.1,0.4,1.4s0.7,0.4,1.2,0.4c0.6,0,1.4-0.2,2.3-0.8l0.4,1c-0.4,0.3-0.9,0.6-1.4,0.8
			C525.5,457.7,525,457.8,524.5,457.8z"/>
		<path class="st5" d="M531.5,450.9c0.5-0.6,1-1,1.5-1.3s1.1-0.4,1.6-0.4c0.7,0,1.2,0.2,1.5,0.5c0.4,0.4,0.5,0.9,0.5,1.6
			c0,0.2,0,0.5-0.1,0.7c0,0.3-0.1,0.7-0.2,1.3l-0.8,4.2H534l0.8-4.2c0.2-0.8,0.3-1.5,0.3-1.8c0-0.7-0.4-1.1-1.1-1.1
			c-0.4,0-0.8,0.2-1.3,0.5s-1,0.8-1.5,1.3l-1,5.3h-1.5l2.3-11.8h1.5L531.5,450.9z"/>
		<path class="st5" d="M542.9,457c-0.3,0.2-0.6,0.4-1,0.5s-0.8,0.2-1.2,0.2c-1.4,0-2-0.6-2-1.7c0-0.3,0.1-0.8,0.2-1.6l0.7-3.6h-1.5
			l0.2-1l1.6-0.2l0.7-2.3h1.2l-0.4,2.3h2.4l-0.2,1.2h-2.4l-0.7,3.5c-0.1,0.8-0.2,1.3-0.2,1.5c0,0.3,0.1,0.5,0.2,0.6
			c0.1,0.1,0.4,0.2,0.7,0.2c0.4,0,0.9-0.1,1.4-0.3L542.9,457z"/>
		<path class="st5" d="M546.3,453.8c-0.5-0.3-0.9-0.6-1.1-0.9c-0.2-0.3-0.4-0.7-0.4-1.1c0-0.5,0.1-0.9,0.4-1.3
			c0.3-0.4,0.6-0.7,1.1-0.9c0.5-0.2,1-0.3,1.6-0.3c0.9,0,1.6,0.2,2.3,0.5l-0.2,1.1c-0.3-0.1-0.6-0.2-1-0.3c-0.4-0.1-0.7-0.1-1-0.1
			c-0.5,0-0.9,0.1-1.2,0.3s-0.4,0.5-0.4,0.9s0.3,0.8,0.9,1.1l1,0.5c0.5,0.3,0.9,0.6,1.1,0.9s0.3,0.7,0.3,1.1c0,0.8-0.3,1.4-0.9,1.9
			s-1.3,0.7-2.3,0.7c-0.5,0-1-0.1-1.5-0.2s-0.9-0.3-1.2-0.4l0.2-1.1c0.4,0.2,0.8,0.3,1.2,0.4c0.5,0.1,0.9,0.1,1.3,0.1
			c0.5,0,0.9-0.1,1.2-0.3s0.4-0.5,0.4-0.9c0-0.2-0.1-0.4-0.2-0.6c-0.1-0.2-0.4-0.3-0.7-0.5L546.3,453.8z"/>
		<path class="st5" d="M561.5,457.5l-0.5-6.3l-2.8,6.3h-1.5l-1.1-8.1h1.6l0.6,6.5l2.8-6.5h1.5l0.5,6.7c1.2-2.3,2.1-4.5,2.8-6.7h1.6
			c-0.4,1.2-1,2.5-1.7,4.1s-1.5,2.9-2.2,4H561.5z"/>
		<path class="st5" d="M567.1,457.5l1.6-8.1h1.5l-1.6,8.1H567.1z M569.7,448c-0.3,0-0.5-0.1-0.6-0.2c-0.2-0.1-0.2-0.3-0.2-0.6
			c0-0.3,0.1-0.6,0.3-0.8c0.2-0.2,0.5-0.3,0.8-0.3s0.5,0.1,0.6,0.2c0.2,0.1,0.2,0.3,0.2,0.6c0,0.3-0.1,0.6-0.3,0.8
			S570,448,569.7,448z"/>
		<path class="st5" d="M573.2,453.8c-0.5-0.3-0.9-0.6-1.1-0.9c-0.2-0.3-0.4-0.7-0.4-1.1c0-0.5,0.1-0.9,0.4-1.3
			c0.3-0.4,0.6-0.7,1.1-0.9c0.5-0.2,1-0.3,1.6-0.3c0.9,0,1.6,0.2,2.3,0.5l-0.2,1.1c-0.3-0.1-0.6-0.2-1-0.3c-0.4-0.1-0.7-0.1-1-0.1
			c-0.5,0-0.9,0.1-1.2,0.3s-0.4,0.5-0.4,0.9s0.3,0.8,0.9,1.1l1,0.5c0.5,0.3,0.9,0.6,1.1,0.9s0.3,0.7,0.3,1.1c0,0.8-0.3,1.4-0.9,1.9
			s-1.3,0.7-2.3,0.7c-0.5,0-1-0.1-1.5-0.2s-0.9-0.3-1.2-0.4l0.2-1.1c0.4,0.2,0.8,0.3,1.2,0.4c0.5,0.1,0.9,0.1,1.3,0.1
			c0.5,0,0.9-0.1,1.2-0.3s0.4-0.5,0.4-0.9c0-0.2-0.1-0.4-0.2-0.6c-0.1-0.2-0.4-0.3-0.7-0.5L573.2,453.8z"/>
		<path class="st5" d="M580.9,457.8c-0.9,0-1.6-0.3-2.1-0.8s-0.8-1.3-0.8-2.2c0-1,0.2-1.9,0.6-2.7c0.4-0.9,1-1.6,1.7-2.1
			s1.6-0.8,2.4-0.8c0.3,0,0.7,0,1,0.1s0.6,0.2,0.9,0.3l-0.2,1.2c-0.5-0.2-1-0.3-1.5-0.3c-0.6,0-1.2,0.2-1.7,0.5s-0.9,0.8-1.2,1.5
			c-0.3,0.6-0.4,1.4-0.4,2.2c0,0.7,0.1,1.1,0.4,1.4s0.7,0.4,1.2,0.4c0.6,0,1.4-0.2,2.3-0.8l0.4,1c-0.4,0.3-0.9,0.6-1.4,0.8
			C582,457.7,581.4,457.8,580.9,457.8z"/>
		<path class="st5" d="M587.9,450.9c0.5-0.6,1-1,1.5-1.3s1.1-0.4,1.6-0.4c0.7,0,1.2,0.2,1.5,0.5c0.4,0.4,0.5,0.9,0.5,1.6
			c0,0.2,0,0.5-0.1,0.7c0,0.3-0.1,0.7-0.2,1.3l-0.8,4.2h-1.5l0.8-4.2c0.2-0.8,0.3-1.5,0.3-1.8c0-0.7-0.4-1.1-1.1-1.1
			c-0.4,0-0.8,0.2-1.3,0.5s-1,0.8-1.5,1.3l-1,5.3h-1.5l2.3-11.8h1.5L587.9,450.9z"/>
		<path class="st5" d="M600.5,456.8c-1,0.7-2.2,1.1-3.4,1.1c-0.9,0-1.5-0.3-2-0.8s-0.7-1.2-0.7-2.2c0-0.7,0.1-1.4,0.3-2.1
			s0.6-1.3,1-1.8s0.9-1,1.6-1.3c0.6-0.3,1.3-0.5,2-0.5s1.2,0.2,1.5,0.5c0.4,0.3,0.6,0.8,0.6,1.3c0,0.8-0.4,1.6-1.2,2.2
			s-1.9,1-3.3,1.3l-1,0.2c0,0.7,0.1,1.2,0.4,1.5c0.2,0.3,0.7,0.5,1.2,0.5c0.8,0,1.6-0.3,2.6-0.8L600.5,456.8z M599,450.3
			c-0.5,0-0.9,0.1-1.3,0.4c-0.4,0.3-0.8,0.7-1.1,1.2s-0.5,1.1-0.6,1.7l1-0.2c0.9-0.2,1.7-0.5,2.2-0.9s0.8-0.8,0.8-1.3
			c0-0.2-0.1-0.4-0.2-0.6C599.5,450.4,599.3,450.3,599,450.3z"/>
		<path class="st5" d="M607.4,457.5l0.8-4.2c0.2-0.8,0.3-1.5,0.3-1.8c0-0.7-0.4-1.1-1.1-1.1c-0.4,0-0.8,0.2-1.3,0.5s-1,0.7-1.4,1.3
			l-1.1,5.3H602l1.6-8.1h1.3l-0.1,1.5c0.5-0.6,1-1,1.5-1.3s1.1-0.5,1.6-0.5c0.7,0,1.2,0.2,1.5,0.5c0.4,0.4,0.5,0.9,0.5,1.6
			c0,0.2,0,0.5-0.1,0.7c0,0.3-0.1,0.7-0.2,1.3l-0.8,4.2h-1.4V457.5z"/>
	</g>
</g>
</svg>
